<svg width="84" height="60" viewBox="0 0 84 60" fill="none" xmlns="http://www.w3.org/2000/svg">
<g id="Frame 1932">
<g id="Group 1734">
<g id="Group 1718">
<g id="Group 1712">
<g id="Group 1707">
<g id="Group 1712_2">
<path id="Subtract" fill-rule="evenodd" clip-rule="evenodd" d="M24.6045 15.0878C23.31 15.1839 22.3385 16.3111 22.4345 17.6056L22.9682 24.7984C24.8657 24.6577 26.4962 25.7889 26.6102 27.325C26.7242 28.8612 25.2784 30.2206 23.3809 30.3615L23.944 37.9514C24.04 39.2459 25.1673 40.2174 26.4618 40.1214L73.3119 36.6456C74.6064 36.5495 75.5779 35.4223 75.4819 34.1278L74.9188 26.5378C73.0212 26.6786 71.3905 25.5474 71.2765 24.0112C71.1626 22.475 72.6085 21.1156 74.506 20.9748L73.9724 13.782C73.8764 12.4875 72.7491 11.5159 71.4546 11.612L24.6045 15.0878Z" fill="#E2EDFF"/>
</g>
</g>
</g>
<g id="Group 1713">
<g id="Group 1707_2">
<g id="Group 1712_3">
<path id="Subtract_2" fill-rule="evenodd" clip-rule="evenodd" d="M15.9762 19.9533C14.6849 19.821 13.5308 20.7605 13.3984 22.0518L12.663 29.2268C14.5558 29.4209 15.9628 30.8204 15.8058 32.3527C15.6487 33.885 13.987 34.97 12.0943 34.7761L11.3183 42.3472C11.1859 43.6384 12.1254 44.7925 13.4167 44.9249L60.1507 49.7149C61.442 49.8472 62.5961 48.9077 62.7285 47.6164L63.5045 40.0453C63.5044 40.0453 63.5044 40.0453 63.5044 40.0453C61.6115 39.8513 60.2044 38.4518 60.3615 36.9194C60.5185 35.387 62.1803 34.3021 64.0732 34.4961C64.0732 34.4961 64.0732 34.4961 64.0732 34.4961L64.8086 27.321C64.941 26.0297 64.0015 24.8756 62.7102 24.7433L15.9762 19.9533Z" fill="#3384FF"/>
</g>
</g>
</g>
</g>
<g id="Group 1720">
<g id="Group 1719">
<path id="Ellipse 30" d="M21.6542 12.5711C20.8421 14.7099 17.2325 15.3232 13.5919 13.9409C9.9513 12.5585 7.65836 9.70412 8.47046 7.56531C8.47046 7.56531 11.1356 8.5773 14.7762 9.95961C18.4168 11.3419 21.6542 12.5711 21.6542 12.5711Z" fill="#84B5FF"/>
<rect id="Rectangle 1864" x="9.53882" y="4.75159" width="14.1021" height="3.00973" transform="rotate(20.7916 9.53882 4.75159)" fill="#84B5FF"/>
</g>
<ellipse id="Ellipse 29" cx="16.0847" cy="7.37555" rx="7.05103" ry="4.14242" transform="rotate(20.7916 16.0847 7.37555)" fill="#E2EDFF"/>
</g>
<g id="Group 1721">
<g id="Group 1719_2">
<path id="Ellipse 30_2" d="M76.2831 8.4243C77.5631 10.3202 75.9844 13.6236 72.7569 15.8026C69.5294 17.9816 65.8754 18.211 64.5953 16.3151C64.5953 16.3151 66.9581 14.7199 70.1856 12.541C73.4131 10.362 76.2831 8.4243 76.2831 8.4243Z" fill="#3384FF"/>
<rect id="Rectangle 1864_2" x="62.9114" y="13.8209" width="14.1021" height="3.00946" transform="rotate(-34.0245 62.9114 13.8209)" fill="#3384FF"/>
</g>
<ellipse id="Ellipse 29_2" cx="68.8277" cy="9.98284" rx="7.05103" ry="4.14205" transform="rotate(-34.0245 68.8277 9.98284)" fill="#84B5FF"/>
</g>
<g id="Group 1722">
<g id="Group 1719_3">
<path id="Ellipse 30_3" d="M62.6927 55.2124C61.3059 57.0317 57.6711 56.5927 54.5741 54.232C51.4771 51.8712 50.0907 48.4826 51.4775 46.6633C51.4775 46.6633 53.7447 48.3916 56.8417 50.7524C59.9387 53.1131 62.6927 55.2124 62.6927 55.2124Z" fill="#84B5FF"/>
<rect id="Rectangle 1864_3" x="53.3019" y="44.27" width="14.1021" height="3.00946" transform="rotate(37.3171 53.3019 44.27)" fill="#84B5FF"/>
</g>
<ellipse id="Ellipse 29_3" cx="58.831" cy="48.6475" rx="7.05103" ry="4.14205" transform="rotate(37.3171 58.831 48.6475)" fill="#E2EDFF"/>
</g>
</g>
</g>
</svg>
