<svg width="24" height="24" viewBox="0 0 24 24" fill="none" xmlns="http://www.w3.org/2000/svg">
<g id="fa-solid:ad" clip-path="url(#clip0_411_26031)">
<path id="Vector" d="M7.38406 12.75H9.11656L8.25031 10.2553L7.38406 12.75ZM16.5003 12C15.8802 12 15.3753 12.5048 15.3753 13.125C15.3753 13.7452 15.8802 14.25 16.5003 14.25C17.1205 14.25 17.6253 13.7452 17.6253 13.125C17.6253 12.5048 17.1205 12 16.5003 12ZM21.7503 3H2.25031C1.00812 3 0.000310153 3 0.000310153 3V18.75C0.000310153 19.9922 0 21 0 21H24C24 21 24.0003 19.9922 24.0003 18.75V3C24.0003 3 22.9925 3 21.7503 3ZM11.7462 16.5H10.9522C10.633 16.5 10.3484 16.2975 10.2434 15.9961L9.89797 15H6.60312L6.25718 15.9961C6.20605 16.1433 6.11032 16.2709 5.9833 16.3613C5.85628 16.4516 5.70428 16.5001 5.54844 16.5H4.75437C4.23828 16.5 3.8764 15.9914 4.04562 15.5039L6.56281 8.25562C6.6395 8.03489 6.78303 7.84353 6.97347 7.70812C7.16391 7.5727 7.39179 7.49996 7.62547 7.5H8.87515C9.10889 7.49996 9.33683 7.57275 9.52729 7.70826C9.71774 7.84377 9.86123 8.03526 9.93781 8.25609L12.4545 15.5039C12.6237 15.9914 12.2619 16.5 11.7462 16.5ZM19.8753 15.75C19.8753 16.1644 19.5397 16.5 19.1253 16.5H18.3753C18.148 16.5 17.9516 16.3936 17.8137 16.2338C17.4097 16.4053 16.9658 16.5 16.5003 16.5C14.6394 16.5 13.1253 14.9859 13.1253 13.125C13.1253 11.2641 14.6394 9.75 16.5003 9.75C16.8969 9.75 17.2719 9.83109 17.6253 9.95719V8.25C17.6253 7.83563 17.9609 7.5 18.3753 7.5H19.1253C19.5397 7.5 19.8753 7.83563 19.8753 8.25V15.75Z" fill="#000E59"/>
</g>
<defs>
<clipPath id="clip0_411_26031">
<rect width="24" height="24" fill="white"/>
</clipPath>
</defs>
</svg>
