<svg width="24" height="25" viewBox="0 0 24 25" fill="none" xmlns="http://www.w3.org/2000/svg">
<g id="Group">
<path id="Vector" d="M21 20.029C21 20.2942 20.8946 20.5486 20.7071 20.7361C20.5196 20.9237 20.2652 21.029 20 21.029H4C3.73478 21.029 3.48043 20.9237 3.29289 20.7361C3.10536 20.5486 3 20.2942 3 20.029V9.51902C2.99989 9.36663 3.03462 9.21624 3.10152 9.07932C3.16841 8.9424 3.26572 8.82258 3.386 8.72902L11.386 2.50702C11.5615 2.37046 11.7776 2.29633 12 2.29633C12.2224 2.29633 12.4385 2.37046 12.614 2.50702L20.614 8.72902C20.7343 8.82258 20.8316 8.9424 20.8985 9.07932C20.9654 9.21624 21.0001 9.36663 21 9.51902V20.029Z" fill="#0066FF"/>
</g>
</svg>
