<svg width="41" height="40" viewBox="0 0 41 40" fill="none" xmlns="http://www.w3.org/2000/svg">
<circle cx="20.5" cy="20" r="20" fill="#EBEDF0"/>
<path d="M13.0007 26.6666C12.5423 26.6666 12.1498 26.5033 11.8232 26.1766C11.4965 25.8499 11.3334 25.4577 11.334 24.9999V14.9999C11.334 14.5416 11.4973 14.1491 11.824 13.8224C12.1507 13.4958 12.5429 13.3327 13.0007 13.3333H18.0007L19.6673 14.9999H26.334C26.7923 14.9999 27.1848 15.1633 27.5115 15.4899C27.8382 15.8166 28.0012 16.2088 28.0007 16.6666V24.9999C28.0007 25.4583 27.8373 25.8508 27.5107 26.1774C27.184 26.5041 26.7918 26.6671 26.334 26.6666H13.0007Z" fill="#58687F"/>
</svg>
