<svg width="36" height="36" viewBox="0 0 36 36" fill="none" xmlns="http://www.w3.org/2000/svg">
<g id="fluent-emoji:writing-hand-light">
<g id="Group">
<g id="Group_2" filter="url(#filter0_i_56_1531)">
<path id="Vector" d="M8.38898 12.6641C9.14718 11.4466 10.3418 10.5647 11.7287 10.1987C13.1155 9.8328 14.5898 10.0105 15.85 10.6954L19.09 12.456L14.2469 20.421L12.655 16.4385L7.79836 24.8974C7.61056 25.2252 7.35948 25.5125 7.05971 25.7425C6.75994 25.9725 6.41746 26.1406 6.05216 26.2371C5.68686 26.3336 5.30603 26.3566 4.93178 26.3047C4.55753 26.2527 4.19733 26.127 3.87211 25.9346L3.74161 25.857C3.41707 25.6653 3.13376 25.4111 2.90807 25.1092C2.68237 24.8073 2.51876 24.4637 2.4267 24.0981C2.33464 23.7326 2.31595 23.3525 2.37172 22.9797C2.42749 22.6069 2.55661 22.2488 2.75161 21.9263L6.82411 15.192L6.81849 15.1875L7.13349 14.6801L7.79049 13.5956C7.98174 13.2773 8.17073 12.9701 8.38898 12.6641Z" fill="url(#paint0_linear_56_1531)"/>
<path id="Vector_2" d="M8.38898 12.6641C9.14718 11.4466 10.3418 10.5647 11.7287 10.1987C13.1155 9.8328 14.5898 10.0105 15.85 10.6954L19.09 12.456L14.2469 20.421L12.655 16.4385L7.79836 24.8974C7.61056 25.2252 7.35948 25.5125 7.05971 25.7425C6.75994 25.9725 6.41746 26.1406 6.05216 26.2371C5.68686 26.3336 5.30603 26.3566 4.93178 26.3047C4.55753 26.2527 4.19733 26.127 3.87211 25.9346L3.74161 25.857C3.41707 25.6653 3.13376 25.4111 2.90807 25.1092C2.68237 24.8073 2.51876 24.4637 2.4267 24.0981C2.33464 23.7326 2.31595 23.3525 2.37172 22.9797C2.42749 22.6069 2.55661 22.2488 2.75161 21.9263L6.82411 15.192L6.81849 15.1875L7.13349 14.6801L7.79049 13.5956C7.98174 13.2773 8.17073 12.9701 8.38898 12.6641Z" fill="url(#paint1_radial_56_1531)"/>
<path id="Vector_3" d="M8.38898 12.6641C9.14718 11.4466 10.3418 10.5647 11.7287 10.1987C13.1155 9.8328 14.5898 10.0105 15.85 10.6954L19.09 12.456L14.2469 20.421L12.655 16.4385L7.79836 24.8974C7.61056 25.2252 7.35948 25.5125 7.05971 25.7425C6.75994 25.9725 6.41746 26.1406 6.05216 26.2371C5.68686 26.3336 5.30603 26.3566 4.93178 26.3047C4.55753 26.2527 4.19733 26.127 3.87211 25.9346L3.74161 25.857C3.41707 25.6653 3.13376 25.4111 2.90807 25.1092C2.68237 24.8073 2.51876 24.4637 2.4267 24.0981C2.33464 23.7326 2.31595 23.3525 2.37172 22.9797C2.42749 22.6069 2.55661 22.2488 2.75161 21.9263L6.82411 15.192L6.81849 15.1875L7.13349 14.6801L7.79049 13.5956C7.98174 13.2773 8.17073 12.9701 8.38898 12.6641Z" fill="url(#paint2_linear_56_1531)"/>
</g>
<path id="Vector_4" d="M17.0693 30.5067L16.3145 28.566L17.8355 26.3318H33.6192V31.4832C33.6192 32.0799 33.3822 32.6522 32.9602 33.0742C32.5382 33.4961 31.9659 33.7332 31.3692 33.7332H21.7876C20.7675 33.7332 19.7712 33.425 18.9293 32.849C18.0874 32.2731 17.4391 31.4563 17.0693 30.5055" fill="url(#paint3_linear_56_1531)"/>
<path id="Vector_5" d="M17.0693 30.5067L16.3145 28.566L17.8355 26.3318H33.6192V31.4832C33.6192 32.0799 33.3822 32.6522 32.9602 33.0742C32.5382 33.4961 31.9659 33.7332 31.3692 33.7332H21.7876C20.7675 33.7332 19.7712 33.425 18.9293 32.849C18.0874 32.2731 17.4391 31.4563 17.0693 30.5055" fill="url(#paint4_linear_56_1531)"/>
<path id="Vector_6" d="M17.0693 30.5067L16.3145 28.566L17.8355 26.3318H33.6192V31.4832C33.6192 32.0799 33.3822 32.6522 32.9602 33.0742C32.5382 33.4961 31.9659 33.7332 31.3692 33.7332H21.7876C20.7675 33.7332 19.7712 33.425 18.9293 32.849C18.0874 32.2731 17.4391 31.4563 17.0693 30.5055" fill="url(#paint5_radial_56_1531)"/>
<path id="Vector_7" d="M16.6103 28.4715C16.6103 26.9704 15.3934 25.7535 13.8923 25.7535C12.3912 25.7535 11.1743 26.9704 11.1743 28.4715V30.8937C11.1743 32.3948 12.3912 33.6117 13.8923 33.6117C15.3934 33.6117 16.6103 32.3948 16.6103 30.8937V28.4715Z" fill="url(#paint6_radial_56_1531)"/>
<path id="Vector_8" d="M16.6103 28.4715C16.6103 26.9704 15.3934 25.7535 13.8923 25.7535C12.3912 25.7535 11.1743 26.9704 11.1743 28.4715V30.8937C11.1743 32.3948 12.3912 33.6117 13.8923 33.6117C15.3934 33.6117 16.6103 32.3948 16.6103 30.8937V28.4715Z" fill="url(#paint7_radial_56_1531)"/>
<path id="Vector_9" d="M16.6103 28.4715C16.6103 26.9704 15.3934 25.7535 13.8923 25.7535C12.3912 25.7535 11.1743 26.9704 11.1743 28.4715V30.8937C11.1743 32.3948 12.3912 33.6117 13.8923 33.6117C15.3934 33.6117 16.6103 32.3948 16.6103 30.8937V28.4715Z" fill="url(#paint8_linear_56_1531)"/>
<path id="Vector_10" d="M20.4076 2.54929C20.4444 2.48508 20.4936 2.42877 20.5522 2.38359C20.6109 2.33842 20.6778 2.30526 20.7493 2.28603C20.8208 2.2668 20.8954 2.26187 20.9688 2.27153C21.0422 2.28118 21.113 2.30523 21.1771 2.34229L24.5104 4.26604C24.6392 4.34044 24.7333 4.4628 24.7721 4.60637C24.8109 4.74995 24.7912 4.90304 24.7174 5.03216L9.48382 31.635C9.42855 31.7315 9.34595 31.8094 9.24644 31.8589L5.67344 33.6308C5.49119 33.7208 5.33819 33.6308 5.32919 33.4283L5.07494 29.4447C5.0695 29.3374 5.09487 29.2308 5.14807 29.1375L20.4076 2.54929Z" fill="url(#paint9_radial_56_1531)"/>
<path id="Vector_11" d="M20.4076 2.54929C20.4444 2.48508 20.4936 2.42877 20.5522 2.38359C20.6109 2.33842 20.6778 2.30526 20.7493 2.28603C20.8208 2.2668 20.8954 2.26187 20.9688 2.27153C21.0422 2.28118 21.113 2.30523 21.1771 2.34229L24.5104 4.26604C24.6392 4.34044 24.7333 4.4628 24.7721 4.60637C24.8109 4.74995 24.7912 4.90304 24.7174 5.03216L9.48382 31.635C9.42855 31.7315 9.34595 31.8094 9.24644 31.8589L5.67344 33.6308C5.49119 33.7208 5.33819 33.6308 5.32919 33.4283L5.07494 29.4447C5.0695 29.3374 5.09487 29.2308 5.14807 29.1375L20.4076 2.54929Z" fill="url(#paint10_radial_56_1531)"/>
<g id="Group_3" filter="url(#filter1_f_56_1531)">
<path id="Vector_12" d="M19.3958 9.42981L9.21338 27.3589" stroke="url(#paint11_linear_56_1531)" stroke-linecap="round"/>
</g>
<g id="Group_4" filter="url(#filter2_i_56_1531)">
<path id="Vector_13" d="M11.1745 24.7838C9.76714 25.7682 9.31489 27.7471 10.2318 29.1983C11.1723 30.6844 13.24 31.1209 14.7374 30.1996L18.7086 27.7538C18.8247 27.6824 18.9539 27.6349 19.0885 27.6139C19.2232 27.593 19.3607 27.5991 19.4929 27.6319C19.6252 27.6647 19.7496 27.7235 19.8589 27.8049C19.9682 27.8863 20.0602 27.9886 20.1295 28.1059C20.8786 29.372 21.9748 30.3968 23.2884 31.0589C24.6019 31.7211 26.0777 31.9929 27.541 31.8421L31.852 31.3988C32.3366 31.3487 32.7853 31.1207 33.1116 30.759C33.4378 30.3972 33.6183 29.9273 33.6183 29.4402V21.4189C33.6157 20.7957 33.4289 20.1871 33.0814 19.6696C32.7339 19.1522 32.2412 18.749 31.6653 18.5108C29.1599 17.4668 24.598 15.4857 20.0834 13.1277L14.7498 22.4427L11.1745 24.7838Z" fill="url(#paint12_linear_56_1531)"/>
<path id="Vector_14" d="M11.1745 24.7838C9.76714 25.7682 9.31489 27.7471 10.2318 29.1983C11.1723 30.6844 13.24 31.1209 14.7374 30.1996L18.7086 27.7538C18.8247 27.6824 18.9539 27.6349 19.0885 27.6139C19.2232 27.593 19.3607 27.5991 19.4929 27.6319C19.6252 27.6647 19.7496 27.7235 19.8589 27.8049C19.9682 27.8863 20.0602 27.9886 20.1295 28.1059C20.8786 29.372 21.9748 30.3968 23.2884 31.0589C24.6019 31.7211 26.0777 31.9929 27.541 31.8421L31.852 31.3988C32.3366 31.3487 32.7853 31.1207 33.1116 30.759C33.4378 30.3972 33.6183 29.9273 33.6183 29.4402V21.4189C33.6157 20.7957 33.4289 20.1871 33.0814 19.6696C32.7339 19.1522 32.2412 18.749 31.6653 18.5108C29.1599 17.4668 24.598 15.4857 20.0834 13.1277L14.7498 22.4427L11.1745 24.7838Z" fill="url(#paint13_radial_56_1531)"/>
<path id="Vector_15" d="M11.1745 24.7838C9.76714 25.7682 9.31489 27.7471 10.2318 29.1983C11.1723 30.6844 13.24 31.1209 14.7374 30.1996L18.7086 27.7538C18.8247 27.6824 18.9539 27.6349 19.0885 27.6139C19.2232 27.593 19.3607 27.5991 19.4929 27.6319C19.6252 27.6647 19.7496 27.7235 19.8589 27.8049C19.9682 27.8863 20.0602 27.9886 20.1295 28.1059C20.8786 29.372 21.9748 30.3968 23.2884 31.0589C24.6019 31.7211 26.0777 31.9929 27.541 31.8421L31.852 31.3988C32.3366 31.3487 32.7853 31.1207 33.1116 30.759C33.4378 30.3972 33.6183 29.9273 33.6183 29.4402V21.4189C33.6157 20.7957 33.4289 20.1871 33.0814 19.6696C32.7339 19.1522 32.2412 18.749 31.6653 18.5108C29.1599 17.4668 24.598 15.4857 20.0834 13.1277L14.7498 22.4427L11.1745 24.7838Z" fill="url(#paint14_radial_56_1531)"/>
<path id="Vector_16" d="M11.1745 24.7838C9.76714 25.7682 9.31489 27.7471 10.2318 29.1983C11.1723 30.6844 13.24 31.1209 14.7374 30.1996L18.7086 27.7538C18.8247 27.6824 18.9539 27.6349 19.0885 27.6139C19.2232 27.593 19.3607 27.5991 19.4929 27.6319C19.6252 27.6647 19.7496 27.7235 19.8589 27.8049C19.9682 27.8863 20.0602 27.9886 20.1295 28.1059C20.8786 29.372 21.9748 30.3968 23.2884 31.0589C24.6019 31.7211 26.0777 31.9929 27.541 31.8421L31.852 31.3988C32.3366 31.3487 32.7853 31.1207 33.1116 30.759C33.4378 30.3972 33.6183 29.9273 33.6183 29.4402V21.4189C33.6157 20.7957 33.4289 20.1871 33.0814 19.6696C32.7339 19.1522 32.2412 18.749 31.6653 18.5108C29.1599 17.4668 24.598 15.4857 20.0834 13.1277L14.7498 22.4427L11.1745 24.7838Z" fill="url(#paint15_linear_56_1531)"/>
</g>
<path id="Vector_17" d="M11.1745 24.7838C9.76714 25.7682 9.31489 27.7471 10.2318 29.1983C11.1723 30.6844 13.24 31.1209 14.7374 30.1996L18.7086 27.7538C18.8247 27.6824 18.9539 27.6349 19.0885 27.6139C19.2232 27.593 19.3607 27.5991 19.4929 27.6319C19.6252 27.6647 19.7496 27.7235 19.8589 27.8049C19.9682 27.8863 20.0602 27.9886 20.1295 28.1059C20.8786 29.372 21.9748 30.3968 23.2884 31.0589C24.6019 31.7211 26.0777 31.9929 27.541 31.8421L31.852 31.3988C32.3366 31.3487 32.7853 31.1207 33.1116 30.759C33.4378 30.3972 33.6183 29.9273 33.6183 29.4402V21.4189C33.6157 20.7957 33.4289 20.1871 33.0814 19.6696C32.7339 19.1522 32.2412 18.749 31.6653 18.5108C29.1599 17.4668 24.598 15.4857 20.0834 13.1277L14.7498 22.4427L11.1745 24.7838Z" fill="url(#paint16_linear_56_1531)"/>
<path id="Vector_18" d="M11.1745 24.7838C9.76714 25.7682 9.31489 27.7471 10.2318 29.1983C11.1723 30.6844 13.24 31.1209 14.7374 30.1996L18.7086 27.7538C18.8247 27.6824 18.9539 27.6349 19.0885 27.6139C19.2232 27.593 19.3607 27.5991 19.4929 27.6319C19.6252 27.6647 19.7496 27.7235 19.8589 27.8049C19.9682 27.8863 20.0602 27.9886 20.1295 28.1059C20.8786 29.372 21.9748 30.3968 23.2884 31.0589C24.6019 31.7211 26.0777 31.9929 27.541 31.8421L31.852 31.3988C32.3366 31.3487 32.7853 31.1207 33.1116 30.759C33.4378 30.3972 33.6183 29.9273 33.6183 29.4402V21.4189C33.6157 20.7957 33.4289 20.1871 33.0814 19.6696C32.7339 19.1522 32.2412 18.749 31.6653 18.5108C29.1599 17.4668 24.598 15.4857 20.0834 13.1277L14.7498 22.4427L11.1745 24.7838Z" fill="url(#paint17_linear_56_1531)"/>
<path id="Vector_19" d="M19.0407 14.9479L14.7578 22.4291L16.7356 21.1871C17.9071 20.4511 19.2998 20.1497 20.6708 20.3355L23.4057 20.7068L19.0407 14.9479Z" fill="url(#paint18_radial_56_1531)"/>
<path id="Vector_20" d="M18 6.74447L19.2071 4.64185L23.508 7.14497L22.3042 9.24872L18 6.74447Z" fill="url(#paint19_linear_56_1531)"/>
<path id="Vector_21" d="M18 6.74447L19.2071 4.64185L23.508 7.14497L22.3042 9.24872L18 6.74447Z" fill="url(#paint20_linear_56_1531)"/>
<path id="Vector_22" d="M9.43405 31.7048C9.38296 31.769 9.31845 31.8212 9.24505 31.8578L5.67205 33.6297C5.4898 33.7197 5.3368 33.6297 5.3278 33.4272L5.07355 29.4435C5.07013 29.3793 5.07774 29.315 5.09605 29.2534L9.43405 31.7048Z" fill="url(#paint21_linear_56_1531)"/>
<path id="Vector_23" d="M9.43405 31.7048C9.38296 31.769 9.31845 31.8212 9.24505 31.8578L5.67205 33.6297C5.4898 33.7197 5.3368 33.6297 5.3278 33.4272L5.07355 29.4435C5.07013 29.3793 5.07774 29.315 5.09605 29.2534L9.43405 31.7048Z" fill="url(#paint22_linear_56_1531)"/>
<path id="Vector_24" d="M9.43405 31.7048C9.38296 31.769 9.31845 31.8212 9.24505 31.8578L5.67205 33.6297C5.4898 33.7197 5.3368 33.6297 5.3278 33.4272L5.07355 29.4435C5.07013 29.3793 5.07774 29.315 5.09605 29.2534L9.43405 31.7048Z" fill="url(#paint23_linear_56_1531)"/>
<path id="Vector_25" d="M6.59132 33.1741L5.6722 33.6297C5.48995 33.7197 5.33695 33.6297 5.32795 33.4272L5.2627 32.408L6.59132 33.1741Z" fill="url(#paint24_linear_56_1531)"/>
<g id="Group_5" filter="url(#filter3_f_56_1531)">
<path id="Vector_26" d="M20.0452 23.1975L13.7092 26.6197C13.6197 26.6685 13.5407 26.7344 13.4766 26.8137C13.4125 26.893 13.3647 26.9841 13.3359 27.0819C13.3071 27.1797 13.2978 27.2822 13.3086 27.3836C13.3193 27.4849 13.35 27.5832 13.3987 27.6727C13.4475 27.7623 13.5134 27.8413 13.5927 27.9054C13.672 27.9694 13.7631 28.0172 13.8609 28.0461C13.9587 28.0749 14.0612 28.0842 14.1626 28.0734C14.2639 28.0626 14.3622 28.032 14.4517 27.9832L20.1465 24.8647C20.4235 24.7131 20.7294 24.6216 21.0442 24.596C21.3589 24.5704 21.6756 24.6114 21.9735 24.7162L32.2076 28.3162V22.7925H21.6495C21.0894 22.7923 20.5381 22.9315 20.0452 23.1975Z" fill="url(#paint25_linear_56_1531)"/>
</g>
<path id="Vector_27" d="M14.7576 22.428L16.7354 21.1871C17.9069 20.4511 19.2996 20.1497 20.6706 20.3355L22.3221 20.5605L20.1408 28.1239L20.1295 28.1059C20.0602 27.9885 19.9682 27.8862 19.8589 27.8048C19.7496 27.7234 19.6252 27.6646 19.4929 27.6318C19.3606 27.599 19.2232 27.5929 19.0885 27.6139C18.9539 27.6348 18.8247 27.6824 18.7086 27.7537L14.7374 30.1984C13.2411 31.1209 11.1723 30.6844 10.2318 29.1971C9.31489 27.747 9.76714 25.7681 11.1745 24.7849L14.7498 22.4426L14.7576 22.428Z" fill="url(#paint26_linear_56_1531)"/>
<path id="Vector_28" d="M14.7576 22.428L16.7354 21.1871C17.9069 20.4511 19.2996 20.1497 20.6706 20.3355L22.3221 20.5605L20.1408 28.1239L20.1295 28.1059C20.0602 27.9885 19.9682 27.8862 19.8589 27.8048C19.7496 27.7234 19.6252 27.6646 19.4929 27.6318C19.3606 27.599 19.2232 27.5929 19.0885 27.6139C18.9539 27.6348 18.8247 27.6824 18.7086 27.7537L14.7374 30.1984C13.2411 31.1209 11.1723 30.6844 10.2318 29.1971C9.31489 27.747 9.76714 25.7681 11.1745 24.7849L14.7498 22.4426L14.7576 22.428Z" fill="url(#paint27_radial_56_1531)"/>
<path id="Vector_29" d="M14.7576 22.428L16.7354 21.1871C17.9069 20.4511 19.2996 20.1497 20.6706 20.3355L22.3221 20.5605L20.1408 28.1239L20.1295 28.1059C20.0602 27.9885 19.9682 27.8862 19.8589 27.8048C19.7496 27.7234 19.6252 27.6646 19.4929 27.6318C19.3606 27.599 19.2232 27.5929 19.0885 27.6139C18.9539 27.6348 18.8247 27.6824 18.7086 27.7537L14.7374 30.1984C13.2411 31.1209 11.1723 30.6844 10.2318 29.1971C9.31489 27.747 9.76714 25.7681 11.1745 24.7849L14.7498 22.4426L14.7576 22.428Z" fill="url(#paint28_radial_56_1531)"/>
<g id="Group_6" filter="url(#filter4_f_56_1531)">
<path id="Vector_30" d="M21.0586 2.81592L24.2626 4.77004" stroke="url(#paint29_linear_56_1531)" stroke-width="0.25" stroke-linecap="round"/>
</g>
</g>
</g>
<defs>
<filter id="filter0_i_56_1531" x="2.04033" y="9.01257" width="17.0495" height="17.3192" filterUnits="userSpaceOnUse" color-interpolation-filters="sRGB">
<feFlood flood-opacity="0" result="BackgroundImageFix"/>
<feBlend mode="normal" in="SourceGraphic" in2="BackgroundImageFix" result="shape"/>
<feColorMatrix in="SourceAlpha" type="matrix" values="0 0 0 0 0 0 0 0 0 0 0 0 0 0 0 0 0 0 127 0" result="hardAlpha"/>
<feOffset dx="-0.3" dy="-1"/>
<feGaussianBlur stdDeviation="1"/>
<feComposite in2="hardAlpha" operator="arithmetic" k2="-1" k3="1"/>
<feColorMatrix type="matrix" values="0 0 0 0 0.74902 0 0 0 0 0.431373 0 0 0 0 0.384314 0 0 0 1 0"/>
<feBlend mode="normal" in2="shape" result="effect1_innerShadow_56_1531"/>
</filter>
<filter id="filter1_f_56_1531" x="7.71338" y="7.92969" width="13.1826" height="20.9293" filterUnits="userSpaceOnUse" color-interpolation-filters="sRGB">
<feFlood flood-opacity="0" result="BackgroundImageFix"/>
<feBlend mode="normal" in="SourceGraphic" in2="BackgroundImageFix" result="shape"/>
<feGaussianBlur stdDeviation="0.5" result="effect1_foregroundBlur_56_1531"/>
</filter>
<filter id="filter2_i_56_1531" x="9.75439" y="12.8777" width="23.8638" height="19.0049" filterUnits="userSpaceOnUse" color-interpolation-filters="sRGB">
<feFlood flood-opacity="0" result="BackgroundImageFix"/>
<feBlend mode="normal" in="SourceGraphic" in2="BackgroundImageFix" result="shape"/>
<feColorMatrix in="SourceAlpha" type="matrix" values="0 0 0 0 0 0 0 0 0 0 0 0 0 0 0 0 0 0 127 0" result="hardAlpha"/>
<feOffset dy="-0.25"/>
<feGaussianBlur stdDeviation="0.25"/>
<feComposite in2="hardAlpha" operator="arithmetic" k2="-1" k3="1"/>
<feColorMatrix type="matrix" values="0 0 0 0 0.737255 0 0 0 0 0.498039 0 0 0 0 0.611765 0 0 0 1 0"/>
<feBlend mode="normal" in2="shape" result="effect1_innerShadow_56_1531"/>
</filter>
<filter id="filter3_f_56_1531" x="11.3042" y="20.7925" width="22.9033" height="9.5238" filterUnits="userSpaceOnUse" color-interpolation-filters="sRGB">
<feFlood flood-opacity="0" result="BackgroundImageFix"/>
<feBlend mode="normal" in="SourceGraphic" in2="BackgroundImageFix" result="shape"/>
<feGaussianBlur stdDeviation="1" result="effect1_foregroundBlur_56_1531"/>
</filter>
<filter id="filter4_f_56_1531" x="20.6836" y="2.44092" width="3.9541" height="2.7041" filterUnits="userSpaceOnUse" color-interpolation-filters="sRGB">
<feFlood flood-opacity="0" result="BackgroundImageFix"/>
<feBlend mode="normal" in="SourceGraphic" in2="BackgroundImageFix" result="shape"/>
<feGaussianBlur stdDeviation="0.125" result="effect1_foregroundBlur_56_1531"/>
</filter>
<linearGradient id="paint0_linear_56_1531" x1="13.7575" y1="11.0846" x2="5.96236" y2="24.4823" gradientUnits="userSpaceOnUse">
<stop stop-color="#ECB8A0"/>
<stop offset="1" stop-color="#DE9F93"/>
</linearGradient>
<radialGradient id="paint1_radial_56_1531" cx="0" cy="0" r="1" gradientUnits="userSpaceOnUse" gradientTransform="translate(16.244 11.2783) rotate(151.144) scale(2.72576 2.6918)">
<stop stop-color="#D89F83"/>
<stop offset="1" stop-color="#D89F83" stop-opacity="0"/>
</radialGradient>
<linearGradient id="paint2_linear_56_1531" x1="4.16461" y1="18.8359" x2="5.12423" y2="19.4434" gradientUnits="userSpaceOnUse">
<stop stop-color="#E9B499"/>
<stop offset="1" stop-color="#E9B499" stop-opacity="0"/>
</linearGradient>
<linearGradient id="paint3_linear_56_1531" x1="18.5948" y1="27.324" x2="25.9805" y2="34.2113" gradientUnits="userSpaceOnUse">
<stop stop-color="#D48F8B"/>
<stop offset="1" stop-color="#B27A98"/>
</linearGradient>
<linearGradient id="paint4_linear_56_1531" x1="33.8217" y1="33.7332" x2="32.6157" y2="33.7332" gradientUnits="userSpaceOnUse">
<stop stop-color="#F3CCB9"/>
<stop offset="1" stop-color="#F3CCB9" stop-opacity="0"/>
</linearGradient>
<radialGradient id="paint5_radial_56_1531" cx="0" cy="0" r="1" gradientUnits="userSpaceOnUse" gradientTransform="translate(16.3145 29.5774) rotate(-25.5699) scale(1.38124 3.22959)">
<stop stop-color="#AF6C6A"/>
<stop offset="1" stop-color="#AF6C6A" stop-opacity="0"/>
</radialGradient>
<radialGradient id="paint6_radial_56_1531" cx="0" cy="0" r="1" gradientUnits="userSpaceOnUse" gradientTransform="translate(15.7789 29.1983) rotate(121.322) scale(5.16587 6.22442)">
<stop stop-color="#BE7E8A"/>
<stop offset="1" stop-color="#B47079"/>
</radialGradient>
<radialGradient id="paint7_radial_56_1531" cx="0" cy="0" r="1" gradientUnits="userSpaceOnUse" gradientTransform="translate(13.8923 28.7438) rotate(90) scale(5.05946 4.44898)">
<stop offset="0.776" stop-color="#B97B96" stop-opacity="0"/>
<stop offset="1" stop-color="#B97B96"/>
</radialGradient>
<linearGradient id="paint8_linear_56_1531" x1="10.4993" y1="30.6698" x2="12.5209" y2="30.6698" gradientUnits="userSpaceOnUse">
<stop stop-color="#E4A996"/>
<stop offset="1" stop-color="#E4A996" stop-opacity="0"/>
</linearGradient>
<radialGradient id="paint9_radial_56_1531" cx="0" cy="0" r="1" gradientUnits="userSpaceOnUse" gradientTransform="translate(11.0026 24.183) rotate(-60.825) scale(20.8511 8.79624)">
<stop stop-color="#DA7838"/>
<stop offset="1" stop-color="#F14E4B"/>
</radialGradient>
<radialGradient id="paint10_radial_56_1531" cx="0" cy="0" r="1" gradientUnits="userSpaceOnUse" gradientTransform="translate(13.9973 24.4632) rotate(-57.9221) scale(5.89169 4.06351)">
<stop stop-color="#B94D0B"/>
<stop offset="1" stop-color="#B94D0B" stop-opacity="0"/>
</radialGradient>
<linearGradient id="paint11_linear_56_1531" x1="11.3588" y1="25.4599" x2="20.5016" y2="9.42981" gradientUnits="userSpaceOnUse">
<stop stop-color="#E98D53"/>
<stop offset="1" stop-color="#E98D53" stop-opacity="0"/>
</linearGradient>
<linearGradient id="paint12_linear_56_1531" x1="20.1925" y1="15.1583" x2="31.9375" y2="26.9809" gradientUnits="userSpaceOnUse">
<stop stop-color="#FFCDB2"/>
<stop offset="1" stop-color="#F4C1B3"/>
</linearGradient>
<radialGradient id="paint13_radial_56_1531" cx="0" cy="0" r="1" gradientUnits="userSpaceOnUse" gradientTransform="translate(25.6229 34.1483) rotate(-135.161) scale(11.0921 7.06512)">
<stop offset="0.212" stop-color="#C88A97"/>
<stop offset="1" stop-color="#C88A97" stop-opacity="0"/>
</radialGradient>
<radialGradient id="paint14_radial_56_1531" cx="0" cy="0" r="1" gradientUnits="userSpaceOnUse" gradientTransform="translate(32.4269 20.5403) rotate(149.931) scale(5.82069 1.77038)">
<stop stop-color="#FFE5C6"/>
<stop offset="1" stop-color="#FFE5C6" stop-opacity="0"/>
</radialGradient>
<linearGradient id="paint15_linear_56_1531" x1="27.4218" y1="15.5746" x2="26.2968" y2="17.7537" gradientUnits="userSpaceOnUse">
<stop stop-color="#FFD3B5"/>
<stop offset="1" stop-color="#FFD3B5" stop-opacity="0"/>
</linearGradient>
<linearGradient id="paint16_linear_56_1531" x1="26.7906" y1="15.8907" x2="24.751" y2="20.1094" gradientUnits="userSpaceOnUse">
<stop stop-color="#F9D5BC"/>
<stop offset="1" stop-color="#F9D5BC" stop-opacity="0"/>
</linearGradient>
<linearGradient id="paint17_linear_56_1531" x1="34.1729" y1="23.8366" x2="31.2906" y2="23.8366" gradientUnits="userSpaceOnUse">
<stop stop-color="#F9D5BC"/>
<stop offset="1" stop-color="#F9D5BC" stop-opacity="0"/>
</linearGradient>
<radialGradient id="paint18_radial_56_1531" cx="0" cy="0" r="1" gradientUnits="userSpaceOnUse" gradientTransform="translate(14.8186 22.887) rotate(-46.17) scale(7.94417 9.38662)">
<stop offset="0.117" stop-color="#D78F83"/>
<stop offset="0.576" stop-color="#D67965"/>
<stop offset="1" stop-color="#D67965" stop-opacity="0"/>
</radialGradient>
<linearGradient id="paint19_linear_56_1531" x1="17.4814" y1="5.04797" x2="21.9656" y2="7.31372" gradientUnits="userSpaceOnUse">
<stop stop-color="#9E999F"/>
<stop offset="1" stop-color="#D9CCEC"/>
</linearGradient>
<linearGradient id="paint20_linear_56_1531" x1="23.508" y1="8.38472" x2="22.4651" y2="7.73447" gradientUnits="userSpaceOnUse">
<stop stop-color="#9C979A"/>
<stop offset="1" stop-color="#9C979A" stop-opacity="0"/>
</linearGradient>
<linearGradient id="paint21_linear_56_1531" x1="5.55618" y1="31.4595" x2="6.99167" y2="31.8949" gradientUnits="userSpaceOnUse">
<stop stop-color="#CE8C7F"/>
<stop offset="1" stop-color="#E79196"/>
</linearGradient>
<linearGradient id="paint22_linear_56_1531" x1="8.65105" y1="33.1977" x2="7.03893" y2="32.2673" gradientUnits="userSpaceOnUse">
<stop stop-color="#E086A3"/>
<stop offset="1" stop-color="#E086A3" stop-opacity="0"/>
</linearGradient>
<linearGradient id="paint23_linear_56_1531" x1="7.34718" y1="30.4099" x2="7.14693" y2="30.735" gradientUnits="userSpaceOnUse">
<stop stop-color="#EB947F"/>
<stop offset="1" stop-color="#EB947F" stop-opacity="0"/>
</linearGradient>
<linearGradient id="paint24_linear_56_1531" x1="5.5597" y1="33.1021" x2="6.11995" y2="33.5521" gradientUnits="userSpaceOnUse">
<stop stop-color="#3B1A3B"/>
<stop offset="1" stop-color="#3F0C46"/>
</linearGradient>
<linearGradient id="paint25_linear_56_1531" x1="16.7119" y1="25.5544" x2="35.1337" y2="26.1562" gradientUnits="userSpaceOnUse">
<stop stop-color="#FFD9C5"/>
<stop offset="1" stop-color="#FFE8CA"/>
</linearGradient>
<linearGradient id="paint26_linear_56_1531" x1="11.8844" y1="22.2536" x2="15.013" y2="25.4812" gradientUnits="userSpaceOnUse">
<stop stop-color="#F19D7C"/>
<stop offset="1" stop-color="#F19D7C" stop-opacity="0"/>
</linearGradient>
<radialGradient id="paint27_radial_56_1531" cx="0" cy="0" r="1" gradientUnits="userSpaceOnUse" gradientTransform="translate(9.75364 29.2151) rotate(-34.4393) scale(5.09752 6.62643)">
<stop stop-color="#BF8288"/>
<stop offset="1" stop-color="#BF8288" stop-opacity="0"/>
</radialGradient>
<radialGradient id="paint28_radial_56_1531" cx="0" cy="0" r="1" gradientUnits="userSpaceOnUse" gradientTransform="translate(13.5348 31.5349) rotate(-47.2026) scale(2.58727 3.21681)">
<stop stop-color="#B97C93"/>
<stop offset="1" stop-color="#B97C93" stop-opacity="0"/>
</radialGradient>
<linearGradient id="paint29_linear_56_1531" x1="24.1062" y1="4.58779" x2="21.0586" y2="2.92054" gradientUnits="userSpaceOnUse">
<stop stop-color="#FF756D" stop-opacity="0"/>
<stop offset="0.339" stop-color="#FF756D"/>
<stop offset="1" stop-color="#FF756D" stop-opacity="0"/>
</linearGradient>
</defs>
</svg>
