<svg width="40" height="41" viewBox="0 0 40 41" fill="none" xmlns="http://www.w3.org/2000/svg">
<path d="M20.0001 23.8332V28.8332M13.3334 17.1665H10.0001C9.11603 17.1665 8.26818 17.5177 7.64306 18.1428C7.01794 18.7679 6.66675 19.6158 6.66675 20.4998V32.1665C6.66675 33.0506 7.01794 33.8984 7.64306 34.5235C8.26818 35.1486 9.11603 35.4998 10.0001 35.4998H30.0001C30.8841 35.4998 31.732 35.1486 32.3571 34.5235C32.9822 33.8984 33.3334 33.0506 33.3334 32.1665V20.4998C33.3334 19.6158 32.9822 18.7679 32.3571 18.1428C31.732 17.5177 30.8841 17.1665 30.0001 17.1665H26.6667H13.3334Z" stroke="black" stroke-width="2" stroke-linecap="round" stroke-linejoin="round"/>
<path fill-rule="evenodd" clip-rule="evenodd" d="M28.875 5.6665H28.5C26.567 5.6665 25 7.2335 25 9.1665V16.1431H23V9.1665C23 6.12893 25.4624 3.6665 28.5 3.6665H28.875C31.9126 3.6665 34.375 6.12894 34.375 9.1665V10.5H32.375V9.1665C32.375 7.23351 30.808 5.6665 28.875 5.6665Z" fill="black"/>
</svg>
