<svg width="18" height="18" viewBox="0 0 18 18" fill="none" xmlns="http://www.w3.org/2000/svg">
<g id="icon-check-circle-line-mono" clip-path="url(#clip0_6_2623)">
<path id="Vector" fill-rule="evenodd" clip-rule="evenodd" d="M12.525 7.65L8.325 11.85C8.175 12 8.025 12.075 7.8 12.075C7.575 12.075 7.425 12 7.275 11.85L4.725 9.3C4.425 9 4.425 8.55 4.725 8.25C5.025 7.95 5.475 7.95 5.775 8.25L7.8 10.275L11.475 6.6C11.775 6.3 12.225 6.3 12.525 6.6C12.825 6.9 12.825 7.35 12.525 7.65Z" fill="#0066FF"/>
<path id="Vector_2" d="M9 2.25C12.75 2.25 15.75 5.25 15.75 9C15.75 12.75 12.75 15.75 9 15.75C5.25 15.75 2.25 12.75 2.25 9C2.25 5.25 5.25 2.25 9 2.25ZM9 0.75C4.425 0.75 0.75 4.425 0.75 9C0.75 13.575 4.425 17.25 9 17.25C13.575 17.25 17.25 13.575 17.25 9C17.25 4.425 13.575 0.75 9 0.75Z" fill="#0066FF"/>
</g>
<defs>
<clipPath id="clip0_6_2623">
<rect width="18" height="18" fill="white"/>
</clipPath>
</defs>
</svg>
