<svg width="24" height="24" viewBox="0 0 24 24" fill="none" xmlns="http://www.w3.org/2000/svg">
<g id="Group">
<path id="Vector" d="M3.34128 16.9998C2.91855 16.2688 2.58995 15.4873 2.36328 14.6738C2.85659 14.4229 3.27088 14.0404 3.56031 13.5687C3.84975 13.097 4.00305 12.5544 4.00325 12.0009C4.00346 11.4475 3.85057 10.9048 3.56148 10.4328C3.2724 9.96088 2.8584 9.57809 2.36528 9.32682C2.81732 7.69231 3.67801 6.19977 4.86628 4.98982C5.33037 5.29155 5.8689 5.45898 6.42226 5.4736C6.97562 5.48822 7.52223 5.34945 8.00161 5.07265C8.48099 4.79586 8.87443 4.39182 9.13841 3.90526C9.40238 3.41871 9.52659 2.8686 9.49728 2.31582C11.1394 1.89145 12.8625 1.89213 14.5043 2.31782C14.4752 2.87059 14.5997 3.42061 14.8639 3.90703C15.128 4.39345 15.5216 4.7973 16.0011 5.07388C16.4806 5.35047 17.0272 5.48901 17.5806 5.47417C18.1339 5.45934 18.6723 5.2917 19.1363 4.98982C19.7153 5.57982 20.2293 6.25082 20.6613 6.99982C21.0943 7.74882 21.4183 8.52982 21.6393 9.32582C21.146 9.57672 20.7317 9.9592 20.4423 10.4309C20.1528 10.9027 19.9995 11.4453 19.9993 11.9987C19.9991 12.5522 20.152 13.0949 20.4411 13.5668C20.7302 14.0388 21.1442 14.4216 21.6373 14.6728C21.1852 16.3073 20.3246 17.7999 19.1363 19.0098C18.6722 18.7081 18.1337 18.5407 17.5803 18.526C17.0269 18.5114 16.4803 18.6502 16.001 18.927C15.5216 19.2038 15.1281 19.6078 14.8642 20.0944C14.6002 20.5809 14.476 21.131 14.5053 21.6838C12.8632 22.1082 11.1401 22.1075 9.49828 21.6818C9.52733 21.1291 9.40288 20.579 9.1387 20.0926C8.87453 19.6062 8.48092 19.2023 8.00145 18.9258C7.52198 18.6492 6.97534 18.5106 6.42201 18.5255C5.86868 18.5403 5.33024 18.7079 4.86628 19.0098C4.27527 18.4068 3.76288 17.7314 3.34128 16.9998ZM9.00128 17.1958C10.0669 17.8105 10.8681 18.7968 11.2513 19.9658C11.7503 20.0128 12.2513 20.0138 12.7503 19.9668C13.1337 18.7977 13.9353 17.8113 15.0013 17.1968C16.0665 16.5805 17.3218 16.3793 18.5263 16.6318C18.8163 16.2238 19.0663 15.7888 19.2743 15.3338C18.4537 14.4173 18.0004 13.23 18.0013 11.9998C18.0013 10.7398 18.4713 9.56282 19.2743 8.66582C19.0648 8.21097 18.8137 7.77646 18.5243 7.36782C17.3206 7.62013 16.0661 7.4193 15.0013 6.80382C13.9357 6.18919 13.1344 5.20281 12.7513 4.03382C12.2523 3.98682 11.7513 3.98582 11.2523 4.03282C10.8689 5.20197 10.0673 6.18838 9.00128 6.80282C7.93606 7.41914 6.68076 7.62034 5.47628 7.36782C5.18685 7.77611 4.93641 8.21069 4.72828 8.66582C5.54885 9.58238 6.00216 10.7696 6.00128 11.9998C6.00128 13.2598 5.53128 14.4368 4.72828 15.3338C4.93775 15.7887 5.18882 16.2232 5.47828 16.6318C6.682 16.3795 7.93649 16.5803 9.00128 17.1958ZM12.0013 14.9998C11.2056 14.9998 10.4426 14.6838 9.87996 14.1211C9.31735 13.5585 9.00128 12.7955 9.00128 11.9998C9.00128 11.2042 9.31735 10.4411 9.87996 9.8785C10.4426 9.31589 11.2056 8.99982 12.0013 8.99982C12.7969 8.99982 13.56 9.31589 14.1226 9.8785C14.6852 10.4411 15.0013 11.2042 15.0013 11.9998C15.0013 12.7955 14.6852 13.5585 14.1226 14.1211C13.56 14.6838 12.7969 14.9998 12.0013 14.9998ZM12.0013 12.9998C12.2665 12.9998 12.5209 12.8945 12.7084 12.7069C12.8959 12.5194 13.0013 12.265 13.0013 11.9998C13.0013 11.7346 12.8959 11.4803 12.7084 11.2927C12.5209 11.1052 12.2665 10.9998 12.0013 10.9998C11.7361 10.9998 11.4817 11.1052 11.2942 11.2927C11.1066 11.4803 11.0013 11.7346 11.0013 11.9998C11.0013 12.265 11.1066 12.5194 11.2942 12.7069C11.4817 12.8945 11.7361 12.9998 12.0013 12.9998Z" fill="#0E111F"/>
</g>
</svg>
