<svg width="40" height="37" viewBox="0 0 40 37" fill="none" xmlns="http://www.w3.org/2000/svg">
<g clip-path="url(#clip0_235_152)">
<path d="M27.8574 5.2713C28.6756 4.45309 30.0022 4.45309 30.8204 5.2713L34.4955 8.94635C35.3137 9.76456 35.3137 11.0911 34.4955 11.9094L32.6604 13.7444L26.0224 7.10634L27.8574 5.2713Z" fill="#F07160"/>
<rect x="26.3921" y="6.44833" width="9.80949" height="24.505" transform="rotate(45 26.3921 6.44833)" fill="#FFDB5C"/>
<rect x="25.7053" y="5.76163" width="11.7518" height="3.56728" transform="rotate(45 25.7053 5.76163)" fill="#D1CABB"/>
<path d="M9.04946 32.3116C8.1489 32.5143 7.34428 31.7097 7.54699 30.8092L9.1254 23.7969L16.0618 30.7332L9.04946 32.3116Z" fill="#F1E7D3"/>
<path d="M8.97989 32.3854C8.06161 32.6122 7.23121 31.7818 7.45803 30.8635L8.15914 28.025L11.8184 31.6843L8.97989 32.3854Z" fill="#706956"/>
</g>
<defs>
<clipPath id="clip0_235_152">
<rect width="38.9484" height="35.262" fill="white" transform="translate(0.525787 0.869019)"/>
</clipPath>
</defs>
</svg>
