<svg width="24" height="24" viewBox="0 0 24 24" fill="none" xmlns="http://www.w3.org/2000/svg">
<g id="gravity-ui:calendar">
<path id="Vector" fill-rule="evenodd" clip-rule="evenodd" d="M7.875 8.24557C7.57663 8.24557 7.29048 8.12705 7.0795 7.91607C6.86853 7.70509 6.75 7.41894 6.75 7.12057V6.00007C6.15326 6.00007 5.58097 6.23712 5.15901 6.65908C4.73705 7.08104 4.5 7.65333 4.5 8.25007V9.75007H19.5V8.25007C19.5 7.65333 19.2629 7.08104 18.841 6.65908C18.419 6.23712 17.8467 6.00007 17.25 6.00007V7.12507C17.25 7.42344 17.1315 7.70959 16.9205 7.92057C16.7095 8.13155 16.4234 8.25007 16.125 8.25007C15.8266 8.25007 15.5405 8.13155 15.3295 7.92057C15.1185 7.70959 15 7.42344 15 7.12507V6.00007H9V7.12057C9 7.41894 8.88147 7.70509 8.6705 7.91607C8.45952 8.12705 8.17337 8.24557 7.875 8.24557ZM15 3.75007H9V2.62207C9 2.3237 8.88147 2.03755 8.6705 1.82658C8.45952 1.6156 8.17337 1.49707 7.875 1.49707C7.57663 1.49707 7.29048 1.6156 7.0795 1.82658C6.86853 2.03755 6.75 2.3237 6.75 2.62207V3.75007C5.55653 3.75007 4.41193 4.22418 3.56802 5.06809C2.72411 5.912 2.25 7.0566 2.25 8.25007V17.2501C2.25 18.4435 2.72411 19.5881 3.56802 20.4321C4.41193 21.276 5.55653 21.7501 6.75 21.7501H17.25C18.4435 21.7501 19.5881 21.276 20.432 20.4321C21.2759 19.5881 21.75 18.4435 21.75 17.2501V8.25007C21.75 7.0566 21.2759 5.912 20.432 5.06809C19.5881 4.22418 18.4435 3.75007 17.25 3.75007V2.62507C17.25 2.3267 17.1315 2.04055 16.9205 1.82958C16.7095 1.6186 16.4234 1.50007 16.125 1.50007C15.8266 1.50007 15.5405 1.6186 15.3295 1.82958C15.1185 2.04055 15 2.3267 15 2.62507V3.75007ZM4.5 12.0001V17.2501C4.5 17.8468 4.73705 18.4191 5.15901 18.8411C5.58097 19.263 6.15326 19.5001 6.75 19.5001H17.25C17.8467 19.5001 18.419 19.263 18.841 18.8411C19.2629 18.4191 19.5 17.8468 19.5 17.2501V12.0001H4.5Z" fill="black"/>
</g>
</svg>
