<svg width="25" height="25" viewBox="0 0 25 25" fill="none" xmlns="http://www.w3.org/2000/svg">
<g id="mdi:water-outline">
<path id="Vector" d="M12.0352 3.79895L11.2852 4.63895C11.2852 4.63895 10.0052 6.08895 8.71516 7.96895C7.42516 9.84895 6.03516 12.0989 6.03516 14.2589C6.03516 15.8502 6.6673 17.3764 7.79252 18.5016C8.91773 19.6268 10.4439 20.2589 12.0352 20.2589C13.6265 20.2589 15.1526 19.6268 16.2778 18.5016C17.403 17.3764 18.0352 15.8502 18.0352 14.2589C18.0352 12.0989 16.6452 9.84895 15.3552 7.96895C14.0652 6.08895 12.7852 4.63895 12.7852 4.63895L12.0352 3.79895ZM12.0352 6.92895C12.4752 7.44895 12.8752 7.87895 13.7152 9.09895C14.9252 10.8589 16.0352 13.0989 16.0352 14.2589C16.0352 16.4789 14.2552 18.2589 12.0352 18.2589C9.81516 18.2589 8.03516 16.4789 8.03516 14.2589C8.03516 13.0989 9.14516 10.8589 10.3552 9.09895C11.1952 7.87895 11.5952 7.44895 12.0352 6.92895Z" fill="#CFD6E0"/>
</g>
</svg>
