<svg width="33" height="34" viewBox="0 0 33 34" fill="none" xmlns="http://www.w3.org/2000/svg">
<g id="Group 1705">
<path id="Rectangle 1844" d="M24.3315 2.27142C25.1497 1.45321 26.4763 1.45321 27.2945 2.27142L30.9695 5.94647C31.7878 6.76468 31.7878 8.09126 30.9695 8.90948L29.1345 10.7445L22.4964 4.10646L24.3315 2.27142Z" fill="#F07160"/>
<rect id="Rectangle 1842" x="22.8662" y="3.44849" width="9.80949" height="24.505" transform="rotate(45 22.8662 3.44849)" fill="#FFDB5C"/>
<rect id="Rectangle 1843" x="22.1794" y="2.76172" width="11.7518" height="3.56728" transform="rotate(45 22.1794 2.76172)" fill="#D1CABB"/>
<path id="Polygon 2" d="M5.5237 29.3118C4.62314 29.5145 3.81852 28.7099 4.02123 27.8094L5.59965 20.797L12.536 27.7334L5.5237 29.3118Z" fill="#F1E7D3"/>
<path id="Polygon 3" d="M5.45414 29.3855C4.53585 29.6123 3.70546 28.7819 3.93227 27.8637L4.63338 25.0252L8.29263 28.6844L5.45414 29.3855Z" fill="#706956"/>
</g>
</svg>
