<svg width="70" height="70" viewBox="0 0 70 70" fill="none" xmlns="http://www.w3.org/2000/svg">
<circle cx="35" cy="35" r="35" fill="#0066FF"/>
<g clip-path="url(#clip0_659_11381)">
<path d="M25 26.993C25.0018 26.7304 25.1069 26.479 25.2925 26.2932C25.4781 26.1074 25.7294 26.0021 25.992 26H44.008C44.556 26 45 26.445 45 26.993V43.007C44.9982 43.2696 44.8931 43.521 44.7075 43.7068C44.5219 43.8926 44.2706 43.9979 44.008 44H25.992C25.7288 43.9997 25.4765 43.895 25.2905 43.7088C25.1045 43.5226 25 43.2702 25 43.007V26.993ZM27 28V42H43V28H27ZM35 38C35.7956 38 36.5587 37.6839 37.1213 37.1213C37.6839 36.5587 38 35.7956 38 35C38 34.2044 37.6839 33.4413 37.1213 32.8787C36.5587 32.3161 35.7956 32 35 32C34.2044 32 33.4413 32.3161 32.8787 32.8787C32.3161 33.4413 32 34.2044 32 35C32 35.7956 32.3161 36.5587 32.8787 37.1213C33.4413 37.6839 34.2044 38 35 38ZM35 40C33.6739 40 32.4021 39.4732 31.4645 38.5355C30.5268 37.5979 30 36.3261 30 35C30 33.6739 30.5268 32.4021 31.4645 31.4645C32.4021 30.5268 33.6739 30 35 30C36.3261 30 37.5979 30.5268 38.5355 31.4645C39.4732 32.4021 40 33.6739 40 35C40 36.3261 39.4732 37.5979 38.5355 38.5355C37.5979 39.4732 36.3261 40 35 40ZM40 29H42V31H40V29Z" fill="white"/>
</g>
<defs>
<clipPath id="clip0_659_11381">
<rect width="24" height="24" fill="white" transform="translate(23 23)"/>
</clipPath>
</defs>
</svg>
