<svg width="25" height="25" viewBox="0 0 25 25" fill="none" xmlns="http://www.w3.org/2000/svg">
<g id="ri:more-fill">
<path id="Vector" d="M5.14111 10.0289C4.04111 10.0289 3.14111 10.9289 3.14111 12.0289C3.14111 13.1289 4.04111 14.0289 5.14111 14.0289C6.24111 14.0289 7.14111 13.1289 7.14111 12.0289C7.14111 10.9289 6.24111 10.0289 5.14111 10.0289ZM19.1411 10.0289C18.0411 10.0289 17.1411 10.9289 17.1411 12.0289C17.1411 13.1289 18.0411 14.0289 19.1411 14.0289C20.2411 14.0289 21.1411 13.1289 21.1411 12.0289C21.1411 10.9289 20.2411 10.0289 19.1411 10.0289ZM12.1411 10.0289C11.0411 10.0289 10.1411 10.9289 10.1411 12.0289C10.1411 13.1289 11.0411 14.0289 12.1411 14.0289C13.2411 14.0289 14.1411 13.1289 14.1411 12.0289C14.1411 10.9289 13.2411 10.0289 12.1411 10.0289Z" fill="#CFD6E0"/>
</g>
</svg>
