<svg width="66" height="72" viewBox="0 0 66 72" fill="none" xmlns="http://www.w3.org/2000/svg">
<g id="Group 1699">
<path id="Rectangle 1818" d="M0.600311 0.154602H65.4003V53.3569H0.600311V0.154602Z" fill="#404F65"/>
<g id="Group 1693">
<path id="Rectangle 1814" d="M8.51578 18.9319C8.51578 15.8817 10.9884 13.4091 14.0385 13.4091H51.7771C54.8272 13.4091 57.2999 15.8817 57.2999 18.9318V62.1932H8.51578V18.9319Z" fill="#E5EAF1"/>
<path id="Rectangle 1815" d="M8.51578 20.7728H32.9078V37.1569H8.51578V20.7728Z" fill="#CBD3DF"/>
<path id="Rectangle 1822" d="M32.8159 20.7728H57.208V37.1569H32.8159V20.7728Z" fill="white"/>
<path id="Rectangle 1818_2" d="M61.5339 23.5342H57.2998V34.2115H61.5339V23.5342Z" fill="white"/>
<path id="Rectangle 1819" d="M8.51578 23.5342H4.28169V34.2115H8.51578V23.5342Z" fill="white"/>
<path id="Rectangle 1816" d="M6.49078 55.9341H59.3249V62.1932H6.49078V55.9341Z" fill="#A9B6CA"/>
<path id="Rectangle 1817" d="M24.3478 48.2023H41.4682V55.9342H24.3478V48.2023Z" fill="#A9B6CA"/>
<path id="Rectangle 1820" d="M12.5661 62.1932H20.2979V71.0296H12.5661V62.1932Z" fill="#58687F"/>
<path id="Rectangle 1821" d="M45.334 62.1932H53.0659V71.0296H45.334V62.1932Z" fill="#58687F"/>
<ellipse id="Ellipse 21" cx="49.2919" cy="48.2944" rx="5.0625" ry="5.0625" fill="#C0C9D6"/>
<ellipse id="Ellipse 22" cx="16.5239" cy="48.2944" rx="5.0625" ry="5.0625" fill="#C0C9D6"/>
</g>
</g>
</svg>
