<svg width="41" height="40" viewBox="0 0 41 40" fill="none" xmlns="http://www.w3.org/2000/svg">
<circle cx="20.5" cy="20" r="20" fill="#EBEDF0"/>
<path d="M13.8327 13.3334H16.3327L17.9993 11.6667H22.9993L24.666 13.3334H27.166C27.608 13.3334 28.032 13.509 28.3445 13.8216C28.6571 14.1341 28.8327 14.5581 28.8327 15.0001V25.0001C28.8327 25.4421 28.6571 25.866 28.3445 26.1786C28.032 26.4912 27.608 26.6667 27.166 26.6667H13.8327C13.3907 26.6667 12.9667 26.4912 12.6542 26.1786C12.3416 25.866 12.166 25.4421 12.166 25.0001V15.0001C12.166 14.5581 12.3416 14.1341 12.6542 13.8216C12.9667 13.509 13.3907 13.3334 13.8327 13.3334ZM20.4993 15.8334C19.3943 15.8334 18.3345 16.2724 17.5531 17.0538C16.7717 17.8352 16.3327 18.895 16.3327 20.0001C16.3327 21.1052 16.7717 22.165 17.5531 22.9464C18.3345 23.7278 19.3943 24.1667 20.4993 24.1667C21.6044 24.1667 22.6642 23.7278 23.4456 22.9464C24.227 22.165 24.666 21.1052 24.666 20.0001C24.666 18.895 24.227 17.8352 23.4456 17.0538C22.6642 16.2724 21.6044 15.8334 20.4993 15.8334ZM20.4993 17.5001C21.1624 17.5001 21.7983 17.7635 22.2671 18.2323C22.736 18.7012 22.9993 19.337 22.9993 20.0001C22.9993 20.6631 22.736 21.299 22.2671 21.7678C21.7983 22.2367 21.1624 22.5001 20.4993 22.5001C19.8363 22.5001 19.2004 22.2367 18.7316 21.7678C18.2627 21.299 17.9993 20.6631 17.9993 20.0001C17.9993 19.337 18.2627 18.7012 18.7316 18.2323C19.2004 17.7635 19.8363 17.5001 20.4993 17.5001Z" fill="#58687F"/>
</svg>
