<svg width="19" height="20" viewBox="0 0 19 20" fill="none" xmlns="http://www.w3.org/2000/svg">
<g id="Group">
<path id="Vector" d="M14.2752 13.6548L17.6659 17.0447L16.5457 18.1649L13.1558 14.7742C11.8944 15.7853 10.3256 16.3353 8.70898 16.333C4.77598 16.333 1.58398 13.141 1.58398 9.20801C1.58398 5.27501 4.77598 2.08301 8.70898 2.08301C12.642 2.08301 15.834 5.27501 15.834 9.20801C15.8363 10.8246 15.2863 12.3935 14.2752 13.6548ZM12.6871 13.0674C13.6918 12.0342 14.2529 10.6492 14.2507 9.20801C14.2507 6.14584 11.7704 3.66634 8.70898 3.66634C5.64682 3.66634 3.16732 6.14584 3.16732 9.20801C3.16732 12.2694 5.64682 14.7497 8.70898 14.7497C10.1502 14.7519 11.5351 14.1908 12.5684 13.1861L12.6871 13.0674Z" fill="#A9B6CA"/>
</g>
</svg>
