<svg width="24" height="25" viewBox="0 0 24 25" fill="none" xmlns="http://www.w3.org/2000/svg">
<g id="Group">
<path id="Vector" d="M21 20.0291C21 20.2943 20.8946 20.5487 20.7071 20.7362C20.5196 20.9237 20.2652 21.0291 20 21.0291H4C3.73478 21.0291 3.48043 20.9237 3.29289 20.7362C3.10536 20.5487 3 20.2943 3 20.0291V9.51908C2.99989 9.36669 3.03462 9.2163 3.10152 9.07938C3.16841 8.94246 3.26572 8.82265 3.386 8.72908L11.386 2.50708C11.5615 2.37053 11.7776 2.29639 12 2.29639C12.2224 2.29639 12.4385 2.37053 12.614 2.50708L20.614 8.72908C20.7343 8.82265 20.8316 8.94246 20.8985 9.07938C20.9654 9.2163 21.0001 9.36669 21 9.51908V20.0291Z" fill="#CFD6E0"/>
</g>
</svg>
