<svg width="34" height="34" viewBox="0 0 34 34" fill="none" xmlns="http://www.w3.org/2000/svg">
<g id="fluent-emoji:framed-picture">
<g id="Group">
<path id="Vector" d="M5.3125 5.3125H28.6875V28.6875H5.3125V5.3125Z" fill="url(#paint0_linear_56_1568)"/>
<path id="Vector_2" d="M25.6997 15.0822C26.9132 15.0822 27.8969 14.0985 27.8969 12.885C27.8969 11.6715 26.9132 10.6877 25.6997 10.6877C24.4862 10.6877 23.5024 11.6715 23.5024 12.885C23.5024 14.0985 24.4862 15.0822 25.6997 15.0822Z" fill="url(#paint1_radial_56_1568)"/>
<path id="Vector_3" d="M25.6997 15.0822C26.9132 15.0822 27.8969 14.0985 27.8969 12.885C27.8969 11.6715 26.9132 10.6877 25.6997 10.6877C24.4862 10.6877 23.5024 11.6715 23.5024 12.885C23.5024 14.0985 24.4862 15.0822 25.6997 15.0822Z" fill="url(#paint2_radial_56_1568)"/>
<path id="Vector_4" d="M24.7212 13.7987C25.8506 11.1988 27.8184 9.90997 28.6875 9.7251V15.6262H26.2289L24.7212 13.7987Z" fill="url(#paint3_radial_56_1568)"/>
<path id="Vector_5" d="M24.7212 13.7987C25.8506 11.1988 27.8184 9.90997 28.6875 9.7251V15.6262H26.2289L24.7212 13.7987Z" fill="url(#paint4_radial_56_1568)"/>
<path id="Vector_6" d="M23.7011 19.1005C25.6047 19.1005 27.1479 17.5574 27.1479 15.6538C27.1479 13.7502 25.6047 12.207 23.7011 12.207C21.7976 12.207 20.2544 13.7502 20.2544 15.6538C20.2544 17.5574 21.7976 19.1005 23.7011 19.1005Z" fill="url(#paint5_radial_56_1568)"/>
<path id="Vector_7" d="M5.3125 5.3125L2.125 2.125V31.875L5.3125 28.6875V5.3125Z" fill="url(#paint6_linear_56_1568)"/>
<path id="Vector_8" d="M5.3125 5.3125L2.125 2.125V31.875L5.3125 28.6875V5.3125Z" fill="url(#paint7_linear_56_1568)"/>
<path id="Vector_9" d="M5.3125 28.6875L2.125 31.875H31.875L28.6875 28.6875H5.3125Z" fill="url(#paint8_linear_56_1568)"/>
<path id="Vector_10" d="M5.3125 28.6875L2.125 31.875H31.875L28.6875 28.6875H5.3125Z" fill="url(#paint9_linear_56_1568)"/>
<path id="Vector_11" d="M5.3125 28.6875L2.125 31.875H31.875L28.6875 28.6875H5.3125Z" fill="url(#paint10_linear_56_1568)"/>
<path id="Vector_12" d="M28.6875 28.6875L31.875 31.875V2.125L28.6875 5.3125V28.6875Z" fill="url(#paint11_linear_56_1568)"/>
<path id="Vector_13" d="M28.6875 28.6875L31.875 31.875V2.125L28.6875 5.3125V28.6875Z" fill="url(#paint12_linear_56_1568)"/>
<path id="Vector_14" d="M28.6875 5.3125H5.3125L2.125 2.125H31.875L28.6875 5.3125Z" fill="url(#paint13_linear_56_1568)"/>
<path id="Vector_15" d="M28.6875 5.3125H5.3125L2.125 2.125H31.875L28.6875 5.3125Z" fill="url(#paint14_linear_56_1568)"/>
<path id="Vector_16" d="M28.6875 5.3125H5.3125L2.125 2.125H31.875L28.6875 5.3125Z" fill="url(#paint15_linear_56_1568)"/>
<g id="Group_2" filter="url(#filter0_i_56_1568)">
<path id="Vector_17" d="M7.97938 18.921L5.3125 20.451V28.6875H28.6875V13.005C27.0938 13.005 26.0312 13.5267 24.4375 15.0949L19.6562 19.8008C18.5938 20.8463 17.6077 21.25 16.5452 20.7273C16.1914 20.553 14.9122 19.7413 13.3121 18.8349C11.6631 17.901 9.16619 18.1815 7.97938 18.921Z" fill="url(#paint16_radial_56_1568)"/>
<path id="Vector_18" d="M7.97938 18.921L5.3125 20.451V28.6875H28.6875V13.005C27.0938 13.005 26.0312 13.5267 24.4375 15.0949L19.6562 19.8008C18.5938 20.8463 17.6077 21.25 16.5452 20.7273C16.1914 20.553 14.9122 19.7413 13.3121 18.8349C11.6631 17.901 9.16619 18.1815 7.97938 18.921Z" fill="url(#paint17_radial_56_1568)"/>
<path id="Vector_19" d="M7.97938 18.921L5.3125 20.451V28.6875H28.6875V13.005C27.0938 13.005 26.0312 13.5267 24.4375 15.0949L19.6562 19.8008C18.5938 20.8463 17.6077 21.25 16.5452 20.7273C16.1914 20.553 14.9122 19.7413 13.3121 18.8349C11.6631 17.901 9.16619 18.1815 7.97938 18.921Z" fill="url(#paint18_radial_56_1568)"/>
<path id="Vector_20" d="M7.97938 18.921L5.3125 20.451V28.6875H28.6875V13.005C27.0938 13.005 26.0312 13.5267 24.4375 15.0949L19.6562 19.8008C18.5938 20.8463 17.6077 21.25 16.5452 20.7273C16.1914 20.553 14.9122 19.7413 13.3121 18.8349C11.6631 17.901 9.16619 18.1815 7.97938 18.921Z" fill="url(#paint19_radial_56_1568)"/>
<path id="Vector_21" d="M7.97938 18.921L5.3125 20.451V28.6875H28.6875V13.005C27.0938 13.005 26.0312 13.5267 24.4375 15.0949L19.6562 19.8008C18.5938 20.8463 17.6077 21.25 16.5452 20.7273C16.1914 20.553 14.9122 19.7413 13.3121 18.8349C11.6631 17.901 9.16619 18.1815 7.97938 18.921Z" fill="url(#paint20_radial_56_1568)"/>
</g>
<path id="Vector_22" d="M28.6875 28.4878V28.6875H5.3125V28.4867C8.03675 25.7465 12.2591 23.9062 17 23.9062C21.7409 23.9062 25.9632 25.7476 28.6875 28.4878Z" fill="url(#paint21_radial_56_1568)"/>
<path id="Vector_23" d="M28.6875 28.4878V28.6875H5.3125V28.4867C8.03675 25.7465 12.2591 23.9062 17 23.9062C21.7409 23.9062 25.9632 25.7476 28.6875 28.4878Z" fill="url(#paint22_radial_56_1568)"/>
<path id="Vector_24" d="M28.6875 28.4878V28.6875H5.3125V28.4867C8.03675 25.7465 12.2591 23.9062 17 23.9062C21.7409 23.9062 25.9632 25.7476 28.6875 28.4878Z" fill="url(#paint23_radial_56_1568)"/>
<path id="Vector_25" d="M17.2658 7.36737C17.5962 6.99443 18.0467 7.05393 18.3347 7.36737L18.511 7.57031C18.5716 7.63618 18.6598 7.67124 18.749 7.66381L19.0614 7.57031C19.4864 7.47893 19.8742 7.79662 19.8742 8.29068V8.47662C19.8827 8.57756 19.972 8.64662 20.0634 8.69124L20.346 8.80812C20.754 9.00893 20.856 9.48174 20.5585 9.87912L20.4735 9.98962C20.3991 10.0927 20.414 10.2266 20.4894 10.3296L20.5744 10.4476C20.8815 10.8269 20.7083 11.3454 20.2737 11.5271L20.0304 11.6291C19.939 11.6673 19.9029 11.7321 19.8859 11.8309L19.8689 12.1476C19.8587 12.2363 19.8309 12.322 19.7872 12.3999C19.7435 12.4777 19.6847 12.5461 19.6143 12.601C19.5438 12.6558 19.4632 12.6962 19.377 12.7196C19.2909 12.743 19.2009 12.749 19.1124 12.7372L18.7416 12.6384C18.6926 12.6304 18.6424 12.6364 18.5967 12.6558C18.551 12.6751 18.5117 12.7071 18.4834 12.7479L18.3495 12.9306C18.0191 13.3036 17.5718 13.2419 17.3465 13.0231L17.1 12.7256C17.0363 12.6618 16.9545 12.6087 16.8567 12.6459L16.4849 12.7479C16.1767 12.7904 15.8155 12.5545 15.757 12.2496L15.7145 11.8086C15.7058 11.7633 15.6865 11.7206 15.658 11.6842C15.6296 11.6478 15.5928 11.6187 15.5509 11.5993L15.2895 11.509C15.1987 11.4695 15.1176 11.4106 15.0518 11.3365C14.9861 11.2624 14.9374 11.1748 14.909 11.0799C14.8807 10.9849 14.8734 10.885 14.8878 10.7869C14.9021 10.6889 14.9377 10.5952 14.992 10.5124L15.1387 10.3094C15.1677 10.2618 15.1824 10.2068 15.1811 10.1511C15.1798 10.0953 15.1625 10.0411 15.1312 9.99493L15.0207 9.83981C14.7105 9.39674 14.9251 8.90268 15.3862 8.75393L15.4872 8.72206C15.5998 8.68487 15.7082 8.59137 15.7177 8.47449L15.74 8.18974C15.7772 7.72649 16.199 7.46087 16.6432 7.59581L16.7866 7.63937C16.8412 7.66358 16.9023 7.66942 16.9605 7.65601C17.0187 7.6426 17.0711 7.61066 17.1096 7.56499L17.2658 7.36737Z" fill="url(#paint24_linear_56_1568)"/>
<path id="Vector_26" d="M17.2658 7.36737C17.5962 6.99443 18.0467 7.05393 18.3347 7.36737L18.511 7.57031C18.5716 7.63618 18.6598 7.67124 18.749 7.66381L19.0614 7.57031C19.4864 7.47893 19.8742 7.79662 19.8742 8.29068V8.47662C19.8827 8.57756 19.972 8.64662 20.0634 8.69124L20.346 8.80812C20.754 9.00893 20.856 9.48174 20.5585 9.87912L20.4735 9.98962C20.3991 10.0927 20.414 10.2266 20.4894 10.3296L20.5744 10.4476C20.8815 10.8269 20.7083 11.3454 20.2737 11.5271L20.0304 11.6291C19.939 11.6673 19.9029 11.7321 19.8859 11.8309L19.8689 12.1476C19.8587 12.2363 19.8309 12.322 19.7872 12.3999C19.7435 12.4777 19.6847 12.5461 19.6143 12.601C19.5438 12.6558 19.4632 12.6962 19.377 12.7196C19.2909 12.743 19.2009 12.749 19.1124 12.7372L18.7416 12.6384C18.6926 12.6304 18.6424 12.6364 18.5967 12.6558C18.551 12.6751 18.5117 12.7071 18.4834 12.7479L18.3495 12.9306C18.0191 13.3036 17.5718 13.2419 17.3465 13.0231L17.1 12.7256C17.0363 12.6618 16.9545 12.6087 16.8567 12.6459L16.4849 12.7479C16.1767 12.7904 15.8155 12.5545 15.757 12.2496L15.7145 11.8086C15.7058 11.7633 15.6865 11.7206 15.658 11.6842C15.6296 11.6478 15.5928 11.6187 15.5509 11.5993L15.2895 11.509C15.1987 11.4695 15.1176 11.4106 15.0518 11.3365C14.9861 11.2624 14.9374 11.1748 14.909 11.0799C14.8807 10.9849 14.8734 10.885 14.8878 10.7869C14.9021 10.6889 14.9377 10.5952 14.992 10.5124L15.1387 10.3094C15.1677 10.2618 15.1824 10.2068 15.1811 10.1511C15.1798 10.0953 15.1625 10.0411 15.1312 9.99493L15.0207 9.83981C14.7105 9.39674 14.9251 8.90268 15.3862 8.75393L15.4872 8.72206C15.5998 8.68487 15.7082 8.59137 15.7177 8.47449L15.74 8.18974C15.7772 7.72649 16.199 7.46087 16.6432 7.59581L16.7866 7.63937C16.8412 7.66358 16.9023 7.66942 16.9605 7.65601C17.0187 7.6426 17.0711 7.61066 17.1096 7.56499L17.2658 7.36737Z" fill="url(#paint25_radial_56_1568)"/>
<path id="Vector_27" d="M17.2658 7.36737C17.5962 6.99443 18.0467 7.05393 18.3347 7.36737L18.511 7.57031C18.5716 7.63618 18.6598 7.67124 18.749 7.66381L19.0614 7.57031C19.4864 7.47893 19.8742 7.79662 19.8742 8.29068V8.47662C19.8827 8.57756 19.972 8.64662 20.0634 8.69124L20.346 8.80812C20.754 9.00893 20.856 9.48174 20.5585 9.87912L20.4735 9.98962C20.3991 10.0927 20.414 10.2266 20.4894 10.3296L20.5744 10.4476C20.8815 10.8269 20.7083 11.3454 20.2737 11.5271L20.0304 11.6291C19.939 11.6673 19.9029 11.7321 19.8859 11.8309L19.8689 12.1476C19.8587 12.2363 19.8309 12.322 19.7872 12.3999C19.7435 12.4777 19.6847 12.5461 19.6143 12.601C19.5438 12.6558 19.4632 12.6962 19.377 12.7196C19.2909 12.743 19.2009 12.749 19.1124 12.7372L18.7416 12.6384C18.6926 12.6304 18.6424 12.6364 18.5967 12.6558C18.551 12.6751 18.5117 12.7071 18.4834 12.7479L18.3495 12.9306C18.0191 13.3036 17.5718 13.2419 17.3465 13.0231L17.1 12.7256C17.0363 12.6618 16.9545 12.6087 16.8567 12.6459L16.4849 12.7479C16.1767 12.7904 15.8155 12.5545 15.757 12.2496L15.7145 11.8086C15.7058 11.7633 15.6865 11.7206 15.658 11.6842C15.6296 11.6478 15.5928 11.6187 15.5509 11.5993L15.2895 11.509C15.1987 11.4695 15.1176 11.4106 15.0518 11.3365C14.9861 11.2624 14.9374 11.1748 14.909 11.0799C14.8807 10.9849 14.8734 10.885 14.8878 10.7869C14.9021 10.6889 14.9377 10.5952 14.992 10.5124L15.1387 10.3094C15.1677 10.2618 15.1824 10.2068 15.1811 10.1511C15.1798 10.0953 15.1625 10.0411 15.1312 9.99493L15.0207 9.83981C14.7105 9.39674 14.9251 8.90268 15.3862 8.75393L15.4872 8.72206C15.5998 8.68487 15.7082 8.59137 15.7177 8.47449L15.74 8.18974C15.7772 7.72649 16.199 7.46087 16.6432 7.59581L16.7866 7.63937C16.8412 7.66358 16.9023 7.66942 16.9605 7.65601C17.0187 7.6426 17.0711 7.61066 17.1096 7.56499L17.2658 7.36737Z" fill="url(#paint26_radial_56_1568)"/>
<path id="Vector_28" d="M17.2658 7.36737C17.5962 6.99443 18.0467 7.05393 18.3347 7.36737L18.511 7.57031C18.5716 7.63618 18.6598 7.67124 18.749 7.66381L19.0614 7.57031C19.4864 7.47893 19.8742 7.79662 19.8742 8.29068V8.47662C19.8827 8.57756 19.972 8.64662 20.0634 8.69124L20.346 8.80812C20.754 9.00893 20.856 9.48174 20.5585 9.87912L20.4735 9.98962C20.3991 10.0927 20.414 10.2266 20.4894 10.3296L20.5744 10.4476C20.8815 10.8269 20.7083 11.3454 20.2737 11.5271L20.0304 11.6291C19.939 11.6673 19.9029 11.7321 19.8859 11.8309L19.8689 12.1476C19.8587 12.2363 19.8309 12.322 19.7872 12.3999C19.7435 12.4777 19.6847 12.5461 19.6143 12.601C19.5438 12.6558 19.4632 12.6962 19.377 12.7196C19.2909 12.743 19.2009 12.749 19.1124 12.7372L18.7416 12.6384C18.6926 12.6304 18.6424 12.6364 18.5967 12.6558C18.551 12.6751 18.5117 12.7071 18.4834 12.7479L18.3495 12.9306C18.0191 13.3036 17.5718 13.2419 17.3465 13.0231L17.1 12.7256C17.0363 12.6618 16.9545 12.6087 16.8567 12.6459L16.4849 12.7479C16.1767 12.7904 15.8155 12.5545 15.757 12.2496L15.7145 11.8086C15.7058 11.7633 15.6865 11.7206 15.658 11.6842C15.6296 11.6478 15.5928 11.6187 15.5509 11.5993L15.2895 11.509C15.1987 11.4695 15.1176 11.4106 15.0518 11.3365C14.9861 11.2624 14.9374 11.1748 14.909 11.0799C14.8807 10.9849 14.8734 10.885 14.8878 10.7869C14.9021 10.6889 14.9377 10.5952 14.992 10.5124L15.1387 10.3094C15.1677 10.2618 15.1824 10.2068 15.1811 10.1511C15.1798 10.0953 15.1625 10.0411 15.1312 9.99493L15.0207 9.83981C14.7105 9.39674 14.9251 8.90268 15.3862 8.75393L15.4872 8.72206C15.5998 8.68487 15.7082 8.59137 15.7177 8.47449L15.74 8.18974C15.7772 7.72649 16.199 7.46087 16.6432 7.59581L16.7866 7.63937C16.8412 7.66358 16.9023 7.66942 16.9605 7.65601C17.0187 7.6426 17.0711 7.61066 17.1096 7.56499L17.2658 7.36737Z" fill="url(#paint27_radial_56_1568)"/>
<path id="Vector_29" d="M17.2658 7.36737C17.5962 6.99443 18.0467 7.05393 18.3347 7.36737L18.511 7.57031C18.5716 7.63618 18.6598 7.67124 18.749 7.66381L19.0614 7.57031C19.4864 7.47893 19.8742 7.79662 19.8742 8.29068V8.47662C19.8827 8.57756 19.972 8.64662 20.0634 8.69124L20.346 8.80812C20.754 9.00893 20.856 9.48174 20.5585 9.87912L20.4735 9.98962C20.3991 10.0927 20.414 10.2266 20.4894 10.3296L20.5744 10.4476C20.8815 10.8269 20.7083 11.3454 20.2737 11.5271L20.0304 11.6291C19.939 11.6673 19.9029 11.7321 19.8859 11.8309L19.8689 12.1476C19.8587 12.2363 19.8309 12.322 19.7872 12.3999C19.7435 12.4777 19.6847 12.5461 19.6143 12.601C19.5438 12.6558 19.4632 12.6962 19.377 12.7196C19.2909 12.743 19.2009 12.749 19.1124 12.7372L18.7416 12.6384C18.6926 12.6304 18.6424 12.6364 18.5967 12.6558C18.551 12.6751 18.5117 12.7071 18.4834 12.7479L18.3495 12.9306C18.0191 13.3036 17.5718 13.2419 17.3465 13.0231L17.1 12.7256C17.0363 12.6618 16.9545 12.6087 16.8567 12.6459L16.4849 12.7479C16.1767 12.7904 15.8155 12.5545 15.757 12.2496L15.7145 11.8086C15.7058 11.7633 15.6865 11.7206 15.658 11.6842C15.6296 11.6478 15.5928 11.6187 15.5509 11.5993L15.2895 11.509C15.1987 11.4695 15.1176 11.4106 15.0518 11.3365C14.9861 11.2624 14.9374 11.1748 14.909 11.0799C14.8807 10.9849 14.8734 10.885 14.8878 10.7869C14.9021 10.6889 14.9377 10.5952 14.992 10.5124L15.1387 10.3094C15.1677 10.2618 15.1824 10.2068 15.1811 10.1511C15.1798 10.0953 15.1625 10.0411 15.1312 9.99493L15.0207 9.83981C14.7105 9.39674 14.9251 8.90268 15.3862 8.75393L15.4872 8.72206C15.5998 8.68487 15.7082 8.59137 15.7177 8.47449L15.74 8.18974C15.7772 7.72649 16.199 7.46087 16.6432 7.59581L16.7866 7.63937C16.8412 7.66358 16.9023 7.66942 16.9605 7.65601C17.0187 7.6426 17.0711 7.61066 17.1096 7.56499L17.2658 7.36737Z" fill="url(#paint28_radial_56_1568)"/>
<path id="Vector_30" d="M17.2658 7.36737C17.5962 6.99443 18.0467 7.05393 18.3347 7.36737L18.511 7.57031C18.5716 7.63618 18.6598 7.67124 18.749 7.66381L19.0614 7.57031C19.4864 7.47893 19.8742 7.79662 19.8742 8.29068V8.47662C19.8827 8.57756 19.972 8.64662 20.0634 8.69124L20.346 8.80812C20.754 9.00893 20.856 9.48174 20.5585 9.87912L20.4735 9.98962C20.3991 10.0927 20.414 10.2266 20.4894 10.3296L20.5744 10.4476C20.8815 10.8269 20.7083 11.3454 20.2737 11.5271L20.0304 11.6291C19.939 11.6673 19.9029 11.7321 19.8859 11.8309L19.8689 12.1476C19.8587 12.2363 19.8309 12.322 19.7872 12.3999C19.7435 12.4777 19.6847 12.5461 19.6143 12.601C19.5438 12.6558 19.4632 12.6962 19.377 12.7196C19.2909 12.743 19.2009 12.749 19.1124 12.7372L18.7416 12.6384C18.6926 12.6304 18.6424 12.6364 18.5967 12.6558C18.551 12.6751 18.5117 12.7071 18.4834 12.7479L18.3495 12.9306C18.0191 13.3036 17.5718 13.2419 17.3465 13.0231L17.1 12.7256C17.0363 12.6618 16.9545 12.6087 16.8567 12.6459L16.4849 12.7479C16.1767 12.7904 15.8155 12.5545 15.757 12.2496L15.7145 11.8086C15.7058 11.7633 15.6865 11.7206 15.658 11.6842C15.6296 11.6478 15.5928 11.6187 15.5509 11.5993L15.2895 11.509C15.1987 11.4695 15.1176 11.4106 15.0518 11.3365C14.9861 11.2624 14.9374 11.1748 14.909 11.0799C14.8807 10.9849 14.8734 10.885 14.8878 10.7869C14.9021 10.6889 14.9377 10.5952 14.992 10.5124L15.1387 10.3094C15.1677 10.2618 15.1824 10.2068 15.1811 10.1511C15.1798 10.0953 15.1625 10.0411 15.1312 9.99493L15.0207 9.83981C14.7105 9.39674 14.9251 8.90268 15.3862 8.75393L15.4872 8.72206C15.5998 8.68487 15.7082 8.59137 15.7177 8.47449L15.74 8.18974C15.7772 7.72649 16.199 7.46087 16.6432 7.59581L16.7866 7.63937C16.8412 7.66358 16.9023 7.66942 16.9605 7.65601C17.0187 7.6426 17.0711 7.61066 17.1096 7.56499L17.2658 7.36737Z" fill="url(#paint29_radial_56_1568)"/>
<path id="Vector_31" d="M17.2658 7.36737C17.5962 6.99443 18.0467 7.05393 18.3347 7.36737L18.511 7.57031C18.5716 7.63618 18.6598 7.67124 18.749 7.66381L19.0614 7.57031C19.4864 7.47893 19.8742 7.79662 19.8742 8.29068V8.47662C19.8827 8.57756 19.972 8.64662 20.0634 8.69124L20.346 8.80812C20.754 9.00893 20.856 9.48174 20.5585 9.87912L20.4735 9.98962C20.3991 10.0927 20.414 10.2266 20.4894 10.3296L20.5744 10.4476C20.8815 10.8269 20.7083 11.3454 20.2737 11.5271L20.0304 11.6291C19.939 11.6673 19.9029 11.7321 19.8859 11.8309L19.8689 12.1476C19.8587 12.2363 19.8309 12.322 19.7872 12.3999C19.7435 12.4777 19.6847 12.5461 19.6143 12.601C19.5438 12.6558 19.4632 12.6962 19.377 12.7196C19.2909 12.743 19.2009 12.749 19.1124 12.7372L18.7416 12.6384C18.6926 12.6304 18.6424 12.6364 18.5967 12.6558C18.551 12.6751 18.5117 12.7071 18.4834 12.7479L18.3495 12.9306C18.0191 13.3036 17.5718 13.2419 17.3465 13.0231L17.1 12.7256C17.0363 12.6618 16.9545 12.6087 16.8567 12.6459L16.4849 12.7479C16.1767 12.7904 15.8155 12.5545 15.757 12.2496L15.7145 11.8086C15.7058 11.7633 15.6865 11.7206 15.658 11.6842C15.6296 11.6478 15.5928 11.6187 15.5509 11.5993L15.2895 11.509C15.1987 11.4695 15.1176 11.4106 15.0518 11.3365C14.9861 11.2624 14.9374 11.1748 14.909 11.0799C14.8807 10.9849 14.8734 10.885 14.8878 10.7869C14.9021 10.6889 14.9377 10.5952 14.992 10.5124L15.1387 10.3094C15.1677 10.2618 15.1824 10.2068 15.1811 10.1511C15.1798 10.0953 15.1625 10.0411 15.1312 9.99493L15.0207 9.83981C14.7105 9.39674 14.9251 8.90268 15.3862 8.75393L15.4872 8.72206C15.5998 8.68487 15.7082 8.59137 15.7177 8.47449L15.74 8.18974C15.7772 7.72649 16.199 7.46087 16.6432 7.59581L16.7866 7.63937C16.8412 7.66358 16.9023 7.66942 16.9605 7.65601C17.0187 7.6426 17.0711 7.61066 17.1096 7.56499L17.2658 7.36737Z" fill="url(#paint30_radial_56_1568)"/>
<path id="Vector_32" d="M17.2658 7.36737C17.5962 6.99443 18.0467 7.05393 18.3347 7.36737L18.511 7.57031C18.5716 7.63618 18.6598 7.67124 18.749 7.66381L19.0614 7.57031C19.4864 7.47893 19.8742 7.79662 19.8742 8.29068V8.47662C19.8827 8.57756 19.972 8.64662 20.0634 8.69124L20.346 8.80812C20.754 9.00893 20.856 9.48174 20.5585 9.87912L20.4735 9.98962C20.3991 10.0927 20.414 10.2266 20.4894 10.3296L20.5744 10.4476C20.8815 10.8269 20.7083 11.3454 20.2737 11.5271L20.0304 11.6291C19.939 11.6673 19.9029 11.7321 19.8859 11.8309L19.8689 12.1476C19.8587 12.2363 19.8309 12.322 19.7872 12.3999C19.7435 12.4777 19.6847 12.5461 19.6143 12.601C19.5438 12.6558 19.4632 12.6962 19.377 12.7196C19.2909 12.743 19.2009 12.749 19.1124 12.7372L18.7416 12.6384C18.6926 12.6304 18.6424 12.6364 18.5967 12.6558C18.551 12.6751 18.5117 12.7071 18.4834 12.7479L18.3495 12.9306C18.0191 13.3036 17.5718 13.2419 17.3465 13.0231L17.1 12.7256C17.0363 12.6618 16.9545 12.6087 16.8567 12.6459L16.4849 12.7479C16.1767 12.7904 15.8155 12.5545 15.757 12.2496L15.7145 11.8086C15.7058 11.7633 15.6865 11.7206 15.658 11.6842C15.6296 11.6478 15.5928 11.6187 15.5509 11.5993L15.2895 11.509C15.1987 11.4695 15.1176 11.4106 15.0518 11.3365C14.9861 11.2624 14.9374 11.1748 14.909 11.0799C14.8807 10.9849 14.8734 10.885 14.8878 10.7869C14.9021 10.6889 14.9377 10.5952 14.992 10.5124L15.1387 10.3094C15.1677 10.2618 15.1824 10.2068 15.1811 10.1511C15.1798 10.0953 15.1625 10.0411 15.1312 9.99493L15.0207 9.83981C14.7105 9.39674 14.9251 8.90268 15.3862 8.75393L15.4872 8.72206C15.5998 8.68487 15.7082 8.59137 15.7177 8.47449L15.74 8.18974C15.7772 7.72649 16.199 7.46087 16.6432 7.59581L16.7866 7.63937C16.8412 7.66358 16.9023 7.66942 16.9605 7.65601C17.0187 7.6426 17.0711 7.61066 17.1096 7.56499L17.2658 7.36737Z" fill="url(#paint31_radial_56_1568)"/>
<path id="Vector_33" d="M17.2658 7.36737C17.5962 6.99443 18.0467 7.05393 18.3347 7.36737L18.511 7.57031C18.5716 7.63618 18.6598 7.67124 18.749 7.66381L19.0614 7.57031C19.4864 7.47893 19.8742 7.79662 19.8742 8.29068V8.47662C19.8827 8.57756 19.972 8.64662 20.0634 8.69124L20.346 8.80812C20.754 9.00893 20.856 9.48174 20.5585 9.87912L20.4735 9.98962C20.3991 10.0927 20.414 10.2266 20.4894 10.3296L20.5744 10.4476C20.8815 10.8269 20.7083 11.3454 20.2737 11.5271L20.0304 11.6291C19.939 11.6673 19.9029 11.7321 19.8859 11.8309L19.8689 12.1476C19.8587 12.2363 19.8309 12.322 19.7872 12.3999C19.7435 12.4777 19.6847 12.5461 19.6143 12.601C19.5438 12.6558 19.4632 12.6962 19.377 12.7196C19.2909 12.743 19.2009 12.749 19.1124 12.7372L18.7416 12.6384C18.6926 12.6304 18.6424 12.6364 18.5967 12.6558C18.551 12.6751 18.5117 12.7071 18.4834 12.7479L18.3495 12.9306C18.0191 13.3036 17.5718 13.2419 17.3465 13.0231L17.1 12.7256C17.0363 12.6618 16.9545 12.6087 16.8567 12.6459L16.4849 12.7479C16.1767 12.7904 15.8155 12.5545 15.757 12.2496L15.7145 11.8086C15.7058 11.7633 15.6865 11.7206 15.658 11.6842C15.6296 11.6478 15.5928 11.6187 15.5509 11.5993L15.2895 11.509C15.1987 11.4695 15.1176 11.4106 15.0518 11.3365C14.9861 11.2624 14.9374 11.1748 14.909 11.0799C14.8807 10.9849 14.8734 10.885 14.8878 10.7869C14.9021 10.6889 14.9377 10.5952 14.992 10.5124L15.1387 10.3094C15.1677 10.2618 15.1824 10.2068 15.1811 10.1511C15.1798 10.0953 15.1625 10.0411 15.1312 9.99493L15.0207 9.83981C14.7105 9.39674 14.9251 8.90268 15.3862 8.75393L15.4872 8.72206C15.5998 8.68487 15.7082 8.59137 15.7177 8.47449L15.74 8.18974C15.7772 7.72649 16.199 7.46087 16.6432 7.59581L16.7866 7.63937C16.8412 7.66358 16.9023 7.66942 16.9605 7.65601C17.0187 7.6426 17.0711 7.61066 17.1096 7.56499L17.2658 7.36737Z" fill="url(#paint32_radial_56_1568)"/>
<path id="Vector_34" d="M17.2658 7.36737C17.5962 6.99443 18.0467 7.05393 18.3347 7.36737L18.511 7.57031C18.5716 7.63618 18.6598 7.67124 18.749 7.66381L19.0614 7.57031C19.4864 7.47893 19.8742 7.79662 19.8742 8.29068V8.47662C19.8827 8.57756 19.972 8.64662 20.0634 8.69124L20.346 8.80812C20.754 9.00893 20.856 9.48174 20.5585 9.87912L20.4735 9.98962C20.3991 10.0927 20.414 10.2266 20.4894 10.3296L20.5744 10.4476C20.8815 10.8269 20.7083 11.3454 20.2737 11.5271L20.0304 11.6291C19.939 11.6673 19.9029 11.7321 19.8859 11.8309L19.8689 12.1476C19.8587 12.2363 19.8309 12.322 19.7872 12.3999C19.7435 12.4777 19.6847 12.5461 19.6143 12.601C19.5438 12.6558 19.4632 12.6962 19.377 12.7196C19.2909 12.743 19.2009 12.749 19.1124 12.7372L18.7416 12.6384C18.6926 12.6304 18.6424 12.6364 18.5967 12.6558C18.551 12.6751 18.5117 12.7071 18.4834 12.7479L18.3495 12.9306C18.0191 13.3036 17.5718 13.2419 17.3465 13.0231L17.1 12.7256C17.0363 12.6618 16.9545 12.6087 16.8567 12.6459L16.4849 12.7479C16.1767 12.7904 15.8155 12.5545 15.757 12.2496L15.7145 11.8086C15.7058 11.7633 15.6865 11.7206 15.658 11.6842C15.6296 11.6478 15.5928 11.6187 15.5509 11.5993L15.2895 11.509C15.1987 11.4695 15.1176 11.4106 15.0518 11.3365C14.9861 11.2624 14.9374 11.1748 14.909 11.0799C14.8807 10.9849 14.8734 10.885 14.8878 10.7869C14.9021 10.6889 14.9377 10.5952 14.992 10.5124L15.1387 10.3094C15.1677 10.2618 15.1824 10.2068 15.1811 10.1511C15.1798 10.0953 15.1625 10.0411 15.1312 9.99493L15.0207 9.83981C14.7105 9.39674 14.9251 8.90268 15.3862 8.75393L15.4872 8.72206C15.5998 8.68487 15.7082 8.59137 15.7177 8.47449L15.74 8.18974C15.7772 7.72649 16.199 7.46087 16.6432 7.59581L16.7866 7.63937C16.8412 7.66358 16.9023 7.66942 16.9605 7.65601C17.0187 7.6426 17.0711 7.61066 17.1096 7.56499L17.2658 7.36737Z" fill="url(#paint33_radial_56_1568)"/>
<path id="Vector_35" d="M17.8023 12.4717C18.1116 12.4783 18.4191 12.4231 18.7067 12.3093C18.9943 12.1955 19.2564 12.0255 19.4774 11.8091C19.6985 11.5927 19.8741 11.3344 19.994 11.0492C20.1139 10.7641 20.1757 10.4578 20.1757 10.1485C20.1757 9.83918 20.1139 9.53297 19.994 9.24782C19.8741 8.96267 19.6985 8.70433 19.4774 8.48795C19.2564 8.27157 18.9943 8.1015 18.7067 7.98772C18.4191 7.87395 18.1116 7.81875 17.8023 7.82536C17.1948 7.83835 16.6165 8.08882 16.1914 8.52308C15.7664 8.95734 15.5283 9.54084 15.5283 10.1485C15.5283 10.7562 15.7664 11.3397 16.1914 11.7739C16.6165 12.2082 17.1948 12.4587 17.8023 12.4717Z" fill="url(#paint34_radial_56_1568)"/>
<path id="Vector_36" d="M7.96866 14.7093C8.85825 14.7093 9.57941 13.9881 9.57941 13.0985C9.57941 12.209 8.85825 11.4878 7.96866 11.4878C7.07907 11.4878 6.35791 12.209 6.35791 13.0985C6.35791 13.9881 7.07907 14.7093 7.96866 14.7093Z" fill="url(#paint35_radial_56_1568)"/>
<path id="Vector_37" d="M5.3125 17V10.625C5.8998 10.7113 6.45247 10.956 6.91112 11.3329C7.36977 11.7097 7.71705 12.2044 7.91562 12.7638C7.92179 12.7799 7.93144 12.7945 7.94389 12.8064C7.95633 12.8183 7.97127 12.8274 7.98762 12.8329C8.00397 12.8383 8.02133 12.8401 8.03846 12.8381C8.05559 12.8361 8.07206 12.8303 8.08669 12.8212C8.38317 12.628 8.72064 12.5067 9.07225 12.4669C9.42387 12.4271 9.77991 12.47 10.1121 12.592C10.4442 12.714 10.7433 12.9119 10.9855 13.1699C11.2277 13.4278 11.4064 13.7388 11.5073 14.0779C11.6082 14.4171 11.6285 14.7751 11.5667 15.1235C11.5049 15.472 11.3626 15.8011 11.1511 16.0849C10.9397 16.3686 10.665 16.5991 10.3488 16.758C10.0326 16.9168 9.68367 16.9997 9.32981 17H5.3125Z" fill="#DFDEFF"/>
<path id="Vector_38" d="M5.3125 17V10.625C5.8998 10.7113 6.45247 10.956 6.91112 11.3329C7.36977 11.7097 7.71705 12.2044 7.91562 12.7638C7.92179 12.7799 7.93144 12.7945 7.94389 12.8064C7.95633 12.8183 7.97127 12.8274 7.98762 12.8329C8.00397 12.8383 8.02133 12.8401 8.03846 12.8381C8.05559 12.8361 8.07206 12.8303 8.08669 12.8212C8.38317 12.628 8.72064 12.5067 9.07225 12.4669C9.42387 12.4271 9.77991 12.47 10.1121 12.592C10.4442 12.714 10.7433 12.9119 10.9855 13.1699C11.2277 13.4278 11.4064 13.7388 11.5073 14.0779C11.6082 14.4171 11.6285 14.7751 11.5667 15.1235C11.5049 15.472 11.3626 15.8011 11.1511 16.0849C10.9397 16.3686 10.665 16.5991 10.3488 16.758C10.0326 16.9168 9.68367 16.9997 9.32981 17H5.3125Z" fill="url(#paint36_linear_56_1568)"/>
<path id="Vector_39" d="M5.3125 17V10.625C5.8998 10.7113 6.45247 10.956 6.91112 11.3329C7.36977 11.7097 7.71705 12.2044 7.91562 12.7638C7.92179 12.7799 7.93144 12.7945 7.94389 12.8064C7.95633 12.8183 7.97127 12.8274 7.98762 12.8329C8.00397 12.8383 8.02133 12.8401 8.03846 12.8381C8.05559 12.8361 8.07206 12.8303 8.08669 12.8212C8.38317 12.628 8.72064 12.5067 9.07225 12.4669C9.42387 12.4271 9.77991 12.47 10.1121 12.592C10.4442 12.714 10.7433 12.9119 10.9855 13.1699C11.2277 13.4278 11.4064 13.7388 11.5073 14.0779C11.6082 14.4171 11.6285 14.7751 11.5667 15.1235C11.5049 15.472 11.3626 15.8011 11.1511 16.0849C10.9397 16.3686 10.665 16.5991 10.3488 16.758C10.0326 16.9168 9.68367 16.9997 9.32981 17H5.3125Z" fill="url(#paint37_radial_56_1568)"/>
<path id="Vector_40" d="M5.3125 17V10.625C5.8998 10.7113 6.45247 10.956 6.91112 11.3329C7.36977 11.7097 7.71705 12.2044 7.91562 12.7638C7.92179 12.7799 7.93144 12.7945 7.94389 12.8064C7.95633 12.8183 7.97127 12.8274 7.98762 12.8329C8.00397 12.8383 8.02133 12.8401 8.03846 12.8381C8.05559 12.8361 8.07206 12.8303 8.08669 12.8212C8.38317 12.628 8.72064 12.5067 9.07225 12.4669C9.42387 12.4271 9.77991 12.47 10.1121 12.592C10.4442 12.714 10.7433 12.9119 10.9855 13.1699C11.2277 13.4278 11.4064 13.7388 11.5073 14.0779C11.6082 14.4171 11.6285 14.7751 11.5667 15.1235C11.5049 15.472 11.3626 15.8011 11.1511 16.0849C10.9397 16.3686 10.665 16.5991 10.3488 16.758C10.0326 16.9168 9.68367 16.9997 9.32981 17H5.3125Z" fill="url(#paint38_radial_56_1568)"/>
</g>
</g>
<defs>
<filter id="filter0_i_56_1568" x="5.3125" y="13.005" width="23.375" height="15.7825" filterUnits="userSpaceOnUse" color-interpolation-filters="sRGB">
<feFlood flood-opacity="0" result="BackgroundImageFix"/>
<feBlend mode="normal" in="SourceGraphic" in2="BackgroundImageFix" result="shape"/>
<feColorMatrix in="SourceAlpha" type="matrix" values="0 0 0 0 0 0 0 0 0 0 0 0 0 0 0 0 0 0 127 0" result="hardAlpha"/>
<feOffset dy="0.1"/>
<feGaussianBlur stdDeviation="0.5"/>
<feComposite in2="hardAlpha" operator="arithmetic" k2="-1" k3="1"/>
<feColorMatrix type="matrix" values="0 0 0 0 0.352941 0 0 0 0 0.690196 0 0 0 0 0.501961 0 0 0 1 0"/>
<feBlend mode="normal" in2="shape" result="effect1_innerShadow_56_1568"/>
</filter>
<linearGradient id="paint0_linear_56_1568" x1="17" y1="5.3125" x2="17" y2="28.6875" gradientUnits="userSpaceOnUse">
<stop stop-color="#A6E5F7"/>
<stop offset="0.615" stop-color="#85D6F5"/>
</linearGradient>
<radialGradient id="paint1_radial_56_1568" cx="0" cy="0" r="1" gradientUnits="userSpaceOnUse" gradientTransform="translate(23.707 11.3555) rotate(18.433) scale(2.10015)">
<stop offset="0.21" stop-color="#D4D5FF"/>
<stop offset="0.755" stop-color="#DDDCFF"/>
</radialGradient>
<radialGradient id="paint2_radial_56_1568" cx="0" cy="0" r="1" gradientUnits="userSpaceOnUse" gradientTransform="translate(25.2173 13.3982) rotate(-50.9342) scale(3.29284 1.53252)">
<stop offset="0.457" stop-color="#EFEFFF"/>
<stop offset="1" stop-color="#EFEFFF" stop-opacity="0"/>
</radialGradient>
<radialGradient id="paint3_radial_56_1568" cx="0" cy="0" r="1" gradientUnits="userSpaceOnUse" gradientTransform="translate(28.6865 13.0827) rotate(-128.32) scale(2.62389 5.41354)">
<stop offset="0.581" stop-color="#DEDFFF"/>
<stop offset="1" stop-color="#D8D9FF"/>
</radialGradient>
<radialGradient id="paint4_radial_56_1568" cx="0" cy="0" r="1" gradientUnits="userSpaceOnUse" gradientTransform="translate(25.2678 13.6799) rotate(-42.709) scale(1.76227 2.71646)">
<stop offset="0.564" stop-color="#EFEFFF"/>
<stop offset="0.728" stop-color="#EFEFFF" stop-opacity="0"/>
</radialGradient>
<radialGradient id="paint5_radial_56_1568" cx="0" cy="0" r="1" gradientUnits="userSpaceOnUse" gradientTransform="translate(26.4115 13.5763) rotate(152.354) scale(6.57818 6.57818)">
<stop offset="0.401" stop-color="#EEEEFF"/>
<stop offset="1" stop-color="#D4D3FF"/>
</radialGradient>
<linearGradient id="paint6_linear_56_1568" x1="3.71875" y1="2.125" x2="3.71875" y2="31.875" gradientUnits="userSpaceOnUse">
<stop stop-color="#D38E57"/>
<stop offset="0.272" stop-color="#EFA570"/>
<stop offset="0.798" stop-color="#EFA570"/>
<stop offset="1" stop-color="#D38E57"/>
</linearGradient>
<linearGradient id="paint7_linear_56_1568" x1="4.34669" y1="29.8616" x2="4.10869" y2="29.6044" gradientUnits="userSpaceOnUse">
<stop stop-color="#CB7734"/>
<stop offset="1" stop-color="#CB7734" stop-opacity="0"/>
</linearGradient>
<linearGradient id="paint8_linear_56_1568" x1="11.2317" y1="30.8114" x2="33.6111" y2="30.8114" gradientUnits="userSpaceOnUse">
<stop stop-color="#E69F70"/>
<stop offset="1" stop-color="#D3895C"/>
</linearGradient>
<linearGradient id="paint9_linear_56_1568" x1="17" y1="32.4732" x2="17" y2="31.0123" gradientUnits="userSpaceOnUse">
<stop stop-color="#D47F6E"/>
<stop offset="1" stop-color="#D47F6E" stop-opacity="0"/>
</linearGradient>
<linearGradient id="paint10_linear_56_1568" x1="29.6098" y1="29.4886" x2="29.3675" y2="29.7319" gradientUnits="userSpaceOnUse">
<stop stop-color="#C67331"/>
<stop offset="1" stop-color="#C67331" stop-opacity="0"/>
</linearGradient>
<linearGradient id="paint11_linear_56_1568" x1="30.2812" y1="2.125" x2="30.2812" y2="31.875" gradientUnits="userSpaceOnUse">
<stop stop-color="#CA7C50"/>
<stop offset="1" stop-color="#E0966B"/>
</linearGradient>
<linearGradient id="paint12_linear_56_1568" x1="29.9158" y1="3.98438" x2="30.0613" y2="4.13419" gradientUnits="userSpaceOnUse">
<stop stop-color="#C2712E"/>
<stop offset="1" stop-color="#C2712E" stop-opacity="0"/>
</linearGradient>
<linearGradient id="paint13_linear_56_1568" x1="29.0806" y1="4.64525" x2="3.83137" y2="4.64525" gradientUnits="userSpaceOnUse">
<stop stop-color="#D99569"/>
<stop offset="1" stop-color="#D28459"/>
</linearGradient>
<linearGradient id="paint14_linear_56_1568" x1="17" y1="5.3125" x2="17" y2="4.964" gradientUnits="userSpaceOnUse">
<stop stop-color="#CC8159"/>
<stop offset="1" stop-color="#CC8159" stop-opacity="0"/>
</linearGradient>
<linearGradient id="paint15_linear_56_1568" x1="4.15544" y1="4.39344" x2="4.7345" y2="3.859" gradientUnits="userSpaceOnUse">
<stop stop-color="#C77731"/>
<stop offset="1" stop-color="#C77731" stop-opacity="0"/>
</linearGradient>
<radialGradient id="paint16_radial_56_1568" cx="0" cy="0" r="1" gradientUnits="userSpaceOnUse" gradientTransform="translate(17 25.6105) rotate(-90) scale(9.27518 22.8135)">
<stop stop-color="#2DAC5B"/>
<stop offset="1" stop-color="#35BD69"/>
</radialGradient>
<radialGradient id="paint17_radial_56_1568" cx="0" cy="0" r="1" gradientUnits="userSpaceOnUse" gradientTransform="translate(12.2849 17.332) rotate(50.356) scale(9.05515 5.50738)">
<stop stop-color="#4DC277"/>
<stop offset="1" stop-color="#4DC277" stop-opacity="0"/>
</radialGradient>
<radialGradient id="paint18_radial_56_1568" cx="0" cy="0" r="1" gradientUnits="userSpaceOnUse" gradientTransform="translate(28.6875 13.005) rotate(90) scale(13.4918 5.31739)">
<stop stop-color="#3BCC74"/>
<stop offset="1" stop-color="#3BCC74" stop-opacity="0"/>
</radialGradient>
<radialGradient id="paint19_radial_56_1568" cx="0" cy="0" r="1" gradientUnits="userSpaceOnUse" gradientTransform="translate(19.1252 19.4578) rotate(110.45) scale(4.18148 2.73668)">
<stop offset="0.35" stop-color="#4CA876"/>
<stop offset="1" stop-color="#4CA876" stop-opacity="0"/>
</radialGradient>
<radialGradient id="paint20_radial_56_1568" cx="0" cy="0" r="1" gradientUnits="userSpaceOnUse" gradientTransform="translate(5.3125 29.8828) rotate(-49.844) scale(5.56071 8.28793)">
<stop stop-color="#399E60"/>
<stop offset="1" stop-color="#399E60" stop-opacity="0"/>
</radialGradient>
<radialGradient id="paint21_radial_56_1568" cx="0" cy="0" r="1" gradientUnits="userSpaceOnUse" gradientTransform="translate(17 28.6875) rotate(-90) scale(4.29698 12.5266)">
<stop stop-color="#7FD86C"/>
<stop offset="1" stop-color="#9FD660"/>
</radialGradient>
<radialGradient id="paint22_radial_56_1568" cx="0" cy="0" r="1" gradientUnits="userSpaceOnUse" gradientTransform="translate(6.78995 30.0328) rotate(-31.396) scale(10.9616 14.8237)">
<stop stop-color="#79C56C"/>
<stop offset="1" stop-color="#79C56C" stop-opacity="0"/>
</radialGradient>
<radialGradient id="paint23_radial_56_1568" cx="0" cy="0" r="1" gradientUnits="userSpaceOnUse" gradientTransform="translate(29.2876 30.1702) rotate(-133.877) scale(9.92621 9.99203)">
<stop stop-color="#93EB81"/>
<stop offset="1" stop-color="#93EB81" stop-opacity="0"/>
</radialGradient>
<linearGradient id="paint24_linear_56_1568" x1="19.6065" y1="8.13131" x2="16.2872" y2="12.3675" gradientUnits="userSpaceOnUse">
<stop stop-color="#FC8B23"/>
<stop offset="1" stop-color="#E67639"/>
</linearGradient>
<radialGradient id="paint25_radial_56_1568" cx="0" cy="0" r="1" gradientUnits="userSpaceOnUse" gradientTransform="translate(18.3612 7.38968) rotate(138.155) scale(0.817249 0.72108)">
<stop offset="0.3" stop-color="#FFA13A"/>
<stop offset="1" stop-color="#FFA13A" stop-opacity="0"/>
</radialGradient>
<radialGradient id="paint26_radial_56_1568" cx="0" cy="0" r="1" gradientUnits="userSpaceOnUse" gradientTransform="translate(16.2352 7.13256) rotate(67.8107) scale(1.29925 1.14633)">
<stop offset="0.3" stop-color="#FF942A"/>
<stop offset="1" stop-color="#FF942A" stop-opacity="0"/>
</radialGradient>
<radialGradient id="paint27_radial_56_1568" cx="0" cy="0" r="1" gradientUnits="userSpaceOnUse" gradientTransform="translate(19.7244 8.34487) rotate(-164.743) scale(0.518036 0.717277)">
<stop offset="0.3" stop-color="#FFA13D"/>
<stop offset="1" stop-color="#FFA13D" stop-opacity="0"/>
</radialGradient>
<radialGradient id="paint28_radial_56_1568" cx="0" cy="0" r="1" gradientUnits="userSpaceOnUse" gradientTransform="translate(20.7689 9.09818) rotate(154.196) scale(0.918488 0.678371)">
<stop offset="0.3" stop-color="#FFA13D"/>
<stop offset="1" stop-color="#FFA13D" stop-opacity="0"/>
</radialGradient>
<radialGradient id="paint29_radial_56_1568" cx="0" cy="0" r="1" gradientUnits="userSpaceOnUse" gradientTransform="translate(20.9697 10.6526) rotate(-173.379) scale(1.02456 0.577378)">
<stop offset="0.3" stop-color="#FFA13D"/>
<stop offset="1" stop-color="#FFA13D" stop-opacity="0"/>
</radialGradient>
<radialGradient id="paint30_radial_56_1568" cx="0" cy="0" r="1" gradientUnits="userSpaceOnUse" gradientTransform="translate(20.0517 11.8426) rotate(-43.9643) scale(0.929361 0.895329)">
<stop stop-color="#E0762A"/>
<stop offset="1" stop-color="#E0762A" stop-opacity="0"/>
</radialGradient>
<radialGradient id="paint31_radial_56_1568" cx="0" cy="0" r="1" gradientUnits="userSpaceOnUse" gradientTransform="translate(15.7446 11.6237) rotate(-127.747) scale(0.712491 0.686396)">
<stop stop-color="#E0762A"/>
<stop offset="1" stop-color="#E0762A" stop-opacity="0"/>
</radialGradient>
<radialGradient id="paint32_radial_56_1568" cx="0" cy="0" r="1" gradientUnits="userSpaceOnUse" gradientTransform="translate(14.7721 9.21612) rotate(25.2777) scale(0.723535 0.87449)">
<stop stop-color="#F0851D"/>
<stop offset="1" stop-color="#F0851D" stop-opacity="0"/>
</radialGradient>
<radialGradient id="paint33_radial_56_1568" cx="0" cy="0" r="1" gradientUnits="userSpaceOnUse" gradientTransform="translate(19.0912 12.8743) rotate(-142.487) scale(0.843555 0.795824)">
<stop offset="0.337" stop-color="#E3745B"/>
<stop offset="1" stop-color="#E3745B" stop-opacity="0"/>
</radialGradient>
<radialGradient id="paint34_radial_56_1568" cx="0" cy="0" r="1" gradientUnits="userSpaceOnUse" gradientTransform="translate(19.1209 8.80286) rotate(117.739) scale(4.14615 5.12008)">
<stop offset="0.172" stop-color="#FFCB38"/>
<stop offset="1" stop-color="#E5AE1B"/>
</radialGradient>
<radialGradient id="paint35_radial_56_1568" cx="0" cy="0" r="1" gradientUnits="userSpaceOnUse" gradientTransform="translate(8.15111 12.8667) rotate(-115.017) scale(1.64883)">
<stop offset="0.108" stop-color="#EBEAFF"/>
<stop offset="1" stop-color="#D5D8FF"/>
</radialGradient>
<linearGradient id="paint36_linear_56_1568" x1="7.50444" y1="17" x2="7.50444" y2="16.0703" gradientUnits="userSpaceOnUse">
<stop stop-color="#CFC9FF"/>
<stop offset="1" stop-color="#CFC9FF" stop-opacity="0"/>
</linearGradient>
<radialGradient id="paint37_radial_56_1568" cx="0" cy="0" r="1" gradientUnits="userSpaceOnUse" gradientTransform="translate(11.2232 14.1451) rotate(151.736) scale(3.50588 2.94331)">
<stop stop-color="#F2F3FF"/>
<stop offset="1" stop-color="#F2F3FF" stop-opacity="0"/>
</radialGradient>
<radialGradient id="paint38_radial_56_1568" cx="0" cy="0" r="1" gradientUnits="userSpaceOnUse" gradientTransform="translate(7.30469 11.356) rotate(121.861) scale(2.89343 2.34557)">
<stop offset="0.222" stop-color="#F4F4FF"/>
<stop offset="1" stop-color="#F4F4FF" stop-opacity="0"/>
</radialGradient>
</defs>
</svg>
