<svg width="22" height="14" viewBox="0 0 22 14" fill="none" xmlns="http://www.w3.org/2000/svg">
<path fill-rule="evenodd" clip-rule="evenodd" d="M1.69922 0C0.822116 0 0.111084 0.711032 0.111084 1.58813V5.17457C0.206232 5.16025 0.303639 5.15283 0.402778 5.15283C1.47666 5.15283 2.34722 6.02339 2.34722 7.09728C2.34722 8.17116 1.47666 9.04172 0.402778 9.04172C0.303639 9.04172 0.206232 9.0343 0.111084 9.01999V12.4119C0.111084 13.289 0.822116 14 1.69922 14H20.3007C21.1778 14 21.8889 13.289 21.8889 12.4119V9.03207C21.8249 9.03842 21.7601 9.04167 21.6945 9.04167C20.6206 9.04167 19.75 8.17111 19.75 7.09722C19.75 6.02333 20.6206 5.15278 21.6945 5.15278C21.7601 5.15278 21.8249 5.15603 21.8889 5.16237V1.58813C21.8889 0.711032 21.1778 0 20.3007 0H1.69922Z" fill="#0066FF"/>
</svg>
