<svg width="25" height="25" viewBox="0 0 25 25" fill="none" xmlns="http://www.w3.org/2000/svg">
<g clip-path="url(#clip0_218_1433)">
<path d="M5.03528 19.0291H6.44928L15.7633 9.71508L14.3493 8.30108L5.03528 17.6151V19.0291ZM21.0353 21.0291H3.03528V16.7861L16.4703 3.35108C16.6578 3.1636 16.9121 3.05829 17.1773 3.05829C17.4424 3.05829 17.6968 3.1636 17.8843 3.35108L20.7133 6.18008C20.9008 6.3676 21.0061 6.62191 21.0061 6.88708C21.0061 7.15224 20.9008 7.40655 20.7133 7.59408L9.27828 19.0291H21.0353V21.0291ZM15.7633 6.88708L17.1773 8.30108L18.5913 6.88708L17.1773 5.47308L15.7633 6.88708Z" fill="#CFD6E0"/>
</g>
<defs>
<clipPath id="clip0_218_1433">
<rect width="24" height="24" fill="white" transform="translate(0.0352783 0.0290527)"/>
</clipPath>
</defs>
</svg>
