<svg width="57" height="57" viewBox="0 0 57 57" fill="none" xmlns="http://www.w3.org/2000/svg">
<circle cx="28.5" cy="28.5" r="28.5" fill="#0095DA"/>
<path d="M41 20.4412V14.6154C41 13.9217 40.719 13.2565 40.219 12.766C39.7189 12.2755 39.0406 12 38.3333 12H19.6667C18.9594 12 18.2811 12.2755 17.781 12.766C17.281 13.2565 17 13.9217 17 14.6154V20.5C17.0009 20.9059 17.0977 21.306 17.2828 21.669C17.4678 22.0321 17.7361 22.3481 18.0667 22.5923L26.7783 29L18.0667 35.4077C17.7361 35.6519 17.4678 35.9679 17.2828 36.331C17.0977 36.694 17.0009 37.0941 17 37.5V43.3846C17 44.0783 17.281 44.7435 17.781 45.234C18.2811 45.7244 18.9594 46 19.6667 46H38.3333C39.0406 46 39.7189 45.7244 40.219 45.234C40.719 44.7435 41 44.0783 41 43.3846V37.5588C40.9991 37.1545 40.9031 36.7559 40.7195 36.3939C40.536 36.0318 40.2698 35.7162 39.9417 35.4714L31.2117 29L39.9417 22.5269C40.2699 22.2827 40.5363 21.9674 40.7198 21.6056C40.9034 21.2438 40.9993 20.8453 41 20.4412ZM38.3333 43.3846H19.6667V37.5L29 30.6346L38.3333 37.5572V43.3846ZM38.3333 20.4412L29 27.3654L19.6667 20.5V14.6154H38.3333V20.4412Z" fill="white"/>
</svg>
