<svg width="45" height="46" viewBox="0 0 45 46" fill="none" xmlns="http://www.w3.org/2000/svg">
<g clip-path="url(#clip0_1428_7638)">
<path d="M26.228 9.68602L24.814 8.27202L15.5 17.586V19H16.914L26.228 9.68602ZM27.642 8.27202L29.056 6.85802L27.642 5.44402L26.228 6.85802L27.642 8.27202ZM17.742 21H13.5V16.757L26.935 3.32202C27.1225 3.13455 27.3768 3.02924 27.642 3.02924C27.9072 3.02924 28.1615 3.13455 28.349 3.32202L31.178 6.15102C31.3655 6.33855 31.4708 6.59286 31.4708 6.85802C31.4708 7.12319 31.3655 7.37749 31.178 7.56502L17.743 21H17.742Z" fill="#09121F"/>
</g>
<path d="M4.17188 36.4648C4.17773 37.8652 5.28516 39.1426 6.84375 39.6523L6.375 40.3672C5.16211 39.957 4.20117 39.1016 3.72656 38C3.26953 39.1836 2.29688 40.1211 1.05469 40.5664L0.574219 39.8516C2.13867 39.3008 3.24023 37.9414 3.24609 36.4648V36.0195H0.808594V35.2695H6.57422V36.0195H4.17188V36.4648ZM2.01562 42.1484V41.3867H9.02344V44.9492H8.10938V42.1484H2.01562ZM8.10938 40.8359V34.5312H9.02344V40.8359H8.10938ZM19.418 34.5312V40.1914H18.5039V37.8359H16.3945V37.0625H18.5039V34.5312H19.418ZM10.8398 39.6406C12.375 39.084 13.4883 37.707 13.4883 36.2305V35.9258H11.1328V35.1641H16.7461V35.9258H14.4141V36.2305C14.4141 37.5664 15.457 38.8789 16.9805 39.4062L16.5 40.1211C15.3281 39.6934 14.4199 38.8203 13.9688 37.7539C13.5234 38.9492 12.5566 39.916 11.3203 40.3672L10.8398 39.6406ZM12.7148 44.8086V40.6953H13.6406V41.9961H18.5039V40.6953H19.418V44.8086H12.7148ZM13.6406 44.0586H18.5039V42.7344H13.6406V44.0586ZM27.7031 36.4648C27.709 37.8535 28.7285 39.1191 30.2695 39.6523L29.8008 40.3672C28.6113 39.9453 27.7031 39.0957 27.2578 38.0176C26.8125 39.2012 25.8574 40.1211 24.6328 40.5664L24.1406 39.8516C25.6992 39.3008 26.7891 37.959 26.8008 36.4648V36.0195H24.4219V35.2695H30.0469V36.0195H27.7031V36.4648ZM25.5 42.1133V41.3633H32.3203V44.9492H31.4062V42.1133H25.5ZM31.4062 40.8125V34.5312H32.3203V37.2852H33.8906V38.0703H32.3203V40.8125H31.4062ZM38.1328 36.1719C38.1211 37.6602 39.1816 38.9668 40.7109 39.4883L40.1953 40.2031C39.0469 39.7754 38.1445 38.9258 37.6934 37.8301C37.248 39.0781 36.2988 40.0449 35.0391 40.5195L34.5352 39.7695C36.1406 39.207 37.207 37.8242 37.2188 36.207V35.1289H38.1328V36.1719ZM36.2344 42.9805C36.2285 41.7266 37.5586 41.0059 39.7266 41.0117C41.8887 41.0059 43.2188 41.7266 43.2188 42.9805C43.2188 44.2227 41.8887 44.9258 39.7266 44.9258C37.5586 44.9258 36.2285 44.2227 36.2344 42.9805ZM37.1484 42.9805C37.1426 43.7363 38.127 44.1934 39.7266 44.1875C41.3203 44.1934 42.3047 43.7363 42.3047 42.9805C42.3047 42.2012 41.3203 41.7383 39.7266 41.7383C38.127 41.7383 37.1426 42.2012 37.1484 42.9805ZM39.9375 37.5312V36.7695H42.2578V34.5312H43.1836V40.707H42.2578V37.5312H39.9375Z" fill="black"/>
<defs>
<clipPath id="clip0_1428_7638">
<rect width="24" height="24" fill="white" transform="translate(10.5)"/>
</clipPath>
</defs>
</svg>
