<svg width="45" height="46" viewBox="0 0 45 46" fill="none" xmlns="http://www.w3.org/2000/svg">
<path d="M16.328 6.99999L18.864 9.53599L17.45 10.95L12.5 5.99999L17.45 1.04999L18.864 2.46399L16.328 4.99999H23.5C25.6217 4.99999 27.6566 5.84284 29.1569 7.34313C30.6571 8.84342 31.5 10.8783 31.5 13C31.5 15.1217 30.6571 17.1566 29.1569 18.6568C27.6566 20.1571 25.6217 21 23.5 21H14.5V19H23.5C25.0913 19 26.6174 18.3678 27.7426 17.2426C28.8679 16.1174 29.5 14.5913 29.5 13C29.5 11.4087 28.8679 9.88257 27.7426 8.75735C26.6174 7.63213 25.0913 6.99999 23.5 6.99999H16.328Z" fill="#09121F"/>
<path d="M8.48438 34.5312V38.6562H10.2305V39.4297H8.48438V44.9727H7.57031V34.5312H8.48438ZM0.878906 42.3594V35.5508H5.74219V36.3125H1.79297V41.5859C3.67969 41.5801 5.00977 41.498 6.5625 41.2109L6.67969 42.0078C5.04492 42.3008 3.67969 42.3594 1.69922 42.3594H0.878906ZM14.4961 37.332C14.4902 39.2363 15.7852 41.1465 17.3203 41.8438L16.7578 42.5703C15.5684 41.9961 14.543 40.7598 14.0449 39.2773C13.5645 40.8477 12.5391 42.166 11.3203 42.7812L10.7344 42.0078C12.2871 41.2988 13.5703 39.3066 13.582 37.332V35.4336H14.4961V37.332ZM18.457 44.9727V34.5312H19.3828V44.9727H18.457ZM32.8828 41.3047V44.9492H31.9688V42.0547H25.7344V41.3047H32.8828ZM24.1055 39.6406C25.3008 38.9961 25.7988 37.625 25.8047 36.6523V36.0898H24.4805V35.3281H27.4805V36.0898H26.6602V36.6523C26.6602 37.4023 26.9062 38.6035 27.7383 39.3828C28.5527 38.6328 28.793 37.4551 28.793 36.6523V36.0898H27.9961V35.3281H30.9609V36.0898H29.6836V36.6523C29.6719 37.6602 30.1699 39.0195 31.3594 39.6406L30.8672 40.3086C30.0352 39.8633 29.5254 39.0898 29.25 38.252C29.0215 39.1016 28.5645 39.9277 27.7383 40.4023C26.918 39.9219 26.4609 39.0898 26.2266 38.252C25.9512 39.084 25.4414 39.8633 24.6211 40.3086L24.1055 39.6406ZM31.9688 40.7773V34.5312H32.8828V40.7773H31.9688ZM43.1602 34.5312V44.9492H42.2344V34.5312H43.1602ZM34.6758 42.2422C37.4941 40.9062 38.9355 38.9082 39.1406 36.418H35.1562V35.668H40.0781C40.0664 38.6621 38.6719 41.3164 35.1797 42.9922L34.6758 42.2422Z" fill="black"/>
</svg>
