<svg width="24" height="20" viewBox="0 0 24 20" fill="none" xmlns="http://www.w3.org/2000/svg">
<g id="ArrowRight">
<path id="Vector" d="M20.7806 10.4422L14.0306 16.0672C13.8899 16.1844 13.699 16.2503 13.5 16.2503C13.301 16.2503 13.1101 16.1844 12.9694 16.0672C12.8286 15.9499 12.7496 15.7908 12.7496 15.625C12.7496 15.4591 12.8286 15.3001 12.9694 15.1828L18.4397 10.625H3.75C3.55109 10.625 3.36032 10.5591 3.21967 10.4419C3.07902 10.3247 3 10.1657 3 9.99998C3 9.83422 3.07902 9.67525 3.21967 9.55804C3.36032 9.44083 3.55109 9.37498 3.75 9.37498H18.4397L12.9694 4.81717C12.8286 4.69989 12.7496 4.54083 12.7496 4.37498C12.7496 4.20913 12.8286 4.05007 12.9694 3.93279C13.1101 3.81552 13.301 3.74963 13.5 3.74963C13.699 3.74963 13.8899 3.81552 14.0306 3.93279L20.7806 9.55779C20.8504 9.61584 20.9057 9.68477 20.9434 9.76064C20.9812 9.83652 21.0006 9.91785 21.0006 9.99998C21.0006 10.0821 20.9812 10.1634 20.9434 10.2393C20.9057 10.3152 20.8504 10.3841 20.7806 10.4422Z" fill="black"/>
</g>
</svg>
