<svg width="30" height="30" viewBox="0 0 30 30" fill="none" xmlns="http://www.w3.org/2000/svg">
<g clip-path="url(#clip0_375_9231)">
<path d="M26.25 22.55H27.45V24.95H2.55V22.55H3.75H3.8V22.5V13.7887C3.8 7.58121 8.81527 2.55 15 2.55C21.1847 2.55 26.2 7.58121 26.2 13.7887V22.5V22.55H26.25ZM6.2 22.5V22.55H6.25H23.75H23.8V22.5V13.7887C23.8 8.9076 19.8603 4.95 15 4.95C10.1397 4.95 6.2 8.9076 6.2 13.7887V22.5ZM18.0746 26.3C18.0616 27.0975 17.7392 27.8595 17.1744 28.4244C16.5977 29.001 15.8155 29.325 15 29.325C14.1845 29.325 13.4023 29.001 12.8256 28.4244C12.2608 27.8595 11.9384 27.0975 11.9254 26.3H18.0746Z" fill="#06135D" stroke="#F8F8F8" stroke-width="0.1"/>
</g>
<defs>
<clipPath id="clip0_375_9231">
<rect width="30" height="30" fill="white"/>
</clipPath>
</defs>
</svg>
