<svg width="25" height="25" viewBox="0 0 25 25" fill="none" xmlns="http://www.w3.org/2000/svg">
<g id="Group">
<path id="Vector" d="M20.1411 22.0291H18.1411V20.0291C18.1411 19.2334 17.825 18.4703 17.2624 17.9077C16.6998 17.3451 15.9367 17.0291 15.1411 17.0291H9.14105C8.3454 17.0291 7.58234 17.3451 7.01973 17.9077C6.45712 18.4703 6.14105 19.2334 6.14105 20.0291V22.0291H4.14105V20.0291C4.14105 18.703 4.66784 17.4312 5.60552 16.4935C6.5432 15.5558 7.81497 15.0291 9.14105 15.0291H15.1411C16.4671 15.0291 17.7389 15.5558 18.6766 16.4935C19.6143 17.4312 20.1411 18.703 20.1411 20.0291V22.0291ZM12.1411 13.0291C11.3531 13.0291 10.5729 12.8739 9.84495 12.5723C9.117 12.2708 8.45556 11.8288 7.89841 11.2717C7.34126 10.7145 6.8993 10.0531 6.59777 9.32515C6.29625 8.5972 6.14105 7.81698 6.14105 7.02905C6.14105 6.24112 6.29625 5.46091 6.59777 4.73295C6.8993 4.005 7.34126 3.34356 7.89841 2.78641C8.45556 2.22926 9.117 1.7873 9.84495 1.48578C10.5729 1.18425 11.3531 1.02905 12.1411 1.02905C13.7324 1.02905 15.2585 1.66119 16.3837 2.78641C17.5089 3.91163 18.1411 5.43775 18.1411 7.02905C18.1411 8.62035 17.5089 10.1465 16.3837 11.2717C15.2585 12.3969 13.7324 13.0291 12.1411 13.0291ZM12.1411 11.0291C13.2019 11.0291 14.2193 10.6076 14.9695 9.85748C15.7196 9.10733 16.1411 8.08992 16.1411 7.02905C16.1411 5.96819 15.7196 4.95077 14.9695 4.20063C14.2193 3.45048 13.2019 3.02905 12.1411 3.02905C11.0802 3.02905 10.0628 3.45048 9.31262 4.20063C8.56248 4.95077 8.14105 5.96819 8.14105 7.02905C8.14105 8.08992 8.56248 9.10733 9.31262 9.85748C10.0628 10.6076 11.0802 11.0291 12.1411 11.0291Z" fill="#CFD6E0"/>
</g>
</svg>
