<svg width="41" height="40" viewBox="0 0 41 40" fill="none" xmlns="http://www.w3.org/2000/svg">
<circle cx="20.5" cy="20" r="20" fill="#EBEDF0"/>
<g clip-path="url(#clip0_629_15205)">
<path d="M22.0238 26.493C22.7747 26.493 23.1714 27.3819 22.6705 27.9409C22.3451 28.3051 21.9465 28.5963 21.5007 28.7955C21.0549 28.9948 20.572 29.0976 20.0837 29.0972C19.5954 29.0976 19.1125 28.9948 18.6667 28.7955C18.2209 28.5963 17.8222 28.3051 17.4969 27.9409C17.0177 27.4062 17.3597 26.5703 18.0472 26.4991L18.1427 26.4939L22.0238 26.493ZM20.0837 11.7361C21.2625 11.7361 22.259 12.5199 22.5793 13.5946L22.6193 13.743L22.6262 13.7804C23.5832 14.3202 24.3986 15.0791 25.0057 15.9948C25.6129 16.9105 25.9945 17.957 26.1193 19.0486L26.1436 19.2977L26.1601 19.5486V22.0929L26.1783 22.2109C26.2972 22.8505 26.6511 23.4225 27.1705 23.8142L27.3155 23.9158L27.4561 24.0017C28.2026 24.4245 27.9422 25.5347 27.1288 25.6198L27.0281 25.625H13.1392C12.2469 25.625 11.9352 24.4409 12.7113 24.0017C13.042 23.8145 13.3278 23.5572 13.5486 23.2479C13.7693 22.9385 13.9197 22.5846 13.9891 22.2109L14.0073 22.0868L14.0082 19.5087C14.0611 18.3749 14.3911 17.2713 14.9693 16.2946C15.5476 15.318 16.3564 14.4979 17.325 13.9062L17.5403 13.7795L17.549 13.7422C17.6718 13.2231 17.9508 12.7542 18.3485 12.3987C18.7462 12.0432 19.2434 11.8183 19.7729 11.7543L19.9309 11.7396L20.0837 11.7361Z" fill="#58687F"/>
</g>
<defs>
<clipPath id="clip0_629_15205">
<rect width="20.8333" height="20.8333" fill="white" transform="translate(9.66797 10)"/>
</clipPath>
</defs>
</svg>
