<svg width="41" height="40" viewBox="0 0 41 40" fill="none" xmlns="http://www.w3.org/2000/svg">
<circle cx="20.5" cy="20" r="20" fill="#EBEDF0"/>
<path d="M29.0344 22.125L29.2069 21.1825C29.288 20.7127 29.2491 20.2301 29.094 19.7793C28.9388 19.3285 28.6724 18.9242 28.3194 18.6038C26.6044 17.0288 23.9257 16.245 20.2819 16.25C16.6444 16.255 14.0469 17.045 12.4894 18.6188C11.8294 19.285 11.5894 20.2738 11.8582 21.2125L12.1282 22.155C12.3807 23.035 13.2332 23.6238 14.1207 23.53L15.9007 23.3438C16.2707 23.3074 16.6183 23.1498 16.8896 22.8955C17.1608 22.6412 17.3405 22.3044 17.4007 21.9375L17.7432 19.9325C18.6037 19.5298 19.5384 19.3102 20.4882 19.2875C21.4719 19.2575 22.3732 19.4163 23.1907 19.765L23.7432 21.9075C23.8399 22.2839 24.049 22.6219 24.3427 22.8765C24.6364 23.1311 25.0006 23.2901 25.3869 23.3325L27.1769 23.5125C27.6048 23.5607 28.0349 23.4441 28.3798 23.1863C28.7246 22.9285 28.9595 22.549 29.0344 22.125Z" fill="#58687F"/>
</svg>
