<svg width="25" height="25" viewBox="0 0 25 25" fill="none" xmlns="http://www.w3.org/2000/svg">
<g id="mdi:water-outline">
<path id="Vector" d="M12.0352 3.79907L11.2852 4.63907C11.2852 4.63907 10.0052 6.08907 8.71516 7.96907C7.42516 9.84907 6.03516 12.0991 6.03516 14.2591C6.03516 15.8504 6.6673 17.3765 7.79252 18.5017C8.91773 19.6269 10.4439 20.2591 12.0352 20.2591C13.6265 20.2591 15.1526 19.6269 16.2778 18.5017C17.403 17.3765 18.0352 15.8504 18.0352 14.2591C18.0352 12.0991 16.6452 9.84907 15.3552 7.96907C14.0652 6.08907 12.7852 4.63907 12.7852 4.63907L12.0352 3.79907ZM12.0352 6.92907C12.4752 7.44907 12.8752 7.87907 13.7152 9.09907C14.9252 10.8591 16.0352 13.0991 16.0352 14.2591C16.0352 16.4791 14.2552 18.2591 12.0352 18.2591C9.81516 18.2591 8.03516 16.4791 8.03516 14.2591C8.03516 13.0991 9.14516 10.8591 10.3552 9.09907C11.1952 7.87907 11.5952 7.44907 12.0352 6.92907Z" fill="#0066FF"/>
</g>
</svg>
