<svg width="25" height="25" viewBox="0 0 25 25" fill="none" xmlns="http://www.w3.org/2000/svg">
<g id="CaretDown">
<path id="Vector" d="M20.8652 9.92768L13.0527 17.7402C12.9801 17.8128 12.894 17.8704 12.7991 17.9098C12.7043 17.9491 12.6026 17.9693 12.4999 17.9693C12.3973 17.9693 12.2956 17.9491 12.2008 17.9098C12.1059 17.8704 12.0198 17.8128 11.9472 17.7402L4.13471 9.92768C3.98812 9.78109 3.90576 9.58226 3.90576 9.37495C3.90576 9.16763 3.98812 8.96881 4.13471 8.82221C4.28131 8.67562 4.48013 8.59326 4.68745 8.59326C4.89476 8.59326 5.09359 8.67562 5.24018 8.82221L12.4999 16.083L19.7597 8.82221C19.8323 8.74963 19.9185 8.69205 20.0133 8.65276C20.1081 8.61348 20.2098 8.59326 20.3124 8.59326C20.4151 8.59326 20.5167 8.61348 20.6116 8.65276C20.7064 8.69205 20.7926 8.74963 20.8652 8.82221C20.9378 8.8948 20.9953 8.98097 21.0346 9.07581C21.0739 9.17065 21.0941 9.27229 21.0941 9.37495C21.0941 9.4776 21.0739 9.57925 21.0346 9.67408C20.9953 9.76892 20.9378 9.85509 20.8652 9.92768Z" fill="black"/>
</g>
</svg>
