<svg width="12" height="12" viewBox="0 0 12 12" fill="none" xmlns="http://www.w3.org/2000/svg">
<g id="Group">
<path id="Vector" d="M8.79942 8.82022L5.75 11.8696L2.70059 8.82022C2.09748 8.21711 1.68676 7.44869 1.52036 6.61215C1.35397 5.77561 1.43937 4.90851 1.76578 4.12051C2.09218 3.33251 2.64492 2.65899 3.35411 2.18513C4.0633 1.71127 4.89707 1.45834 5.75 1.45834C6.60293 1.45834 7.43671 1.71127 8.14589 2.18513C8.85508 2.65899 9.40782 3.33251 9.73423 4.12051C10.0606 4.90851 10.146 5.77561 9.97964 6.61215C9.81325 7.44869 9.40253 8.21711 8.79942 8.82022ZM5.75 6.72914C6.00417 6.72914 6.24792 6.62817 6.42765 6.44845C6.60737 6.26873 6.70834 6.02497 6.70834 5.77081C6.70834 5.51664 6.60737 5.27288 6.42765 5.09316C6.24792 4.91344 6.00417 4.81247 5.75 4.81247C5.49584 4.81247 5.25208 4.91344 5.07236 5.09316C4.89264 5.27288 4.79167 5.51664 4.79167 5.77081C4.79167 6.02497 4.89264 6.26873 5.07236 6.44845C5.25208 6.62817 5.49584 6.72914 5.75 6.72914Z" fill="#9799A5"/>
</g>
</svg>
