<svg width="25" height="25" viewBox="0 0 25 25" fill="none" xmlns="http://www.w3.org/2000/svg">
<g id="mdi:place-outline">
<path id="Vector" d="M12.1057 6.52893C12.7688 6.52893 13.4046 6.79232 13.8735 7.26116C14.3423 7.73 14.6057 8.36589 14.6057 9.02893C14.6057 9.35724 14.541 9.68233 14.4154 9.98564C14.2898 10.289 14.1056 10.5646 13.8735 10.7967C13.6413 11.0288 13.3657 11.213 13.0624 11.3386C12.7591 11.4643 12.434 11.5289 12.1057 11.5289C11.4427 11.5289 10.8068 11.2655 10.3379 10.7967C9.8691 10.3279 9.60571 9.69197 9.60571 9.02893C9.60571 8.36589 9.8691 7.73 10.3379 7.26116C10.8068 6.79232 11.4427 6.52893 12.1057 6.52893ZM12.1057 2.02893C13.9622 2.02893 15.7427 2.76643 17.0555 4.07918C18.3682 5.39194 19.1057 7.17242 19.1057 9.02893C19.1057 14.2789 12.1057 22.0289 12.1057 22.0289C12.1057 22.0289 5.10571 14.2789 5.10571 9.02893C5.10571 7.17242 5.84321 5.39194 7.15597 4.07918C8.46872 2.76643 10.2492 2.02893 12.1057 2.02893ZM12.1057 4.02893C10.7796 4.02893 9.50786 4.55571 8.57018 5.4934C7.6325 6.43108 7.10571 7.70285 7.10571 9.02893C7.10571 10.0289 7.10571 12.0289 12.1057 18.7389C17.1057 12.0289 17.1057 10.0289 17.1057 9.02893C17.1057 7.70285 16.5789 6.43108 15.6412 5.4934C14.7036 4.55571 13.4318 4.02893 12.1057 4.02893Z" fill="#CFD6E0"/>
</g>
</svg>
