<svg width="36" height="36" viewBox="0 0 36 36" fill="none" xmlns="http://www.w3.org/2000/svg">
<g id="fxemoji:camera">
<path id="Vector" d="M33.7054 9.04013C33.7054 9.07806 33.6903 9.11443 33.6635 9.14126C33.6367 9.16808 33.6003 9.18314 33.5624 9.18314H27.2617C27.2237 9.18314 27.1874 9.16808 27.1605 9.14126C27.1337 9.11443 27.1187 9.07806 27.1187 9.04013V4.55989C27.1187 4.48092 27.1827 4.41687 27.2617 4.41687H33.5624C33.6413 4.41687 33.7054 4.48092 33.7054 4.55989V9.04013Z" fill="#8F9799"/>
<path id="Vector_2" d="M33.7147 32.3846H2.31807C1.47931 32.3846 0.799316 31.7046 0.799316 30.8658V8.69758C0.799316 7.85883 1.47931 7.17883 2.31807 7.17883H33.7147C34.5535 7.17883 35.2335 7.85883 35.2335 8.69758V30.8658C35.2335 31.7046 34.5535 32.3846 33.7147 32.3846Z" fill="#ADB8BC"/>
<path id="Vector_3" d="M33.5068 12.4454C33.5068 12.4931 33.456 12.5318 33.3934 12.5318H28.3947C28.332 12.5318 28.2812 12.4931 28.2812 12.4454V9.73954C28.2812 9.69187 28.332 9.6532 28.3947 9.6532H33.3934C33.456 9.6532 33.5068 9.69187 33.5068 9.73954V12.4454Z" fill="#FFFBDE"/>
<path id="Vector_4" d="M4.81343 12.8966C5.80983 12.8966 6.61757 12.0889 6.61757 11.0925C6.61757 10.0961 5.80983 9.28833 4.81343 9.28833C3.81702 9.28833 3.00928 10.0961 3.00928 11.0925C3.00928 12.0889 3.81702 12.8966 4.81343 12.8966Z" fill="#FF473E"/>
<path id="Vector_5" d="M33.5069 14.1326C33.5069 14.1685 33.4561 14.1977 33.3934 14.1977H28.3947C28.3321 14.1977 28.2813 14.1685 28.2813 14.1326V12.0929C28.2813 12.057 28.3321 12.0278 28.3947 12.0278H33.3934C33.4561 12.0278 33.5069 12.057 33.5069 12.0929V14.1326ZM18.0166 9.65308C12.6579 9.65308 8.31396 13.9971 8.31396 19.3557C8.31396 24.7143 12.658 29.0583 18.0166 29.0583C23.3752 29.0583 27.7192 24.7143 27.7192 19.3557C27.7192 13.9971 23.3753 9.65308 18.0166 9.65308Z" fill="#1C4C5A"/>
<path id="Vector_6" d="M18.0164 13.2607C21.3826 13.2607 24.1115 15.9902 24.1115 19.3558C24.1115 22.7219 21.3826 25.4508 18.0164 25.4508C14.6503 25.4508 11.9214 22.7219 11.9214 19.3558C11.9214 15.9902 14.6503 13.2607 18.0164 13.2607Z" fill="#1C4C5A"/>
<path id="Vector_7" d="M18.0164 13.2607C14.6503 13.2607 11.9214 15.9902 11.9214 19.3558C11.9214 22.7219 14.6503 25.4508 18.0164 25.4508C21.3826 25.4508 24.1115 22.7219 24.1115 19.3558C24.1115 15.9902 21.3831 13.2607 18.0164 13.2607Z" fill="#F4F3EF"/>
<path id="Vector_8" d="M18.0166 23.7746C20.5016 23.7746 22.5161 21.7602 22.5161 19.2751C22.5161 16.7901 20.5016 14.7756 18.0166 14.7756C15.5316 14.7756 13.5171 16.7901 13.5171 19.2751C13.5171 21.7602 15.5316 23.7746 18.0166 23.7746Z" fill="#00BEEA"/>
<path id="Vector_9" d="M19.6785 16.5853C20.2902 16.5853 20.7867 17.0818 20.7867 17.6935C20.7867 18.3058 20.2902 18.8017 19.6785 18.8017C19.0668 18.8017 18.5703 18.3058 18.5703 17.6935C18.5703 17.0812 19.0668 16.5853 19.6785 16.5853Z" fill="white"/>
</g>
</svg>
