<svg width="40" height="28" viewBox="0 0 40 28" fill="none" xmlns="http://www.w3.org/2000/svg">
<path d="M10.7063 4H14V10H6.95625L8.85625 5.25625C9.15625 4.5 9.8875 4 10.7063 4ZM17 10V4H22.075C22.6813 4 23.2563 4.275 23.6375 4.75L27.8375 10H17ZM33.0125 10.0625L26.7625 2.25C25.625 0.825 23.9 0 22.075 0H10.7063C8.25 0 6.04375 1.49375 5.1375 3.76875L2.5375 10.275C1.05 10.8625 0 12.3062 0 14V21C0 22.1063 0.89375 23 2 23H4.08125C4.55625 25.8375 7.025 28 10 28C12.975 28 15.4437 25.8375 15.9187 23H24.0812C24.5562 25.8375 27.025 28 30 28C32.975 28 35.4438 25.8375 35.9188 23H38C39.1063 23 40 22.1063 40 21V18C40 13.925 36.95 10.5625 33.0125 10.0625ZM27.1688 21C27.2961 20.6235 27.4969 20.2761 27.7597 19.9778C28.0224 19.6796 28.3418 19.4366 28.6992 19.2628C29.0567 19.0891 29.4451 18.9881 29.8419 18.9658C30.2387 18.9434 30.636 19.0001 31.0108 19.1326C31.3855 19.2651 31.7301 19.4708 32.0247 19.7376C32.3192 20.0044 32.5579 20.3271 32.7267 20.6869C32.8954 21.0467 32.9911 21.4365 33.0079 21.8336C33.0248 22.2307 32.9626 22.6272 32.825 23C32.6977 23.3765 32.4968 23.7239 32.2341 24.0222C31.9713 24.3204 31.652 24.5634 31.2945 24.7372C30.9371 24.9109 30.5486 25.0119 30.1518 25.0342C29.755 25.0566 29.3577 24.9999 28.983 24.8674C28.6083 24.7349 28.2636 24.5292 27.9691 24.2624C27.6745 23.9956 27.4359 23.6729 27.2671 23.3131C27.0983 22.9533 27.0027 22.5635 26.9858 22.1664C26.9689 21.7693 27.0311 21.3728 27.1688 21ZM10 19C10.7956 19 11.5587 19.3161 12.1213 19.8787C12.6839 20.4413 13 21.2044 13 22C13 22.7956 12.6839 23.5587 12.1213 24.1213C11.5587 24.6839 10.7956 25 10 25C9.20435 25 8.44129 24.6839 7.87868 24.1213C7.31607 23.5587 7 22.7956 7 22C7 21.2044 7.31607 20.4413 7.87868 19.8787C8.44129 19.3161 9.20435 19 10 19Z" fill="white"/>
</svg>
