<svg width="41" height="41" viewBox="0 0 41 41" fill="none" xmlns="http://www.w3.org/2000/svg">
<path d="M13.8334 17.1667H10.5001C9.61603 17.1667 8.76818 17.5179 8.14306 18.143C7.51794 18.7681 7.16675 19.6159 7.16675 20.5V32.1667C7.16675 33.0507 7.51794 33.8986 8.14306 34.5237C8.76818 35.1488 9.61603 35.5 10.5001 35.5H30.5001C31.3841 35.5 32.232 35.1488 32.8571 34.5237C33.4822 33.8986 33.8334 33.0507 33.8334 32.1667V20.5C33.8334 19.6159 33.4822 18.7681 32.8571 18.143C32.232 17.5179 31.3841 17.1667 30.5001 17.1667H27.1667M13.8334 17.1667V12.1667C13.8334 10.3986 14.5358 8.70286 15.786 7.45262C17.0363 6.20238 18.732 5.5 20.5001 5.5C22.2682 5.5 23.9639 6.20238 25.2141 7.45262C26.4644 8.70286 27.1667 10.3986 27.1667 12.1667V17.1667M13.8334 17.1667H27.1667M20.5001 23.8333V28.8333" stroke="black" stroke-width="2" stroke-linecap="round" stroke-linejoin="round"/>
</svg>
