<svg width="32" height="32" viewBox="0 0 32 32" fill="none" xmlns="http://www.w3.org/2000/svg">
<g id="ArrowsLeftRight">
<path id="Vector" d="M26.7076 22.7076L22.7076 26.7076C22.5199 26.8952 22.2654 27.0006 22.0001 27.0006C21.7347 27.0006 21.4802 26.8952 21.2926 26.7076C21.1049 26.5199 20.9995 26.2654 20.9995 26.0001C20.9995 25.7347 21.1049 25.4802 21.2926 25.2926L23.5863 23.0001H6.00005C5.73484 23.0001 5.48048 22.8947 5.29295 22.7072C5.10541 22.5196 5.00005 22.2653 5.00005 22.0001C5.00005 21.7349 5.10541 21.4805 5.29295 21.293C5.48048 21.1054 5.73484 21.0001 6.00005 21.0001H23.5863L21.2926 18.7076C21.1049 18.5199 20.9995 18.2654 20.9995 18.0001C20.9995 17.7347 21.1049 17.4802 21.2926 17.2926C21.4802 17.1049 21.7347 16.9995 22.0001 16.9995C22.2654 16.9995 22.5199 17.1049 22.7076 17.2926L26.7076 21.2926C26.8005 21.3854 26.8743 21.4957 26.9246 21.6171C26.9749 21.7385 27.0008 21.8687 27.0008 22.0001C27.0008 22.1315 26.9749 22.2616 26.9246 22.383C26.8743 22.5044 26.8005 22.6147 26.7076 22.7076ZM9.29255 14.7076C9.48019 14.8952 9.73469 15.0006 10.0001 15.0006C10.2654 15.0006 10.5199 14.8952 10.7076 14.7076C10.8952 14.5199 11.0006 14.2654 11.0006 14.0001C11.0006 13.7347 10.8952 13.4802 10.7076 13.2926L8.4138 11.0001H26.0001C26.2653 11.0001 26.5196 10.8947 26.7072 10.7072C26.8947 10.5196 27.0001 10.2653 27.0001 10.0001C27.0001 9.73485 26.8947 9.4805 26.7072 9.29296C26.5196 9.10542 26.2653 9.00007 26.0001 9.00007H8.4138L10.7076 6.70757C10.8952 6.51993 11.0006 6.26543 11.0006 6.00007C11.0006 5.7347 10.8952 5.48021 10.7076 5.29257C10.5199 5.10493 10.2654 4.99951 10.0001 4.99951C9.73469 4.99951 9.48019 5.10493 9.29255 5.29257L5.29255 9.29257C5.19958 9.38544 5.12582 9.49573 5.07549 9.61713C5.02517 9.73853 4.99927 9.86865 4.99927 10.0001C4.99927 10.1315 5.02517 10.2616 5.07549 10.383C5.12582 10.5044 5.19958 10.6147 5.29255 10.7076L9.29255 14.7076Z" fill="black"/>
</g>
</svg>
