<svg width="70" height="70" viewBox="0 0 70 70" fill="none" xmlns="http://www.w3.org/2000/svg">
<circle cx="35" cy="35" r="33" fill="white" stroke="#0066FF" stroke-width="4"/>
<path d="M32.9844 44.5312V48.6562H34.7305V49.4297H32.9844V54.9727H32.0703V44.5312H32.9844ZM25.3789 52.3594V45.5508H30.2422V46.3125H26.293V51.5859C28.1797 51.5801 29.5098 51.498 31.0625 51.2109L31.1797 52.0078C29.5449 52.3008 28.1797 52.3594 26.1992 52.3594H25.3789ZM40.0391 44.7656C42.3066 44.7656 43.7129 45.498 43.7188 46.7461C43.7129 47.9766 42.3066 48.6973 40.0391 48.6914C37.7715 48.6973 36.3477 47.9766 36.3477 46.7461C36.3477 45.498 37.7715 44.7656 40.0391 44.7656ZM35.293 50.3555V49.5938H44.7852V50.3555H35.293ZM36.4531 54.8086V51.3867H43.625V54.8086H36.4531ZM37.2969 46.7461C37.291 47.502 38.3516 47.959 40.0391 47.9648C41.709 47.959 42.7754 47.502 42.7812 46.7461C42.7754 45.9668 41.709 45.5039 40.0391 45.5039C38.3516 45.5039 37.291 45.9668 37.2969 46.7461ZM37.3672 54.0586H42.7227V52.125H37.3672V54.0586Z" fill="#0066FF"/>
<path d="M25.5 25H46.5M46.5 25L36.5 15M46.5 25L36.5 35" stroke="#0066FF" stroke-width="4" stroke-linecap="square"/>
</svg>
