<svg width="25" height="25" viewBox="0 0 25 25" fill="none" xmlns="http://www.w3.org/2000/svg">
<g id="Group">
<path id="Vector" d="M7.10547 6.0293V3.0293C7.10547 2.76408 7.21083 2.50973 7.39836 2.32219C7.5859 2.13465 7.84025 2.0293 8.10547 2.0293H20.1055C20.3707 2.0293 20.625 2.13465 20.8126 2.32219C21.0001 2.50973 21.1055 2.76408 21.1055 3.0293V17.0293C21.1055 17.2945 21.0001 17.5489 20.8126 17.7364C20.625 17.9239 20.3707 18.0293 20.1055 18.0293H17.1055V21.0293C17.1055 21.5813 16.6555 22.0293 16.0985 22.0293H4.11247C3.9806 22.0301 3.84987 22.0048 3.72779 21.9549C3.60572 21.905 3.4947 21.8315 3.40113 21.7386C3.30755 21.6457 3.23326 21.5352 3.18252 21.4134C3.13178 21.2917 3.1056 21.1612 3.10547 21.0293L3.10847 7.0293C3.10847 6.4773 3.55847 6.0293 4.11547 6.0293H7.10547ZM9.10547 6.0293H17.1055V16.0293H19.1055V4.0293H9.10547V6.0293ZM7.10547 11.0293V13.0293H13.1055V11.0293H7.10547ZM7.10547 15.0293V17.0293H13.1055V15.0293H7.10547Z" fill="#0066FF"/>
</g>
</svg>
