<svg width="32" height="32" viewBox="0 0 32 32" fill="none" xmlns="http://www.w3.org/2000/svg">
<g id="ph:triangle-bold">
<path id="Vector" d="M30.0324 23.2624L19.1012 4.27864C18.7846 3.73716 18.3317 3.28801 17.7876 2.97588C17.2435 2.66375 16.6272 2.49951 15.9999 2.49951C15.3727 2.49951 14.7563 2.66375 14.2123 2.97588C13.6682 3.28801 13.2153 3.73716 12.8987 4.27864L1.96743 23.2624C1.66021 23.7879 1.49829 24.3856 1.49829 24.9943C1.49829 25.603 1.66021 26.2007 1.96743 26.7261C2.28054 27.2703 2.7328 27.7214 3.27778 28.0331C3.82277 28.3448 4.44088 28.5059 5.06868 28.4999H26.9312C27.5586 28.5055 28.1762 28.3442 28.7207 28.0325C29.2652 27.7208 29.717 27.27 30.0299 26.7261C30.3375 26.2009 30.4999 25.6033 30.5003 24.9946C30.5008 24.3859 30.3393 23.7881 30.0324 23.2624ZM27.4324 25.2249C27.3816 25.3115 27.3083 25.3828 27.2203 25.4312C27.1323 25.4796 27.0328 25.5033 26.9324 25.4999H5.06868C4.9683 25.5033 4.86884 25.4796 4.78083 25.4312C4.69282 25.3828 4.61952 25.3115 4.56868 25.2249C4.52556 25.1548 4.50273 25.0741 4.50273 24.9918C4.50273 24.9095 4.52556 24.8288 4.56868 24.7586L15.4999 5.77489C15.5536 5.69102 15.6276 5.62201 15.715 5.57421C15.8023 5.52641 15.9003 5.50136 15.9999 5.50136C16.0995 5.50136 16.1975 5.52641 16.2849 5.57421C16.3723 5.62201 16.4462 5.69102 16.4999 5.77489L27.4312 24.7586C27.4745 24.8286 27.4975 24.9093 27.4978 24.9916C27.498 25.0739 27.4754 25.1547 27.4324 25.2249Z" fill="black"/>
</g>
</svg>
