<svg width="61" height="60" viewBox="0 0 61 60" fill="none" xmlns="http://www.w3.org/2000/svg">
<g id="Group 1717">
<circle id="Ellipse 9" cx="30.5" cy="30" r="30" fill="#EBEDF0"/>
<g id="Group 1699">
<path id="Rectangle 1818" d="M17.0012 14.827H44.0001V36.9937H17.0012V14.827Z" fill="#404F65"/>
<g id="Group 1693">
<path id="Rectangle 1814" d="M20.2993 25.8722C20.2993 22.8221 22.7719 20.3495 25.822 20.3495H35.1024C38.1525 20.3495 40.6251 22.8221 40.6251 25.8722V40.6753H20.2993V25.8722Z" fill="#E5EAF1"/>
<path id="Rectangle 1815" d="M20.2993 23.4175H30.4622V30.2439H20.2993V23.4175Z" fill="#CBD3DF"/>
<path id="Rectangle 1822" d="M30.4238 23.4175H40.5867V30.2439H30.4238V23.4175Z" fill="white"/>
<path id="Rectangle 1818_2" d="M42.3894 24.5681H40.6253V29.0168H42.3894V24.5681Z" fill="white"/>
<path id="Rectangle 1819" d="M20.2993 24.5681H18.5352V29.0168H20.2993V24.5681Z" fill="white"/>
<path id="Rectangle 1816" d="M19.4556 38.0675H41.4688V40.6753H19.4556V38.0675Z" fill="#A9B6CA"/>
<path id="Rectangle 1817" d="M26.8958 34.8461H34.029V38.0675H26.8958V34.8461Z" fill="#A9B6CA"/>
<path id="Rectangle 1820" d="M21.9871 40.6754H25.2085V44.3571H21.9871V40.6754Z" fill="#58687F"/>
<path id="Rectangle 1821" d="M35.6396 40.6754H38.8611V44.3571H35.6396V40.6754Z" fill="#58687F"/>
<ellipse id="Ellipse 21" cx="37.2887" cy="34.8844" rx="2.10928" ry="2.10929" fill="#C0C9D6"/>
<ellipse id="Ellipse 22" cx="23.6359" cy="34.8844" rx="2.10928" ry="2.10929" fill="#C0C9D6"/>
</g>
</g>
</g>
</svg>
