<svg width="25" height="25" viewBox="0 0 25 25" fill="none" xmlns="http://www.w3.org/2000/svg">
<g id="Group">
<path id="Vector" d="M20.1411 22.029H4.14105V20.029C4.14105 18.7029 4.66784 17.4311 5.60552 16.4935C6.5432 15.5558 7.81497 15.029 9.14105 15.029H15.1411C16.4671 15.029 17.7389 15.5558 18.6766 16.4935C19.6143 17.4311 20.1411 18.7029 20.1411 20.029V22.029ZM12.1411 13.029C11.3531 13.029 10.5729 12.8738 9.84495 12.5723C9.117 12.2707 8.45556 11.8288 7.89841 11.2716C7.34126 10.7145 6.8993 10.053 6.59777 9.32509C6.29625 8.59714 6.14105 7.81692 6.14105 7.02899C6.14105 6.24106 6.29625 5.46084 6.59777 4.73289C6.8993 4.00494 7.34126 3.3435 7.89841 2.78635C8.45556 2.2292 9.117 1.78724 9.84495 1.48571C10.5729 1.18419 11.3531 1.02899 12.1411 1.02899C13.7324 1.02899 15.2585 1.66113 16.3837 2.78635C17.5089 3.91157 18.1411 5.43769 18.1411 7.02899C18.1411 8.62029 17.5089 10.1464 16.3837 11.2716C15.2585 12.3969 13.7324 13.029 12.1411 13.029Z" fill="#0066FF"/>
</g>
</svg>
