<svg width="360" height="104" viewBox="0 0 360 104" fill="none" xmlns="http://www.w3.org/2000/svg">
<g filter="url(#filter0_d_98_434)">
<path d="M0 44C0 27.4315 13.4315 14 30 14H330C346.569 14 360 27.4315 360 44V104H0V44Z" fill="white"/>
<path d="M0.5 44C0.5 27.7076 13.7076 14.5 30 14.5H330C346.292 14.5 359.5 27.7076 359.5 44V103.5H0.5V44Z" stroke="#F2F2F2"/>
</g>
<g clip-path="url(#clip0_98_434)">
<path d="M144.145 57.7077L143.574 58.0861C143.036 58.4419 142.312 58.2946 141.956 57.757L139.664 54.2948C139.308 53.7572 139.456 53.0329 139.993 52.6771L140.565 52.2987C141.103 51.9428 141.827 52.0901 142.183 52.6278L144.475 56.0899C144.83 56.6276 144.683 57.3519 144.145 57.7077Z" fill="#F2A74E"/>
<path d="M152.088 42.7556C150.007 39.6115 147.128 37.2443 146.002 37.9894C145.866 38.0795 145.762 38.2114 145.688 38.3787C145.682 38.3876 145.677 38.3966 145.672 38.4064C144.901 39.9409 137.926 47.2913 136.303 48.8599C136.118 49.039 135.99 49.2693 135.936 49.5214C135.789 50.2107 135.647 51.6506 136.556 53.0243C137.472 54.408 138.899 54.8336 139.603 54.9625C139.854 55.0086 140.112 54.9805 140.347 54.8815C142.407 54.01 151.884 50.4774 153.591 50.3679C153.642 50.3646 153.692 50.358 153.74 50.3489C153.873 50.3316 153.993 50.2893 154.098 50.2198C154.154 50.1826 154.205 50.1384 154.25 50.0883C154.345 49.9932 154.419 49.8783 154.465 49.7517C154.452 49.7737 154.437 49.7947 154.42 49.8142C154.944 48.5879 153.91 45.5067 152.088 42.7556Z" fill="#FFB636"/>
<path d="M151.496 43.1479C153.313 45.8927 154.308 48.9644 153.417 49.5538C152.527 50.1433 150.088 48.0273 148.271 45.2825C146.454 42.5377 145.459 39.466 146.35 38.8765C147.24 38.2871 149.679 40.403 151.496 43.1479Z" fill="#CC883E"/>
<path d="M138.625 50.4148C138.509 50.4149 138.394 50.3917 138.288 50.3465C138.181 50.3013 138.084 50.235 138.003 50.1516C137.671 49.8083 137.679 49.2601 138.022 48.9273L140.044 46.9671C140.388 46.6342 140.936 46.6427 141.269 46.9861C141.602 47.3294 141.593 47.8775 141.25 48.2104L139.228 50.1706C139.066 50.3274 138.85 50.4151 138.625 50.4148Z" fill="#FFD469"/>
<path d="M153.936 41.1366L157.406 37.7001C157.553 37.5541 157.797 37.5781 157.913 37.7499L158.713 38.9349C158.823 39.0981 158.767 39.3209 158.593 39.4128L154.323 41.6643C154.253 41.7011 154.172 41.7115 154.095 41.6937C154.018 41.6759 153.949 41.6309 153.902 41.567C153.856 41.5031 153.833 41.4246 153.839 41.3456C153.846 41.2666 153.88 41.1924 153.936 41.1366ZM154.51 44.0877C154.523 44.1513 154.559 44.2078 154.611 44.2464C154.663 44.2851 154.728 44.3031 154.792 44.2971L158.617 43.9401C158.654 43.9366 158.689 43.9255 158.721 43.9073C158.754 43.8892 158.782 43.8644 158.804 43.8347C158.826 43.805 158.841 43.771 158.849 43.7348C158.857 43.6987 158.858 43.6613 158.85 43.6251L158.622 42.5104C158.589 42.3488 158.417 42.2571 158.264 42.3195L154.668 43.7913C154.611 43.8145 154.564 43.8568 154.535 43.911C154.507 43.9651 154.498 44.0276 154.51 44.0877ZM151.654 40.0294C151.708 40.0652 151.774 40.0796 151.838 40.0701C151.902 40.0606 151.961 40.0277 152.002 39.9778L154.454 37.021C154.478 36.9926 154.495 36.9594 154.505 36.9238C154.515 36.8882 154.517 36.8509 154.512 36.8143C154.506 36.7777 154.493 36.7427 154.473 36.7115C154.453 36.6803 154.427 36.6537 154.396 36.6333L153.447 36.0064C153.309 35.9155 153.123 35.9722 153.059 36.1244L151.557 39.7079C151.533 39.7645 151.53 39.8276 151.548 39.8863C151.565 39.945 151.603 39.9956 151.654 40.0294Z" fill="#59CAFC"/>
</g>
<path d="M179.203 40.2188V44.2969H181.125V45.9531H179.203V50.5781H177.203V40.2188H179.203ZM179.719 52.5938V54.1875H169.984V49.4844H171.969V52.5938H179.719ZM171.922 41.1406C174.094 41.1406 175.797 42.6406 175.797 44.75C175.797 46.8281 174.094 48.3594 171.922 48.3594C169.734 48.3594 168.016 46.8281 168.016 44.75C168.016 42.6406 169.734 41.1406 171.922 41.1406ZM171.922 42.875C170.844 42.8594 169.969 43.5625 169.984 44.75C169.969 45.9062 170.844 46.625 171.922 46.625C173.016 46.625 173.844 45.9062 173.859 44.75C173.844 43.5625 173.016 42.8594 171.922 42.875ZM194.016 40.2188V54.4375H192.094V47.3281H190.766V53.75H188.891V40.4531H190.766V45.7188H192.094V40.2188H194.016ZM184.328 41.7969V49.2188C185.469 49.1953 186.719 49.0938 188.094 48.8281L188.297 50.5469C186.391 50.875 184.766 50.9688 183.297 50.9688H182.328V41.7969H184.328ZM200.812 43.4375C200.797 45.9844 201.891 48.5625 204.172 49.6562L202.969 51.25C201.445 50.5 200.422 49.0938 199.828 47.375C199.211 49.2188 198.109 50.7266 196.5 51.5156L195.266 49.9062C197.672 48.7969 198.812 46.0781 198.812 43.4375V41.3125H200.812V43.4375ZM206.797 40.2188V45.7031H208.891V47.3906H206.797V54.4375H204.797V40.2188H206.797ZM220.688 40.2188V43.8594H222.609V45.5156H220.688V49.25H218.688V40.2188H220.688ZM216.047 49.375C218.969 49.375 220.844 50.3281 220.844 51.9219C220.844 53.4844 218.969 54.4375 216.047 54.4375C213.062 54.4375 211.219 53.4844 211.234 51.9219C211.219 50.3281 213.062 49.375 216.047 49.375ZM216.047 50.8906C214.188 50.8906 213.188 51.2188 213.203 51.9219C213.188 52.5938 214.188 52.9531 216.047 52.9531C217.859 52.9531 218.844 52.5938 218.844 51.9219C218.844 51.2188 217.859 50.8906 216.047 50.8906ZM217.844 41.5781V43.125H209.406V41.5781H212.641V40.1406H214.625V41.5781H217.844ZM213.625 43.6094C215.688 43.6094 217.125 44.6562 217.125 46.1719C217.125 47.7031 215.688 48.7188 213.625 48.7188C211.531 48.7188 210.094 47.7031 210.094 46.1719C210.094 44.6562 211.531 43.6094 213.625 43.6094ZM213.625 45.0625C212.672 45.0625 212.031 45.4531 212.047 46.1719C212.031 46.875 212.672 47.25 213.625 47.2344C214.578 47.25 215.234 46.875 215.234 46.1719C215.234 45.4531 214.578 45.0625 213.625 45.0625Z" fill="#FF7A00"/>
<defs>
<filter id="filter0_d_98_434" x="-16" y="0" width="392" height="122" filterUnits="userSpaceOnUse" color-interpolation-filters="sRGB">
<feFlood flood-opacity="0" result="BackgroundImageFix"/>
<feColorMatrix in="SourceAlpha" type="matrix" values="0 0 0 0 0 0 0 0 0 0 0 0 0 0 0 0 0 0 127 0" result="hardAlpha"/>
<feOffset dy="2"/>
<feGaussianBlur stdDeviation="8"/>
<feComposite in2="hardAlpha" operator="out"/>
<feColorMatrix type="matrix" values="0 0 0 0 0 0 0 0 0 0 0 0 0 0 0 0 0 0 0.1 0"/>
<feBlend mode="normal" in2="BackgroundImageFix" result="effect1_dropShadow_98_434"/>
<feBlend mode="normal" in="SourceGraphic" in2="effect1_dropShadow_98_434" result="shape"/>
</filter>
<clipPath id="clip0_98_434">
<rect width="24" height="24" fill="white" transform="translate(135.5 35)"/>
</clipPath>
</defs>
</svg>
