<svg width="199" height="27" viewBox="0 0 199 27" fill="none" xmlns="http://www.w3.org/2000/svg">
<circle cx="10" cy="22" r="4.5" fill="#FF7A00" stroke="#FF7A00"/>
<line x1="15" y1="21.5" x2="65" y2="21.5" stroke="#FF7A00"/>
<circle cx="70" cy="22" r="4.5" fill="#FF7A00" stroke="#FF7A00"/>
<line x1="75" y1="21.5" x2="125" y2="21.5" stroke="#FF7A00"/>
<circle cx="130" cy="22" r="4.5" stroke="#FF7A00"/>
<line x1="135" y1="21.5" x2="185" y2="21.5" stroke="#FF7A00" stroke-opacity="0.2"/>
<circle cx="190" cy="22" r="4.5" stroke="#FF7A00" stroke-opacity="0.2"/>
<path d="M8.37886 3.28809V8.26172H7.36909V3.28809H8.37886ZM0.515578 7.49902C2.00874 7.03711 2.93794 5.87695 2.94331 4.63086H0.784133V3.80371H6.09077V4.63086H3.97456C3.97456 5.80713 4.89302 6.89209 6.39155 7.31641L5.89741 8.10059C4.75874 7.76221 3.91011 7.03711 3.47505 6.11328C3.05073 7.13379 2.16988 7.93408 0.988235 8.30469L0.515578 7.49902ZM2.06245 9.48633V8.70215H8.3896V11.0869H3.08296V12.0215H8.71187V12.8164H2.09468V10.3457H7.37984V9.48633H2.06245ZM18.5918 8.1543V8.98145H14.7676V10.8506H13.7579V8.98145H9.78325V8.1543H18.5918ZM10.879 12.709V9.9375H11.8995V11.8818H17.6143V12.709H10.879ZM10.9112 7.15527V3.73926H17.4532V7.15527H10.9112ZM11.9102 6.34961H16.4434V4.54492H11.9102V6.34961Z" fill="#FF7A00" fill-opacity="0.3"/>
<path d="M68.4541 3.24512V12.9668H67.2509V3.24512H68.4541ZM63.2226 3.9541C64.6835 3.9541 65.747 5.28613 65.7578 7.38086C65.747 9.49707 64.6835 10.8184 63.2226 10.8184C61.7509 10.8184 60.6875 9.49707 60.6875 7.38086C60.6875 5.28613 61.7509 3.9541 63.2226 3.9541ZM63.2226 5.02832C62.3955 5.02832 61.8369 5.89844 61.8369 7.38086C61.8369 8.87402 62.3955 9.74414 63.2226 9.74414C64.039 9.74414 64.5976 8.87402 64.5976 7.38086C64.5976 5.89844 64.039 5.02832 63.2226 5.02832ZM74.4991 4.79199V5.74805H69.7403V4.79199H71.545V3.52441H72.7266V4.79199H74.4991ZM72.1358 6.26367C73.3711 6.26367 74.252 7.19824 74.252 8.51953C74.252 9.8623 73.3711 10.8076 72.1358 10.8076C70.9112 10.8076 70.0088 9.8623 70.0196 8.51953C70.0088 7.19824 70.9112 6.26367 72.1358 6.26367ZM72.1358 7.25195C71.502 7.25195 71.0616 7.75684 71.0723 8.51953C71.0616 9.30371 71.502 9.79785 72.1358 9.78711C72.7588 9.79785 73.1993 9.30371 73.1993 8.51953C73.1993 7.75684 72.7588 7.25195 72.1358 7.25195ZM78.1084 3.24512V12.9561H76.9698V8.20801H76.0245V12.5156H74.9073V3.44922H76.0245V7.24121H76.9698V3.24512H78.1084Z" fill="#FF7A00" fill-opacity="0.3"/>
<path d="M126.144 4.17969V5.125H120.387V4.17969H122.675V3.20215H123.867V4.17969H126.144ZM123.266 5.50098C124.673 5.50098 125.629 6.20996 125.64 7.27344C125.629 8.33691 124.673 9.0459 123.266 9.0459C121.858 9.0459 120.881 8.33691 120.881 7.27344C120.881 6.20996 121.858 5.50098 123.266 5.50098ZM123.266 6.40332C122.524 6.40332 122.041 6.72559 122.041 7.27344C122.041 7.82129 122.524 8.13281 123.266 8.12207C124.007 8.13281 124.501 7.82129 124.501 7.27344C124.501 6.72559 124.007 6.40332 123.266 6.40332ZM128.035 3.24512V5.82324H129.389V6.80078H128.035V9.3252H126.843V3.24512H128.035ZM128.035 9.77637V12.9561H126.843V10.7324H121.568V9.77637H128.035ZM132.007 9.06738V9.99121H136.282V9.06738H137.475V12.8379H130.825V9.06738H132.007ZM132.007 11.8926H136.282V10.9043H132.007V11.8926ZM138.613 7.54199V8.51953H129.762V7.54199H138.613ZM134.8 3.71777C134.8 4.75977 136.132 5.85547 138.141 6.0918L137.722 7.03711C136.094 6.81689 134.811 6.09717 134.188 5.11426C133.559 6.10254 132.27 6.81689 130.653 7.03711L130.213 6.0918C132.243 5.84473 133.564 4.79199 133.575 3.71777V3.35254H134.8V3.71777Z" fill="#FF7A00"/>
<path d="M183.33 3.71777C184.737 3.71777 185.726 4.49121 185.736 5.64062C185.726 6.61816 184.984 7.33252 183.867 7.50977V8.36914C184.716 8.3208 185.575 8.24023 186.37 8.12207L186.445 8.87402C184.426 9.23926 182.159 9.27686 180.505 9.27148L180.397 8.44434C181.117 8.44971 181.96 8.44434 182.847 8.41211V7.52051C181.697 7.35938 180.929 6.63428 180.935 5.64062C180.929 4.49121 181.917 3.71777 183.33 3.71777ZM181.762 12.709V10.0127H182.782V11.8711H188.325V12.709H181.762ZM181.891 5.64062C181.88 6.32275 182.481 6.76855 183.33 6.76855C184.184 6.76855 184.769 6.32275 184.769 5.64062C184.769 4.94238 184.184 4.50195 183.33 4.50195C182.481 4.50195 181.88 4.94238 181.891 5.64062ZM186.961 10.6572V3.29883H187.981V6.47852H189.356V7.33789H187.981V10.6572H186.961ZM193.21 4.72754C193.205 6.07568 194.08 7.27881 195.541 7.75684L194.982 8.55176C193.924 8.16504 193.146 7.42383 192.727 6.45703C192.313 7.55811 191.475 8.42285 190.31 8.8418L189.762 8.02539C191.298 7.49902 192.189 6.21533 192.2 4.77051V3.8252H193.21V4.72754ZM191.341 11.0762C191.335 9.91064 192.571 9.23389 194.596 9.23926C196.61 9.23389 197.845 9.91064 197.851 11.0762C197.845 12.2363 196.61 12.897 194.596 12.8916C192.571 12.897 191.335 12.2363 191.341 11.0762ZM192.351 11.0762C192.345 11.7153 193.183 12.0913 194.596 12.0859C195.998 12.0913 196.835 11.7153 196.841 11.0762C196.835 10.4155 195.998 10.0342 194.596 10.0342C193.183 10.0342 192.345 10.4155 192.351 11.0762ZM194.768 6.08105V5.24316H196.798V3.28809H197.818V8.9707H196.798V6.08105H194.768Z" fill="#FF7A00" fill-opacity="0.3"/>
</svg>
