<svg width="324" height="132" viewBox="0 0 324 132" fill="none" xmlns="http://www.w3.org/2000/svg">
<rect width="324" height="132" rx="10" fill="white"/>
<path d="M77.942 36.0673L67.942 46.0673C67.884 46.1254 67.8151 46.1715 67.7392 46.203C67.6633 46.2344 67.582 46.2506 67.4999 46.2506C67.4177 46.2506 67.3364 46.2344 67.2605 46.203C67.1846 46.1715 67.1157 46.1254 67.0577 46.0673L62.6827 41.6923C62.5654 41.575 62.4995 41.416 62.4995 41.2501C62.4995 41.0843 62.5654 40.9252 62.6827 40.8079C62.7999 40.6906 62.959 40.6248 63.1249 40.6248C63.2907 40.6248 63.4498 40.6906 63.567 40.8079L67.4999 44.7415L77.0577 35.1829C77.1749 35.0656 77.334 34.9998 77.4999 34.9998C77.6657 34.9998 77.8248 35.0656 77.942 35.1829C78.0593 35.3002 78.1252 35.4593 78.1252 35.6251C78.1252 35.791 78.0593 35.95 77.942 36.0673Z" fill="#FF7A00"/>
<path d="M88.2275 46.127C87.5758 46.127 86.9792 45.9852 86.4375 45.7017C85.8958 45.4139 85.4578 44.9378 85.1235 44.2734C84.7892 43.609 84.6221 42.7373 84.6221 41.6582C84.6221 40.6214 84.7702 39.7306 85.0664 38.9858C85.3669 38.2368 85.7943 37.6655 86.3486 37.272C86.903 36.8784 87.5547 36.6816 88.3037 36.6816C88.8792 36.6816 89.3976 36.7938 89.8589 37.0181C90.3201 37.2424 90.6904 37.5513 90.9697 37.9448C91.2533 38.3384 91.431 38.7848 91.5029 39.2842H89.8652C89.7806 38.9245 89.6007 38.6388 89.3257 38.4272C89.0549 38.2157 88.7142 38.112 88.3037 38.1162C87.8636 38.1162 87.487 38.241 87.1738 38.4907C86.8649 38.7362 86.63 39.0916 86.4692 39.5571C86.3084 40.0226 86.2259 40.5791 86.2217 41.2266H86.3105C86.5475 40.8288 86.8734 40.5199 87.2881 40.2998C87.707 40.0755 88.1683 39.9655 88.6719 39.9697C89.2178 39.9697 89.7129 40.0967 90.1572 40.3506C90.6016 40.6045 90.9507 40.96 91.2046 41.417C91.4627 41.8698 91.5918 42.3818 91.5918 42.9531C91.5918 43.5583 91.4521 44.1021 91.1729 44.5845C90.8936 45.0627 90.4979 45.4393 89.9858 45.7144C89.4738 45.9894 88.8877 46.127 88.2275 46.127ZM86.3994 43.0039C86.4036 43.3213 86.484 43.6175 86.6406 43.8926C86.7972 44.1634 87.0109 44.3813 87.2817 44.5464C87.5568 44.7114 87.8636 44.7939 88.2021 44.7939C88.5365 44.7939 88.839 44.7135 89.1099 44.5527C89.3849 44.3919 89.6007 44.1761 89.7573 43.9053C89.9139 43.6302 89.9922 43.3255 89.9922 42.9912C89.9922 42.6696 89.9139 42.3734 89.7573 42.1025C89.605 41.8317 89.3955 41.618 89.1289 41.4614C88.8623 41.3049 88.5618 41.2266 88.2275 41.2266C87.889 41.2266 87.5801 41.307 87.3008 41.4678C87.0257 41.6286 86.8078 41.8465 86.647 42.1216C86.4862 42.3924 86.4036 42.6865 86.3994 43.0039ZM102.23 42.3564H100.809V41.8867H98.6631V41.0234H100.809V35.666H102.23V42.3564ZM92.5947 39.8047C94.0505 39.8047 95.3813 39.7878 96.5874 39.7539C97.7977 39.7201 98.9508 39.6481 100.047 39.5381L100.123 40.4268C99.0863 40.5664 98.0241 40.6616 96.9365 40.7124V42.3691H95.54V40.7695C94.8757 40.7865 94.152 40.7949 93.3691 40.7949H92.7471L92.5947 39.8047ZM93.4072 37.5703C93.4072 37.2275 93.5257 36.9271 93.7627 36.6689C94.0039 36.4066 94.3424 36.2035 94.7783 36.0596C95.2184 35.9157 95.7262 35.8438 96.3018 35.8438C96.8646 35.8438 97.3618 35.9157 97.7935 36.0596C98.2293 36.2035 98.5679 36.4066 98.8091 36.6689C99.0503 36.9271 99.1709 37.2275 99.1709 37.5703C99.1709 37.9215 99.0503 38.2262 98.8091 38.4844C98.5679 38.7425 98.2314 38.9414 97.7998 39.0811C97.3682 39.2165 96.8688 39.2842 96.3018 39.2842C95.722 39.2842 95.2142 39.2165 94.7783 39.0811C94.3424 38.9414 94.0039 38.7425 93.7627 38.4844C93.5257 38.2262 93.4072 37.9215 93.4072 37.5703ZM94.2705 42.7119H102.23V45.2891H95.7051V46.0254H102.535V47.0283H94.3213V44.3623H100.834V43.6768H94.2705V42.7119ZM94.7529 37.5703C94.7445 37.8073 94.8757 37.9956 95.1465 38.1353C95.4215 38.2749 95.7961 38.3447 96.27 38.3447C96.7567 38.3447 97.1418 38.277 97.4253 38.1416C97.7088 38.002 97.8506 37.8115 97.8506 37.5703C97.8506 37.3333 97.7131 37.1429 97.438 36.999C97.1629 36.8551 96.7926 36.7832 96.3271 36.7832C95.8363 36.7832 95.4491 36.853 95.1655 36.9927C94.8862 37.1323 94.7487 37.3249 94.7529 37.5703ZM107.562 36.4531C108.163 36.4531 108.703 36.5716 109.181 36.8086C109.659 37.0413 110.034 37.3693 110.305 37.7925C110.58 38.2114 110.719 38.6875 110.724 39.2207C110.719 39.7581 110.58 40.2384 110.305 40.6616C110.034 41.0806 109.659 41.4085 109.181 41.6455C108.703 41.8825 108.163 42.001 107.562 42.001C106.966 42.001 106.426 41.8825 105.944 41.6455C105.466 41.4085 105.091 41.0785 104.82 40.6553C104.549 40.2321 104.414 39.7539 104.414 39.2207C104.414 38.6875 104.549 38.2114 104.82 37.7925C105.095 37.3693 105.472 37.0413 105.95 36.8086C106.428 36.5716 106.966 36.4531 107.562 36.4531ZM103.894 43.5879C105.299 43.5879 106.61 43.5646 107.829 43.5181C109.048 43.4673 110.207 43.3636 111.308 43.207L111.422 44.2354C110.288 44.4512 109.13 44.5908 107.95 44.6543C106.773 44.7135 105.48 44.7432 104.071 44.7432L103.894 43.5879ZM105.811 39.2207C105.811 39.5339 105.885 39.8089 106.033 40.0459C106.185 40.2786 106.395 40.4585 106.661 40.5854C106.928 40.7082 107.228 40.7695 107.562 40.7695C107.901 40.7695 108.204 40.7082 108.47 40.5854C108.741 40.4585 108.953 40.2786 109.105 40.0459C109.262 39.8089 109.34 39.5339 109.34 39.2207C109.34 38.9076 109.262 38.6346 109.105 38.4019C108.953 38.1691 108.741 37.9893 108.47 37.8623C108.204 37.7354 107.901 37.6719 107.562 37.6719C107.228 37.6719 106.928 37.7354 106.661 37.8623C106.395 37.9893 106.185 38.1712 106.033 38.4082C105.885 38.641 105.811 38.9118 105.811 39.2207ZM111.993 35.6533H113.402V47.1426H111.993V35.6533ZM122.276 46H120.613V38.4209H120.562L118.417 39.792V38.2812L120.689 36.8086H122.276V46ZM133.74 44.1338H132.331V39.9062H130.021V42.2676H124.65V36.415H126.06V38.2686H128.624V36.415H130.021V38.7637H132.331V35.666H133.74V44.1338ZM128.624 41.1504V39.3604H126.06V41.1504H128.624ZM126.174 43.2959H127.608V45.7588H133.994V46.9014H126.174V43.2959ZM145.458 47.1299H144.112V41.3408H143.186V46.5713H141.878V43.5498L141.104 44.4893C140.515 44.0111 140.084 43.279 139.809 42.293C139.55 43.334 139.11 44.1084 138.488 44.6162C137.866 44.0957 137.426 43.3171 137.168 42.2803C136.901 43.2705 136.474 44.0068 135.886 44.4893L135.086 43.5371C135.678 43.0589 136.072 42.422 136.267 41.6265C136.465 40.8309 136.563 39.9359 136.559 38.9414V38.1035H135.492V36.9736H138.349V38.1035H137.79V38.9414V39.2207C137.79 39.8936 137.837 40.5326 137.93 41.1377C138.027 41.7386 138.215 42.2845 138.495 42.7754C138.702 42.4115 138.856 42.0137 138.958 41.582C139.06 41.1462 139.123 40.7293 139.148 40.3315C139.178 39.9295 139.195 39.4661 139.199 38.9414V38.1035H138.641V36.9736H141.357V38.1035H140.418V38.9414C140.41 39.9274 140.505 40.8182 140.704 41.6138C140.903 42.4093 141.294 43.0462 141.878 43.5244V35.8564H143.186V40.1855H144.112V35.6533H145.458V47.1299ZM156.503 37.875H149.698V36.7578H152.402V35.6025H153.812V36.7578H156.503V37.875ZM150.282 40.4141C150.282 39.9993 150.401 39.6333 150.638 39.3159C150.879 38.9985 151.213 38.7531 151.641 38.5796C152.068 38.4061 152.555 38.3193 153.101 38.3193C153.646 38.3193 154.131 38.4061 154.554 38.5796C154.982 38.7531 155.314 38.9985 155.551 39.3159C155.788 39.6333 155.906 39.9993 155.906 40.4141C155.906 40.8288 155.788 41.1948 155.551 41.5122C155.314 41.8296 154.982 42.075 154.554 42.2485C154.131 42.422 153.646 42.5088 153.101 42.5088C152.555 42.5088 152.068 42.422 151.641 42.2485C151.213 42.075 150.879 41.8296 150.638 41.5122C150.401 41.1948 150.282 40.8288 150.282 40.4141ZM151.095 43.3721H158.737V47.1299H157.328V44.502H151.095V43.3721ZM151.653 40.4141C151.649 40.7314 151.776 40.979 152.034 41.1567C152.292 41.3302 152.639 41.417 153.075 41.417C153.528 41.417 153.888 41.3302 154.154 41.1567C154.425 40.9832 154.561 40.7357 154.561 40.4141C154.561 40.0924 154.427 39.8407 154.161 39.6587C153.894 39.4767 153.541 39.3857 153.101 39.3857C152.66 39.3857 152.307 39.4767 152.041 39.6587C151.778 39.8407 151.649 40.0924 151.653 40.4141ZM157.328 35.6533H158.737V38.7002H160.337V39.8555H158.737V42.8389H157.328V35.6533ZM163.574 43.626H168.627V42.5342H170.036V46.9902H162.178V42.5342H163.574V43.626ZM160.921 40.7314H171.382V41.8867H160.921V40.7314ZM161.454 39.0176C162.233 38.9202 162.923 38.7319 163.523 38.4526C164.129 38.1733 164.596 37.8369 164.926 37.4434C165.256 37.0498 165.424 36.6393 165.428 36.2119V35.7803H166.875V36.2119C166.875 36.6266 167.04 37.0329 167.37 37.4307C167.704 37.8285 168.172 38.1712 168.773 38.459C169.374 38.7425 170.057 38.9287 170.823 39.0176L170.328 40.1348C169.376 40.0078 168.534 39.7433 167.802 39.3413C167.074 38.9393 166.524 38.4442 166.151 37.856C165.779 38.4442 165.227 38.9393 164.495 39.3413C163.763 39.7391 162.923 40.0036 161.975 40.1348L161.454 39.0176ZM168.627 45.873V44.7051H163.574V45.873H168.627ZM178.707 36.1484C179.261 36.1484 179.757 36.2458 180.192 36.4404C180.628 36.6351 180.969 36.908 181.214 37.2593C181.46 37.6063 181.585 38.0062 181.589 38.459C181.585 38.8356 181.492 39.1784 181.31 39.4873C181.132 39.7962 180.882 40.0565 180.561 40.2681C180.239 40.4754 179.867 40.6172 179.443 40.6934V41.6201C180.518 41.5566 181.453 41.4678 182.249 41.3535L182.363 42.3818C181.339 42.5638 180.264 42.6886 179.139 42.7563C178.013 42.8198 176.854 42.8516 175.66 42.8516H175.368L175.216 41.7217C176.274 41.7217 177.209 41.709 178.021 41.6836V40.6997C177.586 40.6278 177.203 40.4881 176.873 40.2808C176.542 40.0734 176.286 39.8132 176.104 39.5C175.927 39.1868 175.838 38.8398 175.838 38.459C175.838 38.0062 175.958 37.6063 176.2 37.2593C176.445 36.908 176.786 36.6351 177.222 36.4404C177.658 36.2458 178.153 36.1484 178.707 36.1484ZM176.79 43.6514H178.199V45.7461H184.737V46.8887H176.79V43.6514ZM177.158 38.459C177.154 38.7044 177.217 38.9202 177.349 39.1064C177.48 39.2926 177.662 39.4365 177.895 39.5381C178.132 39.6396 178.402 39.6904 178.707 39.6904C179.173 39.6862 179.545 39.5741 179.824 39.354C180.108 39.134 180.252 38.8356 180.256 38.459C180.252 38.0781 180.108 37.7777 179.824 37.5576C179.545 37.3376 179.173 37.2275 178.707 37.2275C178.402 37.2275 178.132 37.2762 177.895 37.3735C177.662 37.4709 177.48 37.6126 177.349 37.7988C177.217 37.985 177.154 38.2051 177.158 38.459ZM182.922 35.666H184.331V39.373H185.88V40.541H184.331V44.4258H182.922V35.666ZM196.963 45.7969H186.477V44.6289H189.257V42.7373H187.721V38.9922H194.322V37.583H187.695V36.4404H195.719V40.1221H189.13V41.5947H195.985V42.7373H194.31V44.6289H196.963V45.7969ZM192.926 44.6289V42.7373H190.628V44.6289H192.926Z" fill="black"/>
<path d="M77.942 62.0673L67.942 72.0673C67.884 72.1254 67.8151 72.1715 67.7392 72.203C67.6633 72.2344 67.582 72.2506 67.4999 72.2506C67.4177 72.2506 67.3364 72.2344 67.2605 72.203C67.1846 72.1715 67.1157 72.1254 67.0577 72.0673L62.6827 67.6923C62.5654 67.575 62.4995 67.416 62.4995 67.2501C62.4995 67.0843 62.5654 66.9252 62.6827 66.8079C62.7999 66.6906 62.959 66.6248 63.1249 66.6248C63.2907 66.6248 63.4498 66.6906 63.567 66.8079L67.4999 70.7415L77.0577 61.1829C77.1749 61.0656 77.334 60.9998 77.4999 60.9998C77.6657 60.9998 77.8248 61.0656 77.942 61.1829C78.0593 61.3002 78.1252 61.4593 78.1252 61.6251C78.1252 61.791 78.0593 61.95 77.942 62.0673Z" fill="#FF7A00"/>
<path d="M84.7617 72V70.8066L88.0117 67.6709C88.9385 66.7441 89.4209 66.1982 89.4209 65.4238C89.4209 64.5732 88.748 64.0273 87.8467 64.0273C86.8945 64.0273 86.2852 64.624 86.2979 65.5508H84.7236C84.7109 63.8115 86.0186 62.6816 87.8594 62.6816C89.7383 62.6816 91.0078 63.7988 91.0078 65.3477C91.0078 66.3887 90.5 67.2266 88.6973 68.9277L87.0596 70.5527V70.6162H91.1475V72H84.7617ZM95.9844 72.127C93.7754 72.127 92.4551 70.4131 92.4551 67.4043C92.4551 64.4082 93.7754 62.6816 95.9844 62.6816C98.1807 62.6816 99.5137 64.4082 99.5137 67.4043C99.5137 70.4131 98.1934 72.127 95.9844 72.127ZM95.9844 70.7432C97.1396 70.7432 97.8506 69.6133 97.8506 67.4043C97.8506 65.208 97.127 64.0527 95.9844 64.0527C94.8418 64.0527 94.1182 65.208 94.1182 67.4043C94.1182 69.6133 94.8291 70.7432 95.9844 70.7432ZM100.897 72V70.8066L104.147 67.6709C105.074 66.7441 105.557 66.1982 105.557 65.4238C105.557 64.5732 104.884 64.0273 103.982 64.0273C103.03 64.0273 102.421 64.624 102.434 65.5508H100.859C100.847 63.8115 102.154 62.6816 103.995 62.6816C105.874 62.6816 107.144 63.7988 107.144 65.3477C107.144 66.3887 106.636 67.2266 104.833 68.9277L103.195 70.5527V70.6162H107.283V72H100.897ZM108.362 70.2861V68.9658L112.336 62.8086H114.393V68.9277H115.599V70.2861H114.393V72H112.818V70.2861H108.362ZM110.051 68.9277H112.844V64.6875H112.742L110.051 68.8643V68.9277ZM126.148 61.666V70.1211H124.739V66.2998H121.743V65.1826H124.739V64.1416H121.743V63.0244H124.739V61.666H126.148ZM126.44 71.7588V72.9014H118.607V69.3721H120.029V71.7588H126.44ZM118.595 62.4277V67.3916C120.055 67.3726 121.432 67.2837 122.975 67.0107L123.114 68.1533C121.35 68.4834 119.801 68.5469 118.1 68.5596H117.198V62.4277H118.595ZM131.493 62.4531C133.309 62.4404 134.642 63.5957 134.654 65.2207C134.642 66.8584 133.309 68.001 131.493 68.001C129.69 68.001 128.345 66.8584 128.345 65.2207C128.345 63.5957 129.69 62.4404 131.493 62.4531ZM131.493 63.6719C130.49 63.6719 129.741 64.2686 129.741 65.2207C129.741 66.1855 130.49 66.7695 131.493 66.7695C132.509 66.7695 133.271 66.1855 133.271 65.2207C133.271 64.2686 132.509 63.6719 131.493 63.6719ZM137.333 61.6533V73.1426H135.924V61.6533H137.333ZM127.824 69.5879C129.894 69.5879 132.763 69.5625 135.238 69.207L135.353 70.2354C132.775 70.7305 130.021 70.7432 128.002 70.7432L127.824 69.5879ZM146.207 62.8086V72H144.544V64.4209H144.493L142.348 65.792V64.2812L144.62 62.8086H146.207ZM151.831 72.127C149.622 72.127 148.302 70.4131 148.302 67.4043C148.302 64.4082 149.622 62.6816 151.831 62.6816C154.027 62.6816 155.36 64.4082 155.36 67.4043C155.36 70.4131 154.04 72.127 151.831 72.127ZM151.831 70.7432C152.986 70.7432 153.697 69.6133 153.697 67.4043C153.697 65.208 152.974 64.0527 151.831 64.0527C150.688 64.0527 149.965 65.208 149.965 67.4043C149.965 69.6133 150.676 70.7432 151.831 70.7432ZM160.083 72.127C158.039 72.127 156.592 71.0352 156.592 69.5371C156.592 68.3691 157.455 67.417 158.56 67.2393V67.1885C157.595 66.9854 156.935 66.1475 156.935 65.1445C156.935 63.7227 158.268 62.6816 160.083 62.6816C161.886 62.6816 163.219 63.7227 163.219 65.1445C163.219 66.1475 162.546 66.9854 161.594 67.1885V67.2393C162.698 67.417 163.574 68.3691 163.574 69.5371C163.574 71.0352 162.114 72.127 160.083 72.127ZM160.083 70.8193C161.162 70.8193 161.873 70.2354 161.873 69.3848C161.873 68.5215 161.111 67.8867 160.083 67.8867C159.042 67.8867 158.28 68.5215 158.293 69.3848C158.28 70.2354 158.991 70.8193 160.083 70.8193ZM160.083 66.6553C160.972 66.6553 161.606 66.0967 161.606 65.2969C161.606 64.5225 160.984 63.9766 160.083 63.9766C159.169 63.9766 158.547 64.5098 158.547 65.2969C158.547 66.0967 159.182 66.6553 160.083 66.6553ZM174.175 61.666V70.1338H172.766V65.9062H170.455V68.2676H165.085V62.415H166.494V64.2686H169.059V62.415H170.455V64.7637H172.766V61.666H174.175ZM174.429 71.7588V72.9014H166.608V69.2959H168.043V71.7588H174.429ZM166.494 67.1504H169.059V65.3604H166.494V67.1504ZM185.893 61.6533V73.1299H184.547V67.3408H183.62V72.5713H182.312V69.5498L181.538 70.4893C180.891 69.9624 180.491 69.1753 180.243 68.293C180.015 69.2134 179.615 70.0513 178.923 70.6162C178.231 70.0449 177.831 69.1943 177.603 68.2676C177.361 69.1626 176.968 69.9561 176.32 70.4893L175.521 69.5371C176.841 68.4707 176.993 66.4902 176.993 64.9414V64.1035H175.927V62.9736H178.783V64.1035H178.225V64.9414C178.212 66.0142 178.25 67.5757 178.936 68.7754C179.596 67.6011 179.621 66.0903 179.634 64.9414V64.1035H179.075V62.9736H181.792V64.1035H180.853V64.9414C180.84 66.5093 181.018 68.458 182.312 69.5244V61.8564H183.62V66.1855H184.547V61.6533H185.893ZM196.938 62.7578V63.875H190.133V62.7578H192.837V61.6025H194.246V62.7578H196.938ZM193.535 64.3193C195.198 64.3193 196.328 65.1572 196.341 66.4141C196.328 67.6709 195.198 68.5088 193.535 68.5088C191.872 68.5088 190.717 67.6709 190.717 66.4141C190.717 65.1572 191.872 64.3193 193.535 64.3193ZM193.535 65.3857C192.659 65.3857 192.088 65.7666 192.088 66.4141C192.088 67.0615 192.659 67.4297 193.535 67.417C194.411 67.4297 194.995 67.0615 194.995 66.4141C194.995 65.7666 194.411 65.3857 193.535 65.3857ZM199.172 61.6533V64.7002H200.771V65.8555H199.172V68.8389H197.763V61.6533H199.172ZM199.172 69.3721V73.1299H197.763V70.502H191.529V69.3721H199.172ZM204.009 68.5342V69.626H209.062V68.5342H210.471V72.9902H202.612V68.5342H204.009ZM204.009 71.873H209.062V70.7051H204.009V71.873ZM211.816 66.7314V67.8867H201.355V66.7314H211.816ZM207.31 62.2119C207.31 63.4434 208.884 64.7383 211.258 65.0176L210.763 66.1348C208.839 65.8745 207.322 65.0239 206.586 63.8623C205.843 65.0303 204.32 65.8745 202.409 66.1348L201.889 65.0176C204.288 64.7256 205.85 63.4814 205.862 62.2119V61.7803H207.31V62.2119ZM219.142 62.1484C220.817 62.1484 222.011 63.0752 222.023 64.459C222.011 65.5952 221.154 66.4521 219.878 66.6934V67.6201C220.83 67.5693 221.789 67.4805 222.684 67.3535L222.798 68.3818C220.411 68.8135 217.745 68.8516 215.803 68.8516L215.65 67.7217C216.476 67.728 217.44 67.7217 218.456 67.6836V66.6934C217.142 66.4775 216.26 65.6143 216.272 64.459C216.26 63.0752 217.453 62.1484 219.142 62.1484ZM219.142 63.2275C218.228 63.2275 217.58 63.6846 217.593 64.459C217.58 65.208 218.228 65.6777 219.142 65.6904C220.056 65.6777 220.678 65.208 220.69 64.459C220.678 63.6846 220.056 63.2275 219.142 63.2275ZM224.766 61.666V65.373H226.314V66.541H224.766V70.4258H223.356V61.666H224.766ZM225.172 71.7461V72.8887H217.225V69.6514H218.634V71.7461H225.172ZM237.397 70.6289V71.7969H226.911V70.6289H229.691V68.7373H228.155V64.9922H234.757V63.583H228.13V62.4404H236.153V66.1221H229.564V67.5947H236.42V68.7373H234.744V70.6289H237.397ZM231.062 70.6289H233.36V68.7373H231.062V70.6289Z" fill="black"/>
<path d="M77.942 88.0673L67.942 98.0673C67.884 98.1254 67.8151 98.1715 67.7392 98.203C67.6633 98.2344 67.582 98.2506 67.4999 98.2506C67.4177 98.2506 67.3364 98.2344 67.2605 98.203C67.1846 98.1715 67.1157 98.1254 67.0577 98.0673L62.6827 93.6923C62.5654 93.575 62.4995 93.416 62.4995 93.2501C62.4995 93.0843 62.5654 92.9252 62.6827 92.8079C62.7999 92.6906 62.959 92.6248 63.1249 92.6248C63.2907 92.6248 63.4498 92.6906 63.567 92.8079L67.4999 96.7415L77.0577 87.1829C77.1749 87.0656 77.334 86.9998 77.4999 86.9998C77.6657 86.9998 77.8248 87.0656 77.942 87.1829C78.0593 87.3002 78.1252 87.4593 78.1252 87.6251C78.1252 87.791 78.0593 87.95 77.942 88.0673Z" fill="#FF7A00"/>
<path d="M93.4707 87.666V91.0049H95.0195V92.1729H93.4707V95.4229H92.0615V87.666H93.4707ZM84.2793 94.0518C85.1426 94.0518 86.1392 94.0454 87.1738 94.0137V93.3154C85.8979 93.1567 85.0918 92.541 85.0918 91.6396C85.0918 90.5859 86.1963 89.9258 87.8594 89.9385C89.5352 89.9258 90.627 90.5859 90.627 91.6396C90.627 92.5347 89.8398 93.144 88.583 93.3027V93.9629C89.5605 93.9185 90.5444 93.8423 91.4648 93.7217L91.5791 94.6992C89.1289 95.1309 86.4502 95.1562 84.4316 95.1562L84.2793 94.0518ZM93.4707 95.918V99.1299H92.0615V97.0225H85.7266V95.918H93.4707ZM91.1602 88.5674V89.6084H84.5713V88.5674H87.1738V87.5645H88.583V88.5674H91.1602ZM87.8594 90.8906C86.9707 90.8779 86.4375 91.1445 86.4502 91.6396C86.4375 92.1094 86.9707 92.4141 87.8594 92.4014C88.748 92.4141 89.2812 92.1094 89.2812 91.6396C89.2812 91.1445 88.748 90.8779 87.8594 90.8906ZM106.09 92.7822V93.8359H103.424V94.623H104.82V97.2383H98.2441V98.0508H105.163V99.0283H96.835V96.3242H103.424V95.6133H96.8223V94.623H98.2822V93.8359H95.6035V92.7822H106.09ZM104.795 87.9072V90.4844H98.333V91.1826H104.998V92.1602H96.9365V89.5703H103.386V88.8721H96.8984V87.9072H104.795ZM99.6787 94.623H102.027V93.8359H99.6787V94.623ZM113.263 88.8467V89.6592C113.263 90.6875 113.263 92.1221 112.945 94.1025L111.549 93.9883C111.822 92.249 111.854 90.9668 111.866 89.9766H107.359V88.8467H113.263ZM110.368 92.1221V95.5117C111.536 95.4673 112.736 95.3848 113.834 95.2451L113.91 96.2988C111.536 96.6797 108.908 96.7305 106.89 96.7178L106.75 95.5879C107.429 95.5815 108.185 95.5752 108.972 95.5498V92.1221H110.368ZM115.853 87.6533V92.3252H117.516V93.5186H115.853V99.1299H114.431V87.6533H115.853ZM131.633 93.6201V94.7373H121.146V93.6201H125.679V92.7695H122.492V87.958H130.376V89.0498H123.901V89.8369H130.097V90.8779H123.901V91.6904H130.465V92.7695H127.088V93.6201H131.633ZM126.39 95.3721C128.916 95.3721 130.351 96.0449 130.363 97.2383C130.351 98.4697 128.916 99.1172 126.39 99.1172C123.825 99.1172 122.391 98.4697 122.391 97.2383C122.391 96.0449 123.825 95.3721 126.39 95.3721ZM126.39 96.4258C124.663 96.4258 123.8 96.6924 123.8 97.2383C123.8 97.7969 124.663 98.0635 126.39 98.0635C128.091 98.0635 128.941 97.7969 128.954 97.2383C128.941 96.6924 128.091 96.4258 126.39 96.4258ZM142.31 87.6533V99.1299H140.964V87.6533H142.31ZM139.936 87.9326V98.584H138.59V94.75H136.8V93.5947H138.59V91.8936H137.003C136.463 93.7979 135.264 95.4355 133.118 96.7051L132.293 95.7021C134.673 94.2993 135.765 92.5029 135.975 90.1924H132.902V89.0498H137.371C137.371 89.6274 137.333 90.1924 137.257 90.7383H138.59V87.9326H139.936ZM153.139 88.8467V89.6592C153.139 90.6875 153.139 92.1221 152.821 94.1025L151.425 93.9883C151.698 92.249 151.729 90.9668 151.742 89.9766H147.235V88.8467H153.139ZM150.244 92.1221V95.5117C151.412 95.4673 152.612 95.3848 153.71 95.2451L153.786 96.2988C151.412 96.6797 148.784 96.7305 146.766 96.7178L146.626 95.5879C147.305 95.5815 148.061 95.5752 148.848 95.5498V92.1221H150.244ZM155.729 87.6533V92.3252H157.392V93.5186H155.729V99.1299H154.307V87.6533H155.729ZM167.091 88.123V92.1094H163.892V93.3154H168.424V94.458H157.963V93.3154H162.47V92.1094H159.283V88.123H167.091ZM160.654 89.2275V90.9922H165.694V89.2275H160.654ZM167.142 95.4229V99.1299H165.732V96.54H159.118V95.4229H167.142ZM175.927 98.127C174.086 98.127 172.74 97.0352 172.689 95.5117H174.302C174.353 96.2607 175.051 96.7939 175.927 96.7939C176.955 96.7939 177.691 96.0449 177.691 95.0293C177.691 93.9756 176.93 93.2266 175.876 93.2266C175.165 93.2139 174.645 93.4678 174.353 94.0137H172.816L173.375 88.8086H178.809V90.1924H174.733L174.454 92.6299H174.543C174.898 92.2236 175.571 91.9316 176.32 91.9316C178.034 91.9316 179.291 93.2139 179.291 94.9785C179.291 96.8193 177.907 98.127 175.927 98.127ZM181.03 98L185.017 90.2559V90.1924H180.396V88.8086H186.73V90.2178L182.744 98H181.03ZM197.293 87.666V96.1338H195.884V91.9062H193.573V94.2676H188.203V88.415H189.612V90.2686H192.177V88.415H193.573V90.7637H195.884V87.666H197.293ZM197.547 97.7588V98.9014H189.727V95.2959H191.161V97.7588H197.547ZM189.612 93.1504H192.177V91.3604H189.612V93.1504ZM209.011 87.6533V99.1299H207.665V93.3408H206.738V98.5713H205.431V95.5498L204.656 96.4893C204.009 95.9624 203.609 95.1753 203.361 94.293C203.133 95.2134 202.733 96.0513 202.041 96.6162C201.349 96.0449 200.949 95.1943 200.721 94.2676C200.479 95.1626 200.086 95.9561 199.438 96.4893L198.639 95.5371C199.959 94.4707 200.111 92.4902 200.111 90.9414V90.1035H199.045V88.9736H201.901V90.1035H201.343V90.9414C201.33 92.0142 201.368 93.5757 202.054 94.7754C202.714 93.6011 202.739 92.0903 202.752 90.9414V90.1035H202.193V88.9736H204.91V90.1035H203.971V90.9414C203.958 92.5093 204.136 94.458 205.431 95.5244V87.8564H206.738V92.1855H207.665V87.6533H209.011ZM220.056 88.7578V89.875H213.251V88.7578H215.955V87.6025H217.364V88.7578H220.056ZM216.653 90.3193C218.316 90.3193 219.446 91.1572 219.459 92.4141C219.446 93.6709 218.316 94.5088 216.653 94.5088C214.99 94.5088 213.835 93.6709 213.835 92.4141C213.835 91.1572 214.99 90.3193 216.653 90.3193ZM216.653 91.3857C215.777 91.3857 215.206 91.7666 215.206 92.4141C215.206 93.0615 215.777 93.4297 216.653 93.417C217.529 93.4297 218.113 93.0615 218.113 92.4141C218.113 91.7666 217.529 91.3857 216.653 91.3857ZM222.29 87.6533V90.7002H223.89V91.8555H222.29V94.8389H220.881V87.6533H222.29ZM222.29 95.3721V99.1299H220.881V96.502H214.647V95.3721H222.29ZM227.127 94.5342V95.626H232.18V94.5342H233.589V98.9902H225.73V94.5342H227.127ZM227.127 97.873H232.18V96.7051H227.127V97.873ZM234.935 92.7314V93.8867H224.474V92.7314H234.935ZM230.428 88.2119C230.428 89.4434 232.002 90.7383 234.376 91.0176L233.881 92.1348C231.958 91.8745 230.44 91.0239 229.704 89.8623C228.961 91.0303 227.438 91.8745 225.527 92.1348L225.007 91.0176C227.406 90.7256 228.968 89.4814 228.98 88.2119V87.7803H230.428V88.2119ZM242.26 88.1484C243.936 88.1484 245.129 89.0752 245.142 90.459C245.129 91.5952 244.272 92.4521 242.996 92.6934V93.6201C243.948 93.5693 244.907 93.4805 245.802 93.3535L245.916 94.3818C243.529 94.8135 240.863 94.8516 238.921 94.8516L238.769 93.7217C239.594 93.728 240.559 93.7217 241.574 93.6836V92.6934C240.26 92.4775 239.378 91.6143 239.391 90.459C239.378 89.0752 240.571 88.1484 242.26 88.1484ZM242.26 89.2275C241.346 89.2275 240.698 89.6846 240.711 90.459C240.698 91.208 241.346 91.6777 242.26 91.6904C243.174 91.6777 243.796 91.208 243.809 90.459C243.796 89.6846 243.174 89.2275 242.26 89.2275ZM247.884 87.666V91.373H249.433V92.541H247.884V96.4258H246.475V87.666H247.884ZM248.29 97.7461V98.8887H240.343V95.6514H241.752V97.7461H248.29ZM260.516 96.6289V97.7969H250.029V96.6289H252.81V94.7373H251.273V90.9922H257.875V89.583H251.248V88.4404H259.271V92.1221H252.683V93.5947H259.538V94.7373H257.862V96.6289H260.516ZM254.181 96.6289H256.479V94.7373H254.181V96.6289Z" fill="black"/>
</svg>
