<svg width="199" height="27" viewBox="0 0 199 27" fill="none" xmlns="http://www.w3.org/2000/svg">
<circle cx="10" cy="22" r="4.5" fill="#FF7A00" stroke="#FF7A00"/>
<line x1="15" y1="21.5" x2="65" y2="21.5" stroke="#FF7A00"/>
<circle cx="70" cy="22" r="4.5" stroke="#FF7A00"/>
<line x1="75" y1="21.5" x2="125" y2="21.5" stroke="#FF7A00" stroke-opacity="0.2"/>
<circle cx="130" cy="22" r="4.5" stroke="#FF7A00" stroke-opacity="0.2"/>
<line x1="135" y1="21.5" x2="185" y2="21.5" stroke="#FF7A00" stroke-opacity="0.2"/>
<circle cx="190" cy="22" r="4.5" stroke="#FF7A00" stroke-opacity="0.2"/>
<path d="M8.37886 3.28809V8.26172H7.36909V3.28809H8.37886ZM0.515578 7.49902C2.00874 7.03711 2.93794 5.87695 2.94331 4.63086H0.784133V3.80371H6.09077V4.63086H3.97456C3.97456 5.80713 4.89302 6.89209 6.39155 7.31641L5.89741 8.10059C4.75874 7.76221 3.91011 7.03711 3.47505 6.11328C3.05073 7.13379 2.16988 7.93408 0.988235 8.30469L0.515578 7.49902ZM2.06245 9.48633V8.70215H8.3896V11.0869H3.08296V12.0215H8.71187V12.8164H2.09468V10.3457H7.37984V9.48633H2.06245ZM18.5918 8.1543V8.98145H14.7676V10.8506H13.7579V8.98145H9.78325V8.1543H18.5918ZM10.879 12.709V9.9375H11.8995V11.8818H17.6143V12.709H10.879ZM10.9112 7.15527V3.73926H17.4532V7.15527H10.9112ZM11.9102 6.34961H16.4434V4.54492H11.9102V6.34961Z" fill="#FF7A00" fill-opacity="0.3"/>
<path d="M68.5293 3.21289V13.0098H67.1435V3.21289H68.5293ZM63.2226 3.90039C64.6943 3.90039 65.79 5.25391 65.79 7.38086C65.79 9.5293 64.6943 10.8721 63.2226 10.8721C61.7187 10.8721 60.623 9.5293 60.6337 7.38086C60.623 5.25391 61.7187 3.90039 63.2226 3.90039ZM63.2226 5.13574C62.4599 5.13574 61.955 5.93066 61.955 7.38086C61.955 8.8418 62.4599 9.62598 63.2226 9.62598C63.9638 9.62598 64.4687 8.8418 64.4687 7.38086C64.4687 5.93066 63.9638 5.13574 63.2226 5.13574ZM74.4454 4.70605V5.79102H69.7188V4.70605H71.4161V3.48145H72.7696V4.70605H74.4454ZM72.1036 6.23145C73.3497 6.23145 74.2413 7.19824 74.252 8.55176C74.2413 9.91602 73.3497 10.8828 72.1036 10.8828C70.8575 10.8828 69.9444 9.91602 69.9444 8.55176C69.9444 7.19824 70.8575 6.23145 72.1036 6.23145ZM72.1036 7.37012C71.5342 7.37012 71.1475 7.81055 71.1475 8.55176C71.1475 9.29297 71.5342 9.72266 72.1036 9.72266C72.6514 9.72266 73.0381 9.29297 73.0489 8.55176C73.0381 7.81055 72.6514 7.37012 72.1036 7.37012ZM78.1836 3.21289V12.9883H76.8838V8.2832H76.0889V12.5693H74.8106V3.40625H76.0889V7.1875H76.8838V3.21289H78.1836Z" fill="#FF7A00"/>
<path d="M126.155 4.26562V5.08203H120.419V4.26562H122.782V3.24512H123.803V4.26562H126.155ZM120.945 7.2627C120.94 6.20996 121.896 5.52246 123.287 5.51172C124.673 5.52246 125.618 6.20996 125.618 7.2627C125.618 8.3208 124.673 9.01367 123.287 9.01367C121.896 9.01367 120.94 8.3208 120.945 7.2627ZM121.611 10.625V9.79785H127.971V12.9131H126.95V10.625H121.611ZM121.934 7.2627C121.923 7.85889 122.471 8.21875 123.287 8.21875C124.103 8.21875 124.651 7.85889 124.662 7.2627C124.651 6.67188 124.103 6.30127 123.287 6.2959C122.471 6.30127 121.923 6.67188 121.934 7.2627ZM126.95 9.30371V3.28809H127.971V5.89844H129.367V6.74707H127.971V9.30371H126.95ZM131.889 9.05664V10.0771H136.411V9.05664H137.432V12.7949H130.879V9.05664H131.889ZM129.794 8.45508V7.60645H138.57V8.45508H129.794ZM130.267 6.20996C132.13 5.96826 133.656 4.94238 133.661 3.80371V3.39551H134.703V3.80371C134.709 4.91016 136.245 5.98438 138.087 6.20996L137.722 7.01562C136.164 6.80078 134.805 6.05957 134.188 5.03369C133.564 6.06494 132.2 6.80078 130.653 7.01562L130.267 6.20996ZM131.889 11.9785H136.411V10.8721H131.889V11.9785Z" fill="#FF7A00" fill-opacity="0.3"/>
<path d="M183.33 3.71777C184.737 3.71777 185.726 4.49121 185.736 5.64062C185.726 6.61816 184.984 7.33252 183.867 7.50977V8.36914C184.716 8.3208 185.575 8.24023 186.37 8.12207L186.445 8.87402C184.426 9.23926 182.159 9.27686 180.505 9.27148L180.397 8.44434C181.117 8.44971 181.96 8.44434 182.847 8.41211V7.52051C181.697 7.35938 180.929 6.63428 180.935 5.64062C180.929 4.49121 181.917 3.71777 183.33 3.71777ZM181.762 12.709V10.0127H182.782V11.8711H188.325V12.709H181.762ZM181.891 5.64062C181.88 6.32275 182.481 6.76855 183.33 6.76855C184.184 6.76855 184.769 6.32275 184.769 5.64062C184.769 4.94238 184.184 4.50195 183.33 4.50195C182.481 4.50195 181.88 4.94238 181.891 5.64062ZM186.961 10.6572V3.29883H187.981V6.47852H189.356V7.33789H187.981V10.6572H186.961ZM193.21 4.72754C193.205 6.07568 194.08 7.27881 195.541 7.75684L194.982 8.55176C193.924 8.16504 193.146 7.42383 192.727 6.45703C192.313 7.55811 191.475 8.42285 190.31 8.8418L189.762 8.02539C191.298 7.49902 192.189 6.21533 192.2 4.77051V3.8252H193.21V4.72754ZM191.341 11.0762C191.335 9.91064 192.571 9.23389 194.596 9.23926C196.61 9.23389 197.845 9.91064 197.851 11.0762C197.845 12.2363 196.61 12.897 194.596 12.8916C192.571 12.897 191.335 12.2363 191.341 11.0762ZM192.351 11.0762C192.345 11.7153 193.183 12.0913 194.596 12.0859C195.998 12.0913 196.835 11.7153 196.841 11.0762C196.835 10.4155 195.998 10.0342 194.596 10.0342C193.183 10.0342 192.345 10.4155 192.351 11.0762ZM194.768 6.08105V5.24316H196.798V3.28809H197.818V8.9707H196.798V6.08105H194.768Z" fill="#FF7A00" fill-opacity="0.3"/>
</svg>
