<svg width="207" height="62" viewBox="0 0 207 62" fill="none" xmlns="http://www.w3.org/2000/svg">
<path fill-rule="evenodd" clip-rule="evenodd" d="M34.8987 56.1754H0V54.8843H34.8987V56.1754Z" fill="white"/>
<path d="M46.996 60.4812H45.7106V51.2504H46.996V60.4812ZM44.1417 55.5723H41.1053V57.2626C41.8273 57.2592 42.5004 57.2339 43.1245 57.1866C43.7521 57.1394 44.3948 57.0635 45.0527 56.9589L45.164 58.0014C44.4488 58.1263 43.7369 58.2123 43.0284 58.2595C42.3199 58.3034 41.5101 58.3253 40.5992 58.3253H39.7692V54.55H42.8259V53.0621H39.7591V52.0196H44.1417V55.5723ZM58.4621 53.3354C58.4587 53.8988 58.538 54.4454 58.7 54.9751C58.8619 55.5014 59.1065 55.9737 59.4338 56.3921C59.761 56.8105 60.1625 57.1344 60.6382 57.3638L59.8589 58.3962C59.3798 58.16 58.9699 57.8277 58.6291 57.3992C58.2917 56.9707 58.0235 56.468 57.8245 55.8911C57.6186 56.5051 57.3336 57.0433 56.9692 57.5055C56.6082 57.9643 56.1746 58.3186 55.6686 58.5682L54.869 57.5257C55.3717 57.2963 55.7951 56.964 56.1392 56.5287C56.4833 56.0901 56.7398 55.5959 56.9085 55.0459C57.0805 54.4926 57.1666 53.9224 57.1666 53.3354V51.9589H58.4621V53.3354ZM62.3387 54.803H63.6949V55.8962H62.3387V60.461H61.0431V51.2504H62.3387V54.803ZM78.5821 60.4812H77.2764V51.2504H78.5821V60.4812ZM73.5821 51.8981C74.0443 51.8981 74.4576 52.0331 74.822 52.303C75.1897 52.5729 75.4782 52.9558 75.6874 53.4518C75.8965 53.9478 76.0011 54.523 76.0011 55.1775C76.0011 55.8388 75.8965 56.4191 75.6874 56.9184C75.4782 57.4144 75.1897 57.7973 74.822 58.0672C74.4576 58.3338 74.0443 58.467 73.5821 58.467C73.1097 58.467 72.688 58.3338 72.3169 58.0672C71.9458 57.7973 71.6556 57.4144 71.4464 56.9184C71.2406 56.4191 71.1394 55.8388 71.1428 55.1775C71.1394 54.523 71.2406 53.9478 71.4464 53.4518C71.6556 52.9558 71.9458 52.5729 72.3169 52.303C72.688 52.0331 73.1097 51.8981 73.5821 51.8981ZM73.5821 53.0621C73.3425 53.0621 73.1317 53.1448 72.9495 53.3101C72.7707 53.472 72.6323 53.7116 72.5345 54.0287C72.4367 54.3459 72.3877 54.7288 72.3877 55.1775C72.3877 55.6296 72.4367 56.0142 72.5345 56.3314C72.6323 56.6485 72.7707 56.8881 72.9495 57.05C73.1317 57.212 73.3425 57.2929 73.5821 57.2929C73.8182 57.2929 74.0241 57.212 74.1995 57.05C74.3749 56.8847 74.5116 56.6435 74.6094 56.3263C74.7073 56.0092 74.7562 55.6262 74.7562 55.1775C74.7562 54.7322 74.7073 54.3509 74.6094 54.0338C74.5116 53.7133 74.3732 53.472 74.1944 53.3101C74.019 53.1448 73.8149 53.0621 73.5821 53.0621ZM94.0968 52.384C94.0968 52.8732 94.0867 53.2966 94.0665 53.6542C94.0462 54.0119 93.9956 54.3982 93.9146 54.8131H95.0483V55.8354H86.6879V54.8131H92.6241C92.668 54.6006 92.7085 54.3408 92.7456 54.0338L87.5887 54.2362L87.447 53.2443L92.8063 53.133C92.8097 53.0115 92.8114 52.8327 92.8114 52.5965H87.7V51.5844H94.0968V52.384ZM94.1373 58.801H88.8944V59.3678H94.4612V60.3598H87.6089V57.8699H92.8519V57.3638H87.5988V56.382H94.1373V58.801ZM110.178 56.8577H108.883V51.2605H110.178V56.8577ZM107.213 54.5905H104.217V55.4204C105.033 55.4137 105.733 55.3934 106.317 55.3597C106.901 55.3226 107.489 55.2585 108.083 55.1674L108.245 56.1998C107.577 56.3078 106.912 56.3803 106.251 56.4174C105.59 56.4545 104.76 56.4731 103.761 56.4731H102.952V53.6289H105.927V52.8394H102.941V51.7969H107.213V54.5905ZM107.051 57.0095C107.709 57.0095 108.275 57.077 108.751 57.212C109.227 57.3435 109.593 57.5392 109.849 57.799C110.106 58.0554 110.236 58.3658 110.239 58.7302C110.236 59.0912 110.106 59.4016 109.849 59.6614C109.593 59.9212 109.225 60.1185 108.746 60.2535C108.27 60.3918 107.705 60.461 107.051 60.461C106.4 60.461 105.836 60.3918 105.36 60.2535C104.885 60.1185 104.519 59.9212 104.262 59.6614C104.009 59.4016 103.883 59.0912 103.883 58.7302C103.883 58.3658 104.009 58.0554 104.262 57.799C104.519 57.5392 104.883 57.3435 105.355 57.212C105.831 57.077 106.396 57.0095 107.051 57.0095ZM107.051 58.0116C105.796 58.0116 105.168 58.2511 105.168 58.7302C105.168 58.9731 105.327 59.1553 105.644 59.2767C105.961 59.3982 106.43 59.4589 107.051 59.4589C107.672 59.4589 108.141 59.3982 108.458 59.2767C108.778 59.1553 108.94 58.9731 108.944 58.7302C108.933 58.2511 108.302 58.0116 107.051 58.0116ZM135.479 60.461H134.244V55.8152H133.414V60.0359H132.189V51.3819H133.414V54.7625H134.244V51.2504H135.479V60.461ZM131.42 58.1431H127.756V52.2018H131.42V58.1431ZM128.961 57.131H130.216V53.2241H128.961V57.131ZM151.034 60.461H149.749V51.2504H151.034V60.461ZM145.062 57.0854C146.429 57.0618 147.741 56.9285 149 56.6856L149.162 57.7484C147.775 58.0385 146.311 58.1836 144.769 58.1836H144.597H143.787V52.1309H145.062V57.0854ZM166.873 60.4812H165.577V55.5115H163.927V54.4589H165.577V51.2504H166.873V60.4812ZM162.571 53.5581C162.571 54.1148 162.655 54.6563 162.824 55.1826C162.996 55.7055 163.254 56.1745 163.598 56.5895C163.946 57.0045 164.369 57.3199 164.869 57.5358L164.11 58.5581C163.59 58.3152 163.146 57.966 162.779 57.5105C162.411 57.0551 162.126 56.5237 161.923 55.9164C161.718 56.5675 161.427 57.1394 161.053 57.632C160.682 58.1212 160.236 58.494 159.717 58.7504L158.948 57.7282C159.447 57.4987 159.869 57.1681 160.213 56.7362C160.557 56.301 160.815 55.8101 160.987 55.2636C161.159 54.7136 161.245 54.1451 161.245 53.5581V53.1735H159.332V52.1411H164.484V53.1735H162.571V53.5581Z" fill="white"/>
<path fill-rule="evenodd" clip-rule="evenodd" d="M207 56.1754H172.102V54.8843H207V56.1754Z" fill="white"/>
<path d="M201.91 40.1302L177.981 6.18748V40.1302H173.865V0H178.886L202.814 33.9427V0H206.93V40.1302H201.91Z" fill="white"/>
<path d="M150.45 3.63605e-06L167.274 40.111H163.07L159.137 30.85H136.76L132.872 40.111H128.668L145.53 0L150.45 3.63605e-06ZM147.971 4.13051L138.6 26.8012H157.297L147.971 4.13051Z" fill="white"/>
<path d="M102.719 33.2356L87.4756 6.59998V40.1302H83.3594V0H88.5159L102.719 24.8678L116.922 0H122.079V40.1302H117.963V6.59998L102.719 33.2356Z" fill="white"/>
<path d="M29.3561 40.1471L17.8218 24.8847H3.85337V20.4061H19.043C26.0994 20.4061 29.3109 18.4615 29.3109 13.099V12.5097C29.3109 7.14722 26.0994 4.79008 19.043 4.79008H4.07096V40.1471H0V0.311523H18.6812C29.6275 0.311523 33.3366 5.61508 33.3366 12.3329V13.2758C33.3366 19.4043 30.5322 23.6472 22.6164 24.6489L33.7437 39.9114V40.1471H29.3561Z" fill="#0066FF"/>
<path fill-rule="evenodd" clip-rule="evenodd" d="M58.4072 32.12C56.9648 35.1793 53.965 37.2055 50.6456 37.2055C45.9997 37.2055 41.98 33.2364 41.98 28.0209C41.98 22.8055 45.9997 18.8364 50.6456 18.8364C55.2915 18.8364 59.3112 22.8055 59.3112 28.0209C59.3112 28.5172 59.2748 29.0023 59.205 29.4736H62.8654C62.917 28.9968 62.9435 28.5121 62.9435 28.0209C62.9435 20.9424 57.4376 15.2041 50.6456 15.2041C43.8536 15.2041 38.3477 20.9424 38.3477 28.0209C38.3477 35.0995 43.8536 40.8378 50.6456 40.8378C56.0621 40.8378 60.6607 37.1883 62.3012 32.12H58.4072Z" fill="#0066FF"/>
<path fill-rule="evenodd" clip-rule="evenodd" d="M61.0241 29.4741H40.0605V26.0493H61.0241V29.4741Z" fill="#0066FF"/>
<circle cx="71.9201" cy="11.675" r="2.38694" fill="white"/>
<circle cx="71.9201" cy="30.4074" r="2.38694" fill="white"/>
</svg>
